<?xml version="1.0" standalone="no"?>
<!DOCTYPE svg PUBLIC "-//W3C//DTD SVG 20010904//EN"
 "http://www.w3.org/TR/2001/REC-SVG-20010904/DTD/svg10.dtd">
<svg version="1.0" xmlns="http://www.w3.org/2000/svg"
 width="16.000000pt" height="16.000000pt" viewBox="0 0 16.000000 16.000000"
 preserveAspectRatio="xMidYMid meet">
<metadata>
Created by potrace 1.11, written by Peter Selinger 2001-2013
</metadata>
<g transform="translate(0.000000,16.000000) scale(0.005333,-0.005333)"
fill="#000000" stroke="none">
<path d="M2060 2691 c-146 -78 -931 -557 -952 -581 -25 -27 -48 -85 -48 -122
0 -17 38 -32 100 -40 21 -3 25 2 31 36 3 21 12 42 20 47 16 11 558 338 606
365 18 11 69 42 115 69 45 28 100 60 120 71 21 12 44 27 52 33 38 32 58 11
162 -164 272 -457 384 -647 384 -651 0 -2 16 -29 36 -59 20 -32 34 -66 32 -78
-2 -17 -58 -55 -238 -164 -129 -78 -246 -148 -260 -156 -14 -8 -117 -69 -230
-136 -188 -113 -207 -122 -241 -117 l-38 6 -16 -56 c-21 -72 -14 -79 73 -79
l67 0 165 100 c91 55 169 102 175 105 6 3 148 87 315 188 348 209 355 215 355
316 l0 61 -252 425 c-335 565 -329 556 -378 580 -52 25 -110 25 -155 1z"/>
<path d="M490 1994 c-37 -16 -76 -49 -91 -75 -6 -12 -179 -680 -204 -789 -2
-8 -20 -81 -40 -162 -47 -186 -44 -223 20 -284 31 -30 57 -45 92 -53 26 -6
206 -51 398 -101 667 -171 631 -163 682 -155 69 10 122 67 144 155 9 36 71
284 139 552 131 520 132 523 87 589 -40 60 -3 49 -890 274 -142 36 -268 65
-280 65 -12 -1 -38 -8 -57 -16z m333 -183 c150 -38 362 -92 472 -121 110 -28
207 -53 215 -55 71 -15 99 -28 105 -44 3 -11 -42 -210 -101 -443 -58 -233
-108 -432 -110 -443 -14 -74 -53 -190 -66 -198 -11 -8 -77 5 -239 47 -123 31
-233 59 -244 61 -209 48 -591 154 -599 167 -7 12 3 68 38 205 26 103 49 195
51 203 2 8 40 161 85 340 73 295 92 350 118 350 2 0 126 -31 275 -69z"/>
<path d="M595 1750 c-64 -42 -84 -124 -45 -187 46 -76 148 -84 216 -18 34 33
38 117 8 162 -36 56 -126 78 -179 43z"/>
<path d="M1337 1580 c-39 -12 -57 -29 -77 -73 -46 -102 49 -214 156 -185 40
10 94 70 95 106 3 73 -17 115 -71 142 -42 21 -59 23 -103 10z"/>
<path d="M439 1042 c-52 -26 -82 -78 -76 -131 11 -103 107 -153 199 -105 38
19 60 56 65 107 10 99 -99 174 -188 129z"/>
<path d="M1140 858 c-107 -53 -96 -204 17 -243 113 -39 215 75 162 182 -34 70
-109 95 -179 61z"/>
<path d="M1832 1930 c-40 -25 -72 -90 -65 -134 14 -94 120 -145 200 -96 45 27
65 62 65 115 0 53 -20 88 -65 115 -41 26 -93 25 -135 0z"/>
</g>
</svg>
