<?xml version="1.0" encoding="iso-8859-1"?>
<!-- Generator: Adobe Illustrator 19.0.0, SVG Export Plug-In . SVG Version: 6.00 Build 0)  -->
<svg version="1.1" xmlns="http://www.w3.org/2000/svg" xmlns:xlink="http://www.w3.org/1999/xlink" x="0px" y="0px"
	 viewBox="0 0 25 25" style="enable-background:new 0 0 25 25;" xml:space="preserve">
<g id="Layer_1">
</g>
<g id="icon-action-header">
	<path style="display:none;fill:#F3C200;" d="M23,7.004c0,3.199-0.506,5.305-1.518,6.316l-0.287,0.287
		c-0.984,1.012-2.174,1.518-3.568,1.518c-0.902,0-1.751-0.219-2.543-0.656l-7.711,7.752C6.881,22.74,6.272,23,5.548,23
		c-0.725,0-1.347-0.26-1.866-0.779l-0.902-0.943C2.259,20.785,2,20.17,2,19.432s0.259-1.367,0.779-1.887l7.547-7.711
		c-0.41-0.957-0.533-2.003-0.369-3.138c0.164-1.134,0.615-2.085,1.354-2.851l0.287-0.287C12.636,2.52,14.769,2,17.996,2h0.164
		c0.273,0,0.464,0.123,0.574,0.369c0.109,0.246,0.082,0.465-0.082,0.656L15.658,6.43l2.994,3.076l3.322-2.994
		c0.191-0.164,0.41-0.191,0.656-0.082C22.877,6.539,23,6.731,23,7.004z M21.729,8.439l-2.707,2.379c-0.274,0.274-0.547,0.274-0.82,0
		l-3.814-3.896c-0.274-0.301-0.287-0.588-0.041-0.861l2.42-2.789c-2.215,0.137-3.65,0.533-4.307,1.189l-0.246,0.287
		c-0.492,0.465-0.807,1.107-0.943,1.928c-0.137,0.82-0.11,1.532,0.082,2.133c0.109,0.465,0.3,0.889,0.574,1.271l-8.244,8.408
		c-0.246,0.246-0.369,0.554-0.369,0.923s0.123,0.691,0.369,0.964l0.943,0.902c0.246,0.274,0.546,0.41,0.902,0.41
		c0.355,0,0.669-0.137,0.943-0.41l8.408-8.449c0.328,0.301,0.697,0.533,1.107,0.697c0.464,0.192,1.011,0.287,1.641,0.287
		c1.066,0,1.969-0.369,2.707-1.107l0.246-0.246C21.208,11.803,21.591,10.463,21.729,8.439z"/>
	<path style="fill:#F3C200;" d="M5.26,9.029c0.985-0.809,1.801-0.252,2.89,1.082C8.273,10.261,8.438,10.086,8.531,10
		c0.093-0.087,1.531-1.455,1.601-1.519c0.071-0.066,0.155-0.188,0.043-0.326c-0.111-0.137-0.521-0.697-0.784-1.06
		c-1.906-2.639,5.215-4.429,4.121-4.456c-0.556-0.015-2.79-0.043-3.123-0.006c-1.353,0.152-3.051,1.49-3.907,2.112
		C5.365,5.559,4.947,6.031,4.878,6.097C4.562,6.391,4.827,7.064,4.254,7.597C3.648,8.159,3.27,7.734,2.919,8.06
		C2.744,8.223,2.258,8.608,2.117,8.738c-0.139,0.13-0.165,0.349-0.022,0.526c0,0,1.332,1.558,1.445,1.695
		c0.112,0.137,0.413,0.253,0.599,0.08c0.186-0.173,0.666-0.618,0.747-0.694C4.968,10.27,4.833,9.381,5.261,9.03L5.26,9.029z
		 M11.279,9.605c-0.127-0.155-0.283-0.158-0.418-0.031L9.348,10.97c-0.118,0.112-0.134,0.317-0.028,0.446l8.745,10.532
		c0.204,0.25,0.558,0.275,0.793,0.059l1.024-0.906c0.233-0.216,0.257-0.596,0.054-0.845L11.279,9.605L11.279,9.605z M22.94,5.122
		c-0.078-0.551-0.348-0.435-0.488-0.201c-0.138,0.233-0.76,1.229-1.016,1.678c-0.253,0.448-0.875,1.329-2.039,0.46
		c-1.211-0.906-0.789-1.538-0.579-1.964c0.212-0.428,0.863-1.624,0.958-1.774c0.093-0.151-0.017-0.588-0.391-0.405
		c-0.376,0.184-2.66,1.145-2.977,2.522c-0.324,1.403,0.272,2.654-0.896,3.899l-1.415,1.562l1.421,1.75l1.744-1.753
		c0.416-0.442,1.303-0.872,2.107-0.679c1.722,0.413,2.66-0.272,3.228-1.403C23.104,7.802,23.019,5.672,22.94,5.122L22.94,5.122z
		 M4.844,20.368c-0.219,0.234-0.219,0.614,0,0.847l1.003,1.038c0.219,0.233,0.567,0.135,0.787-0.098l5.174-5.384l-1.586-1.912
		L4.844,20.368L4.844,20.368z"/>
</g>
</svg>
