<?xml version="1.0" encoding="iso-8859-1"?>
<!-- Generator: Adobe Illustrator 19.0.0, SVG Export Plug-In . SVG Version: 6.00 Build 0)  -->
<svg version="1.1" xmlns="http://www.w3.org/2000/svg" xmlns:xlink="http://www.w3.org/1999/xlink" x="0px" y="0px"
	 viewBox="0 0 25 25" style="enable-background:new 0 0 25 25;" xml:space="preserve">
<g id="Layer_1">
</g>
<g id="icon-nav-comments">
	<path style="fill:#FFFFFF;" d="M22,11.312c0,1.979-0.928,3.662-2.783,5.047c-1.855,1.386-4.095,2.078-6.717,2.078
		c-0.074,0-0.161,0-0.26,0c-0.1,0-0.174,0-0.223,0c-0.396,0-0.755-0.024-1.076-0.074c-0.297,0.371-0.885,0.835-1.763,1.392
		c-0.879,0.557-1.714,0.909-2.505,1.058H6.637H6.525c-0.174,0-0.31-0.049-0.408-0.148c-0.1-0.099-0.148-0.223-0.148-0.371
		c0-0.074,0.012-0.148,0.037-0.223c0.643-1.088,0.965-2.041,0.965-2.857v-0.037c-1.262-0.643-2.239-1.478-2.932-2.505
		C3.346,13.644,3,12.525,3,11.312c0-1.979,0.928-3.661,2.783-5.047C7.639,4.88,9.877,4.188,12.5,4.188
		c2.622,0,4.861,0.693,6.717,2.078C21.072,7.651,22,9.333,22,11.312z M4.188,11.312c0,0.99,0.29,1.905,0.872,2.746
		c0.581,0.841,1.392,1.534,2.431,2.078l0.668,0.334v0.705v0.111v0.037c-0.025,0.569-0.161,1.2-0.408,1.893
		c0.494-0.247,0.971-0.538,1.429-0.872c0.457-0.334,0.748-0.575,0.872-0.724l0.408-0.52l0.668,0.074
		c0.272,0.05,0.568,0.074,0.891,0.074h0.186H12.5c2.301,0,4.261-0.581,5.882-1.744c1.62-1.163,2.431-2.561,2.431-4.193
		s-0.811-3.03-2.431-4.193c-1.621-1.163-3.581-1.744-5.882-1.744S8.238,5.957,6.618,7.119C4.997,8.282,4.188,9.68,4.188,11.312z"/>
</g>
</svg>
