<?xml version="1.0" encoding="iso-8859-1"?>
<!-- Generator: Adobe Illustrator 19.0.0, SVG Export Plug-In . SVG Version: 6.00 Build 0)  -->
<svg version="1.1" xmlns="http://www.w3.org/2000/svg" xmlns:xlink="http://www.w3.org/1999/xlink" x="0px" y="0px"
	 viewBox="0 0 25 25" style="enable-background:new 0 0 25 25;" xml:space="preserve">
<g id="Layer_1">
</g>
<g id="icon-nav-repository_x5F_manager">
	<g>
		<path style="fill:#FFFFFF;" d="M21.647,6.915C21.882,7.15,22,7.429,22,7.75v12.432c0,0.322-0.118,0.6-0.353,0.835
			c-0.235,0.235-0.514,0.353-0.835,0.353H4.188c-0.322,0-0.6-0.118-0.835-0.353C3.117,20.782,3,20.503,3,20.182v-7.088v-1.188V7.75
			c0-0.321,0.117-0.6,0.353-0.835C3.587,6.68,3.865,6.562,4.188,6.562h4.75v-1.15c0-0.495,0.173-0.915,0.52-1.262
			c0.346-0.346,0.767-0.52,1.262-0.52h3.562c0.494,0,0.915,0.173,1.262,0.52c0.346,0.347,0.52,0.767,0.52,1.262v1.15h4.75
			C21.134,6.562,21.412,6.68,21.647,6.915z M4.188,11.906h6.531v-0.631c0-0.321,0.117-0.6,0.353-0.835
			c0.234-0.235,0.513-0.353,0.835-0.353h1.188c0.321,0,0.6,0.118,0.835,0.353c0.234,0.235,0.353,0.514,0.353,0.835v0.631h6.531V7.75
			H4.188V11.906z M20.812,20.182v-7.088h-6.531v1.188c0,0.322-0.118,0.6-0.353,0.835c-0.235,0.235-0.514,0.353-0.835,0.353h-1.188
			c-0.322,0-0.6-0.117-0.835-0.353c-0.235-0.235-0.353-0.513-0.353-0.835v-1.188H4.188v7.088H20.812z M10.125,6.562h4.75v-1.15
			c0-0.173-0.056-0.315-0.167-0.427s-0.254-0.167-0.427-0.167h-3.562c-0.174,0-0.315,0.056-0.427,0.167s-0.167,0.254-0.167,0.427
			V6.562z M13.094,11.275h-1.188v3.006h1.188V11.275z"/>
	</g>
</g>
</svg>
