<svg xmlns="http://www.w3.org/2000/svg" viewBox="0 0 25 25"><path d="M20.51,14a.5.5,0,0,1,0,1H19a8,8,0,0,1-.78,3.11,2.46,2.46,0,0,1,1.45,1.11c.24.4.63,1.36.13,1.7-.67.45-.72-.48-.83-.85a1.52,1.52,0,0,0-1.25-1.06,5.13,5.13,0,0,1-.57.76,6,6,0,0,1-9.25,0,8.32,8.32,0,0,1-.59-.76,1.52,1.52,0,0,0-1.23,1.06c-.11.38-.17,1.31-.85.85-.51-.34-.12-1.3.13-1.7a2.51,2.51,0,0,1,1.44-1.11A9,9,0,0,1,6,15H4.49a.5.5,0,0,1,0-1H6a8.73,8.73,0,0,1,.78-3.11A2.62,2.62,0,0,1,5.36,9.85c-.24-.37-.64-1.3-.23-1.69.66-.63.82.42.93.79A1.52,1.52,0,0,0,7.29,10a8.32,8.32,0,0,1,.59-.76,2.13,2.13,0,0,1,.33-.35A4.56,4.56,0,0,1,12.62,3a4.57,4.57,0,0,1,4.17,5.89,4.37,4.37,0,0,1,.33.35,5.13,5.13,0,0,1,.57.76A1.52,1.52,0,0,0,18.94,9c.11-.37.16-1.3.83-.85.51.34.12,1.31-.13,1.71a2.56,2.56,0,0,1-1.45,1.12A7.78,7.78,0,0,1,19,14ZM7,14.54c0,2.95,1.85,6.15,5,6.5v-13C8.86,8.4,7,11.59,7,14.54ZM12.49,4A3.54,3.54,0,0,0,9,8.15a5.92,5.92,0,0,1,6.9,0A3.55,3.55,0,0,0,12.49,4ZM13,21c6.61-.74,6.61-12.25,0-13Z" fill="#fff"/></svg>