<?xml version="1.0" encoding="iso-8859-1"?>
<!-- Generator: Adobe Illustrator 19.0.0, SVG Export Plug-In . SVG Version: 6.00 Build 0)  -->
<svg version="1.1" xmlns="http://www.w3.org/2000/svg" xmlns:xlink="http://www.w3.org/1999/xlink" x="0px" y="0px"
	 viewBox="0 0 25 25" style="enable-background:new 0 0 25 25;" xml:space="preserve">
<g id="Layer_1">
</g>
<g id="icon-nav-autoload">
	<path style="fill:#FFFFFF;" d="M14.059,3h0.037c0.321,0.025,0.594,0.148,0.816,0.371s0.334,0.495,0.334,0.816
		c0,0.099-0.013,0.198-0.037,0.297l-1.076,5.566h3.451c0.47,0.025,0.816,0.248,1.039,0.668c0.223,0.421,0.186,0.829-0.111,1.225
		l-6.643,9.537C11.621,21.827,11.312,22,10.941,22c-0.148,0-0.297-0.037-0.445-0.111c-0.272-0.099-0.471-0.272-0.594-0.52
		c-0.124-0.248-0.161-0.507-0.111-0.779l1.076-6.346l-3.451-0.037c-0.471,0-0.816-0.216-1.039-0.649
		c-0.223-0.433-0.186-0.847,0.111-1.243l6.643-8.795c0.024-0.024,0.049-0.049,0.074-0.074c0.074-0.099,0.148-0.173,0.223-0.223
		c0.173-0.124,0.346-0.198,0.52-0.223C13.972,3,14.009,3,14.059,3z M7.453,13.02l4.824,0.037l-1.336,7.756l6.605-9.574h-4.824
		l1.336-7.051L7.453,13.02z"/>
</g>
</svg>
