<svg xmlns="http://www.w3.org/2000/svg" viewBox="0 0 25 25"><path d="M4.43,22A1.43,1.43,0,0,1,3,20.57V4.43A1.43,1.43,0,0,1,4.43,3H20.57A1.43,1.43,0,0,1,22,4.43V20.57A1.43,1.43,0,0,1,20.57,22ZM4.09,4.09a.47.47,0,0,0-.14.34V20.57a.48.48,0,0,0,.48.48H20.57a.48.48,0,0,0,.48-.48V4.43a.48.48,0,0,0-.48-.48H4.43A.47.47,0,0,0,4.09,4.09Zm1.29.83A.47.47,0,0,0,5,5.05a.45.45,0,0,0-.14.32V16.79a.45.45,0,0,0,.14.32.47.47,0,0,0,.34.14H19.63a.47.47,0,0,0,.34-.14.45.45,0,0,0,.14-.32V5.38A.45.45,0,0,0,20,5.05a.47.47,0,0,0-.34-.14ZM16,16.3,10.16,10a1.18,1.18,0,0,0-.45-.33,1.35,1.35,0,0,0-.54-.11,1.25,1.25,0,0,0-.55.12,1.29,1.29,0,0,0-.44.34L5.86,12.69V5.86H19.14V16.3ZM8.9,10.68A.37.37,0,0,1,9,10.57a.33.33,0,0,1,.15,0,.37.37,0,0,1,.17,0,.5.5,0,0,1,.13.09l5.25,5.64H5.86V14.11ZM14,11a1.82,1.82,0,0,1-.56-1.34,1.9,1.9,0,0,1,1.91-1.91,1.82,1.82,0,0,1,1.34.56,1.84,1.84,0,0,1,.56,1.35,1.9,1.9,0,0,1-1.89,1.89A1.84,1.84,0,0,1,14,11Zm.67-2a.93.93,0,0,0-.28.69.91.91,0,0,0,.28.67.93.93,0,0,0,.69.28,1,1,0,0,0,.95-.95A.93.93,0,0,0,16,9a.91.91,0,0,0-.67-.28A.93.93,0,0,0,14.67,9Z" fill="#fff"/></svg>