<svg xmlns="http://www.w3.org/2000/svg" viewBox="0 0 25 25"><path d="M12.27,22.95a.57.57,0,0,1-.19-.15,19.69,19.69,0,0,1-3-4.59c-1.72-3-3.25-6.75-3-10.27a6.51,6.51,0,0,1,13,0c.22,3.52-1.31,7.24-3,10.27a19.67,19.67,0,0,1-3,4.59A.56.56,0,0,1,12.27,22.95ZM10.4,3.47c-4,1.71-3.61,6-2.53,9.39a31.16,31.16,0,0,0,4.63,8.75A38.53,38.53,0,0,0,15,17.69c1.57-2.91,3.13-6.38,2.88-9.75A5.46,5.46,0,0,0,10.4,3.47Zm-.2,7.06c-3-2.88,1.65-7.32,4.61-4.45S13.15,13.4,10.2,10.53ZM11,6.82c-2,1.91,1.07,4.9,3,3S13,4.9,11,6.82Z" fill="#fff"/></svg>