<svg xmlns="http://www.w3.org/2000/svg" viewBox="0 0 25 25"><path d="M12.37,21l-.12,0-.44-.26-1-.67q-.64-.43-1.45-1a20.07,20.07,0,0,1-1.65-1.39,18.31,18.31,0,0,1-1.81-1.83,16.73,16.73,0,0,1-1.38-1.85,10.07,10.07,0,0,1-1.11-2.34A7.66,7.66,0,0,1,3,9.24a5.1,5.1,0,0,1,.41-2A5.24,5.24,0,0,1,6.2,4.42,5.15,5.15,0,0,1,8.25,4a4.52,4.52,0,0,1,1.48.26A5.35,5.35,0,0,1,11.18,5a6.83,6.83,0,0,1,.73.63,4.13,4.13,0,0,1,.58.71,5,5,0,0,1,.6-.71A6.83,6.83,0,0,1,13.82,5a5.4,5.4,0,0,1,1.44-.77A4.49,4.49,0,0,1,16.75,4a5.08,5.08,0,0,1,2,.41,5.3,5.3,0,0,1,1.66,1.12,5.41,5.41,0,0,1,1.13,1.67,5,5,0,0,1,.42,2,7.66,7.66,0,0,1-.37,2.32,10.07,10.07,0,0,1-1.11,2.34,16.07,16.07,0,0,1-1.39,1.85,20.55,20.55,0,0,1-1.8,1.83q-.86.78-1.67,1.39t-1.45,1q-.63.43-1,.67l-.44.26-.12,0-.14,0ZM6.6,5.33a4.39,4.39,0,0,0-1.36.91,4.2,4.2,0,0,0-.92,1.35A4.13,4.13,0,0,0,4,9.24a6.32,6.32,0,0,0,.4,2.23,10.51,10.51,0,0,0,1,2,14,14,0,0,0,1.4,1.82q.77.85,1.49,1.51a23.23,23.23,0,0,0,2.52,2q1.19.8,1.66,1.09.49-.29,1.68-1.09a21.94,21.94,0,0,0,2.5-2,20.72,20.72,0,0,0,1.51-1.51,14,14,0,0,0,1.4-1.82,10.51,10.51,0,0,0,1-2A6.32,6.32,0,0,0,21,9.24a4,4,0,0,0-.34-1.65,4.41,4.41,0,0,0-.92-1.35,4.28,4.28,0,0,0-1.35-.91A4.13,4.13,0,0,0,16.75,5a3.75,3.75,0,0,0-2.36.86A4,4,0,0,0,13,7.66a.5.5,0,0,1-.19.24.52.52,0,0,1-.3.09.49.49,0,0,1-.28-.09A.5.5,0,0,1,12,7.66a4,4,0,0,0-1.41-1.8A3.75,3.75,0,0,0,8.25,5,4.13,4.13,0,0,0,6.6,5.33Z" fill="#fff"/></svg>