<svg xmlns="http://www.w3.org/2000/svg" viewBox="0 0 25 25"><path d="M20.57,4.91A1.43,1.43,0,0,1,22,6.32v13.3a1.44,1.44,0,0,1-1.43,1.43H4.43A1.44,1.44,0,0,1,3,19.63V6.32A1.43,1.43,0,0,1,4.43,4.91H6.8V4.43a.47.47,0,0,1,.95,0v.48h9.5V4.43a.47.47,0,0,1,.95,0v.48ZM4.43,5.86a.48.48,0,0,0-.48.46V8.7H21.05V6.32a.48.48,0,0,0-.48-.46H18.2V7.29a.47.47,0,0,1-.95,0V5.86H7.75V7.29a.47.47,0,0,1-.95,0V5.86ZM20.57,20.11a.48.48,0,0,0,.48-.48v-10H3.95v10a.48.48,0,0,0,.48.48Zm-13.3-5.7a.48.48,0,0,0,0-1H6.32a.48.48,0,0,0,0,1Zm0,1.89a.47.47,0,0,0,0-.95H6.32a.47.47,0,0,0,0,.95Zm0,1.89a.47.47,0,0,0,0-.95H6.32a.47.47,0,0,0,0,.95Zm2.86-5.7a.47.47,0,0,0,0-.95H9.18a.47.47,0,0,0,0,.95Zm0,1.91a.48.48,0,0,0,0-1H9.18a.48.48,0,0,0,0,1Zm0,1.89a.47.47,0,0,0,0-.95H9.18a.47.47,0,0,0,0,.95Zm0,1.89a.47.47,0,0,0,0-.95H9.18a.47.47,0,0,0,0,.95ZM13,12.5a.47.47,0,0,0,0-.95H12a.47.47,0,0,0,0,.95Zm0,1.91a.48.48,0,0,0,0-1H12a.48.48,0,0,0,0,1Zm0,1.89a.47.47,0,0,0,0-.95H12a.47.47,0,0,0,0,.95Zm0,1.89a.47.47,0,0,0,0-.95H12a.47.47,0,0,0,0,.95Zm2.84-5.7a.47.47,0,0,0,0-.95h-.95a.47.47,0,0,0,0,.95Zm0,1.91a.48.48,0,0,0,0-1h-.95a.48.48,0,0,0,0,1Zm0,1.89a.47.47,0,0,0,0-.95h-.95a.47.47,0,0,0,0,.95Zm0,1.89a.47.47,0,0,0,0-.95h-.95a.47.47,0,0,0,0,.95Zm2.86-5.7a.47.47,0,0,0,0-.95h-.95a.47.47,0,0,0,0,.95Zm0,1.91a.48.48,0,0,0,0-1h-.95a.48.48,0,0,0,0,1Zm0,1.89a.47.47,0,0,0,0-.95h-.95a.47.47,0,0,0,0,.95Zm0,1.89a.47.47,0,0,0,0-.95h-.95a.47.47,0,0,0,0,.95Z" fill="#fff"/></svg>