<svg xmlns="http://www.w3.org/2000/svg" viewBox="0 0 25 25"><path d="M21.88,3.22a.48.48,0,0,1,.11.39,25.85,25.85,0,0,1-2.83,8.6c-1.79,3.1-4.84,5.42-8.58,5a10.13,10.13,0,0,1-2.72-.65c-.37-.17-1.31-.47-1-1.05s.94,0,1.31.17a7.65,7.65,0,0,0,8.89-2.2C19.35,10.88,20.33,7.33,21,4a66.47,66.47,0,0,0-9.39.34C8.7,4.75,6,5.83,5.13,8.86a6.87,6.87,0,0,0,.11,3.68,4.68,4.68,0,0,0,.54,1.13,22,22,0,0,1,1.68-2,16,16,0,0,1,3.85-2.85,10.12,10.12,0,0,1,2-.84c.44-.12,1.63-.51,2,0,.48.73-.72.73-1.08.79a8,8,0,0,0-2.1.71,14.63,14.63,0,0,0-4,2.89A13.24,13.24,0,0,0,4,21.08c0,.31.06.72-.3.87a.48.48,0,0,1-.64-.34,5.91,5.91,0,0,1,.24-2.54,13.81,13.81,0,0,1,1.89-4.55,6.25,6.25,0,0,1-.87-1.7,7.69,7.69,0,0,1,.32-5.4A6.67,6.67,0,0,1,8.92,3.93c3.83-1.18,8.16-.88,12.11-.88h.48a.52.52,0,0,1,.37.17C21.93,3.28,21.83,3.17,21.88,3.22Z" fill="#fff"/></svg>