<svg xmlns="http://www.w3.org/2000/svg" viewBox="0 0 25 25"><path d="M2.56,13.05a.54.54,0,0,1-.4-.16A.52.52,0,0,1,2,12.51a.55.55,0,0,1,.56-.56h3.3a.55.55,0,0,1,.56.56.52.52,0,0,1-.16.38.54.54,0,0,1-.4.16Zm4.2-5.56a.47.47,0,0,1-.18-.12l-2.2-2.2a.55.55,0,0,1,0-.8.58.58,0,0,1,.78,0L7.37,6.6A.51.51,0,0,1,7.53,7a.59.59,0,0,1-.15.4.46.46,0,0,1-.19.12.75.75,0,0,1-.22,0A.64.64,0,0,1,6.76,7.49ZM4.56,20.76a.61.61,0,0,1-.18-.13.48.48,0,0,1-.17-.38.55.55,0,0,1,.17-.4l2.2-2.2a.55.55,0,0,1,.8,0,.51.51,0,0,1,.15.38.59.59,0,0,1-.15.4l-2.22,2.2a.61.61,0,0,1-.18.13.51.51,0,0,1-.41,0Zm6-3.67A4.89,4.89,0,0,1,9,16a5.26,5.26,0,0,1-1.07-1.59,4.71,4.71,0,0,1-.4-1.92,4.76,4.76,0,0,1,.4-1.94A5.13,5.13,0,0,1,9,9a5,5,0,0,1,1.58-1.06,4.82,4.82,0,0,1,1.92-.39,4.88,4.88,0,0,1,1.94.39,4.92,4.92,0,0,1,2.63,2.63,4.88,4.88,0,0,1,.39,1.94,4.82,4.82,0,0,1-.39,1.92A5.1,5.1,0,0,1,16,16a4.91,4.91,0,0,1-3.52,1.46A4.82,4.82,0,0,1,10.57,17.09Zm-.8-7.31a3.88,3.88,0,0,0,0,5.46,3.84,3.84,0,0,0,5.45,0,3.86,3.86,0,0,0,0-5.46,3.84,3.84,0,0,0-5.45,0Zm2.34-3.52a.52.52,0,0,1-.16-.38V2.56a.54.54,0,0,1,.16-.4A.52.52,0,0,1,12.49,2a.55.55,0,0,1,.56.56V5.88a.52.52,0,0,1-.16.38.54.54,0,0,1-.4.16A.52.52,0,0,1,12.11,6.26Zm0,16.58a.52.52,0,0,1-.16-.38V19.14a.54.54,0,0,1,.16-.4.52.52,0,0,1,.38-.16.55.55,0,0,1,.56.56v3.32a.52.52,0,0,1-.16.38.54.54,0,0,1-.4.16A.52.52,0,0,1,12.11,22.84Zm5.7-15.35a.47.47,0,0,1-.18-.12.59.59,0,0,1-.15-.4.51.51,0,0,1,.15-.38l2.22-2.22a.51.51,0,0,1,.38-.15.57.57,0,0,1,.4.95l-2.2,2.2a.46.46,0,0,1-.19.12.75.75,0,0,1-.22,0A.64.64,0,0,1,17.81,7.49ZM20,20.76a.39.39,0,0,1-.17-.13l-2.22-2.2a.59.59,0,0,1-.15-.4.51.51,0,0,1,.15-.38.55.55,0,0,1,.8,0l2.2,2.2a.59.59,0,0,1,.15.4.51.51,0,0,1-.15.38.61.61,0,0,1-.18.13.5.5,0,0,1-.21,0A.58.58,0,0,1,20,20.76Zm-.88-7.71a.54.54,0,0,1-.4-.16.52.52,0,0,1-.16-.38.55.55,0,0,1,.56-.56h3.3a.55.55,0,0,1,.56.56.52.52,0,0,1-.16.38.54.54,0,0,1-.4.16Z" fill="#fff"/></svg>