<svg xmlns="http://www.w3.org/2000/svg" viewBox="0 0 25 25"><path d="M3.29,22l-.17-.09a.48.48,0,0,1-.09-.5C3.67,19.59,6.26,13,9,16s-3.53,5.34-5.4,6C3.49,22,3.46,22,3.29,22ZM19.73,3.08A16,16,0,0,0,15,4.24a11.45,11.45,0,0,0-3.92,2.84,5.47,5.47,0,0,1-.42.51,1,1,0,0,1-.62.24,4.87,4.87,0,0,0-1.62.66,9.85,9.85,0,0,0-2.49,2.29,10.86,10.86,0,0,0-1.91,3,.48.48,0,0,0,.15.59.47.47,0,0,0,.61-.06,6.92,6.92,0,0,1,4-1.74,7.72,7.72,0,0,0,3.67,3.67,6.87,6.87,0,0,1-1.74,4c-.37.37.11,1.06.56.76a16.86,16.86,0,0,0,2.93-1.91,9.78,9.78,0,0,0,2.29-2.49,5.18,5.18,0,0,0,.63-1.49,2,2,0,0,1,.19-.68,3.67,3.67,0,0,1,.58-.49A11.11,11.11,0,0,0,20.76,10,16,16,0,0,0,22,3.48V3h-.48Q20.61,3,19.73,3.08ZM6.84,16.57c-1.27.92-2,2.73-2.54,4.14a10.14,10.14,0,0,0,4-2.32,1.23,1.23,0,0,0,.28-1.5A1.13,1.13,0,0,0,6.84,16.57Zm.8-6.27A5.4,5.4,0,0,1,9.81,8.86a10,10,0,0,0-.67,1.4c-.1.26-.2,1.13-.39,1.31s-1.06.13-1.3.19a9,9,0,0,0-1.5.55A16.8,16.8,0,0,1,7.64,10.29Zm6.87,4.65a9.18,9.18,0,0,1-1.52.42,6.48,6.48,0,0,1-3-2.62A2.93,2.93,0,0,1,9.64,12a5.8,5.8,0,0,1,.57-1.94,8.69,8.69,0,0,1,1.59-2.39C14.11,5.07,17.62,4.05,21,4a12.45,12.45,0,0,1-3.75,9.26A8.2,8.2,0,0,1,14.5,14.94Zm-1.33,2.85a5.94,5.94,0,0,0,.21-1c.07-.56,0-.51.58-.66a9.25,9.25,0,0,0,2.17-.92,8.45,8.45,0,0,1-3.45,3.84A8,8,0,0,0,13.18,17.79Zm1-6.93C12,8.69,15.33,5.33,17.5,7.5S16.31,13,14.14,10.86Zm.67-2.69a1.43,1.43,0,0,0,2,2A1.43,1.43,0,0,0,14.81,8.17Z" fill="#fff"/></svg>