<svg version="1.1" xmlns="http://www.w3.org/2000/svg" xmlns:xlink="http://www.w3.org/1999/xlink" x="0px" y="0px"
	 viewBox="0 0 25 25" enable-background="new 0 0 25 25" xml:space="preserve">
	<path fill="#FFFFFF" d="M21,11.8c0.7,0.7,1,1.5,1,2.5c0,1-0.3,1.8-1,2.5c-0.7,0.7-1.5,1-2.5,1c-0.1,0-0.5,0-1.2,0v0.6
		c0,1-0.3,1.8-1,2.5c-0.7,0.7-1.5,1-2.5,1H6.6c-1,0-1.8-0.3-2.5-1c-0.7-0.7-1-1.5-1-2.5V9.5c0-0.3,0.1-0.6,0.4-0.9
		c0.2-0.2,0.5-0.3,0.8-0.3h11.9c0.3,0,0.6,0.1,0.8,0.3c0.2,0.2,0.4,0.5,0.4,0.9v1.2c0.6,0,1,0,1.2,0C19.4,10.7,20.3,11.1,21,11.8z
		 M16.1,9.4H4.2v9c0,0.7,0.2,1.2,0.7,1.7c0.5,0.5,1,0.7,1.7,0.7h7.1c0.7,0,1.2-0.2,1.7-0.7c0.5-0.5,0.7-1,0.7-1.7V9.4z M5.9,5.7V2.6
		c0-0.2,0.1-0.3,0.2-0.5s0.3-0.2,0.5-0.2c0.2,0,0.3,0.1,0.5,0.2c0.1,0.1,0.2,0.3,0.2,0.5v3.1c0,0.2-0.1,0.3-0.2,0.5
		C6.9,6.3,6.8,6.4,6.6,6.4c-0.2,0-0.3-0.1-0.5-0.2C6,6.1,5.9,5.9,5.9,5.7z M9.4,5.7V2.6c0-0.2,0.1-0.3,0.2-0.5s0.3-0.2,0.5-0.2
		c0.2,0,0.3,0.1,0.5,0.2s0.2,0.3,0.2,0.5v3.1c0,0.2-0.1,0.3-0.2,0.5c-0.1,0.1-0.3,0.2-0.5,0.2c-0.2,0-0.3-0.1-0.5-0.2
		C9.5,6.1,9.4,5.9,9.4,5.7z M12.9,5.7V2.6c0-0.2,0.1-0.3,0.2-0.5s0.3-0.2,0.5-0.2c0.2,0,0.3,0.1,0.5,0.2s0.2,0.3,0.2,0.5v3.1
		c0,0.2-0.1,0.3-0.2,0.5c-0.1,0.1-0.3,0.2-0.5,0.2c-0.2,0-0.3-0.1-0.5-0.2C13,6.1,12.9,5.9,12.9,5.7z M20.2,16
		c0.5-0.5,0.7-1,0.7-1.7c0-0.7-0.2-1.2-0.7-1.7c-0.5-0.4-1-0.7-1.7-0.7c-0.1,0-0.5,0-1.2,0v4.8c0.7,0,1.1,0,1.2,0
		C19.1,16.7,19.7,16.4,20.2,16z"/>
</svg>
