<svg xmlns="http://www.w3.org/2000/svg" viewBox="0 0 25 25"><path d="M18.62,3.81C19.81,4.27,21,5.12,21,6.54v11A2.52,2.52,0,0,1,19,20V21a1,1,0,0,1-1,1H17a1,1,0,0,1-1-1V20H9v1c0,.54.06,1-.49,1h-1C7,22,6,21.55,6,21V20a2.52,2.52,0,0,1-2-2.44v-11c0-2.66,3.63-3.2,5.61-3.4,2.61-.26,6.52-.23,9,.67C19.6,4.19,17.93,3.56,18.62,3.81ZM20,17.51v-11c0-1.38-1.81-1.89-2.88-2.13A23.87,23.87,0,0,0,12.5,4a23.87,23.87,0,0,0-4.61.37C6.82,4.65,5,5.16,5,6.54v11A1.51,1.51,0,0,0,6.49,19h12A1.51,1.51,0,0,0,20,17.51ZM18.51,8a.5.5,0,0,1,.49.51v5a.5.5,0,0,1-.49.51h-12A.5.5,0,0,1,6,13.52v-5A.5.5,0,0,1,6.49,8Zm-11,10a1.49,1.49,0,0,0,0-3A1.49,1.49,0,0,0,7.51,18ZM7,9v4H9.85L8.23,11.94a.5.5,0,0,1,.55-.84L11.64,13h4.22l-1.62-1.07a.5.5,0,0,1,.55-.84L17.65,13H18V9Zm.51,7a.5.5,0,0,1,0,1A.5.5,0,0,1,7.51,16ZM8,21V20H7v1ZM16.5,7a.5.5,0,0,0,0-1h-8a.5.5,0,0,0,0,1Zm1,11a1.49,1.49,0,0,0,0-3A1.49,1.49,0,0,0,17.49,18Zm0-2a.5.5,0,0,1,0,1A.5.5,0,0,1,17.49,16ZM17,21h1V20H17Z" fill="#fff"/></svg>