<svg xmlns="http://www.w3.org/2000/svg" viewBox="0 0 25 25"><path d="M20.85,4.1a.64.64,0,0,1,.11.17.49.49,0,0,1,0,.2V16.76a1.66,1.66,0,0,1-.32,1,2.66,2.66,0,0,1-.91.78,4.65,4.65,0,0,1-1.2.45,6,6,0,0,1-1.39.16,6.16,6.16,0,0,1-1.4-.16,4.63,4.63,0,0,1-1.2-.45,2.66,2.66,0,0,1-.91-.78,1.66,1.66,0,0,1-.32-1,1.69,1.69,0,0,1,.32-1,2.66,2.66,0,0,1,.91-.78,4.41,4.41,0,0,1,1.2-.44,6.53,6.53,0,0,1,1.4-.15,6.41,6.41,0,0,1,1.39.15,4.42,4.42,0,0,1,1.2.44l.2.12.18.14V7.37l-9,1.75v9.52a1.66,1.66,0,0,1-.32,1,2.66,2.66,0,0,1-.91.78,4.63,4.63,0,0,1-1.2.45,6.16,6.16,0,0,1-1.4.16A6,6,0,0,1,6,20.84a4.65,4.65,0,0,1-1.2-.45,2.66,2.66,0,0,1-.91-.78,1.64,1.64,0,0,1,0-1.94,2.66,2.66,0,0,1,.91-.78A4.65,4.65,0,0,1,6,16.43a6,6,0,0,1,1.39-.16,6.16,6.16,0,0,1,1.4.16,4.63,4.63,0,0,1,1.2.45l.19.11.19.13V6.35a.5.5,0,0,1,.09-.3.41.41,0,0,1,.26-.17L20.5,4a.34.34,0,0,1,.17,0A.66.66,0,0,1,20.85,4.1Zm-13.5,16a4.45,4.45,0,0,0,2.13-.46q.85-.46.85-1t-.85-1a4.45,4.45,0,0,0-2.13-.46,4.4,4.4,0,0,0-2.12.46q-.85.46-.85,1t.85,1A4.4,4.4,0,0,0,7.35,20.06Zm3.83-11.9,9-1.75V5l-9,1.72Zm6,10a4.48,4.48,0,0,0,2.13-.45q.85-.45.85-1t-.85-1a4.48,4.48,0,0,0-2.12-.45,4.53,4.53,0,0,0-2.13.45q-.85.45-.85,1t.85,1A4.53,4.53,0,0,0,17.18,18.16Z" fill="#fff"/></svg>