<svg xmlns="http://www.w3.org/2000/svg" viewBox="0 0 25 25"><path d="M23.1,8.3a.6.6,0,0,1,0,1.13L20,10.52V12a1.85,1.85,0,0,1,.14,3.35l1,4.25a.62.62,0,0,1-.57.76H18.28a.59.59,0,0,1-.54-.76l1-4.25A1.85,1.85,0,0,1,18.87,12V10.92l-6.2,2.15c-.06.06-.3,0-.36,0L6.13,10.92v2.5c2.74,2.5,7.53,2.66,10.77,1.2.73-.3,1.11.79.45,1.13-3.69,1.57-9.26,1.45-12.22-1.63A.53.53,0,0,1,5,13.7V10.52L1.9,9.43a.6.6,0,0,1,0-1.13L12.31,4.67a.7.7,0,0,1,.36,0ZM19.41,9.46l1.67-.59-8.6-3-8.58,3,8.58,3,4.57-1.58L12.4,9.46c-.75-.08-.54-1.32.2-1.18Zm0,3.63a.61.61,0,0,0,0,1.23C20.2,14.3,20.2,13.09,19.46,13.09Z" fill="#fff"/></svg>