<?xml version="1.0" encoding="iso-8859-1"?>
<!-- Generator: Adobe Illustrator 19.0.0, SVG Export Plug-In . SVG Version: 6.00 Build 0)  -->
<svg version="1.1" xmlns="http://www.w3.org/2000/svg" xmlns:xlink="http://www.w3.org/1999/xlink" x="0px" y="0px"
	 viewBox="0 0 25 25" style="enable-background:new 0 0 25 25;" xml:space="preserve">
<g id="Layer_1">
</g>
<g id="icon-nav-themes">
	<path style="fill:#FFFFFF;" d="M17.686,16.65c-0.568,0-1.112-0.093-1.63-0.278c-0.519-0.185-0.896-0.358-1.13-0.519
		c-0.235-0.16-0.525-0.376-0.871-0.648c-0.173-0.148-0.396-0.346-0.667-0.593c-0.47-0.42-0.754-0.642-0.852-0.667
		c-0.025,0-0.05,0-0.074,0c-0.025,0-0.05,0-0.074,0c-0.074,0.025-0.309,0.21-0.704,0.556c-0.346,0.296-0.63,0.531-0.852,0.704
		l-0.037,0.037c-0.371,0.296-0.68,0.525-0.926,0.685c-0.248,0.161-0.618,0.321-1.112,0.482C8.262,16.57,7.743,16.65,7.2,16.65
		c-1.408,0-2.532-0.519-3.372-1.556c-0.766-0.939-1-2.075-0.704-3.409c0.024-0.222,0.141-0.371,0.352-0.445
		c0.21-0.074,0.401-0.049,0.574,0.074c0.296,0.222,0.667,0.333,1.112,0.333c0.345,0,0.691-0.074,1.037-0.222
		c0.197-0.099,0.376-0.228,0.537-0.389c0.16-0.16,0.345-0.376,0.556-0.648c0.21-0.272,0.352-0.445,0.426-0.519
		c0.296-0.321,0.531-0.568,0.704-0.741c0.173-0.173,0.426-0.346,0.76-0.519C9.516,8.437,9.868,8.35,10.238,8.35
		c0.815,0,1.556,0.296,2.223,0.889c0.642-0.593,1.371-0.889,2.186-0.889c0.371,0,0.728,0.087,1.075,0.259
		c0.345,0.173,0.611,0.346,0.797,0.519c0.185,0.173,0.413,0.42,0.685,0.741c0.099,0.074,0.253,0.247,0.463,0.519
		c0.21,0.272,0.395,0.488,0.556,0.648c0.16,0.161,0.339,0.291,0.537,0.389c0.345,0.148,0.691,0.222,1.037,0.222
		c0.493,0,0.889-0.111,1.186-0.333c0.173-0.123,0.358-0.148,0.556-0.074c0.197,0.074,0.321,0.222,0.371,0.445
		c0.247,1.334-0.013,2.47-0.778,3.409c-0.396,0.494-0.902,0.877-1.519,1.149C18.994,16.514,18.353,16.65,17.686,16.65z
		 M12.461,12.759c0.049,0,0.086,0,0.111,0h0.074c0.024,0,0.049,0,0.074,0c0.271,0.05,0.741,0.371,1.408,0.963
		c0.271,0.222,0.493,0.408,0.667,0.556c0.296,0.247,0.543,0.439,0.741,0.574c0.197,0.136,0.493,0.272,0.889,0.408
		c0.395,0.136,0.815,0.204,1.26,0.204c1.086,0,1.939-0.371,2.557-1.112c0.371-0.469,0.568-1.025,0.593-1.667
		c-0.322,0.099-0.667,0.148-1.037,0.148c-0.494,0-1-0.111-1.519-0.333c-0.248-0.099-0.482-0.247-0.704-0.445
		c-0.222-0.197-0.47-0.469-0.741-0.815c-0.272-0.346-0.433-0.543-0.482-0.593c-0.371-0.395-0.674-0.679-0.908-0.852
		c-0.235-0.173-0.5-0.259-0.797-0.259c-0.643,0-1.223,0.309-1.741,0.926c-0.124,0.148-0.272,0.222-0.445,0.222
		c-0.173,0-0.322-0.074-0.445-0.222c-0.544-0.617-1.124-0.926-1.741-0.926c-0.296,0-0.563,0.087-0.797,0.259
		c-0.235,0.173-0.537,0.457-0.908,0.852c-0.025,0.05-0.179,0.247-0.463,0.593c-0.285,0.346-0.531,0.611-0.741,0.797
		c-0.211,0.185-0.439,0.34-0.685,0.463c-0.519,0.222-1.026,0.333-1.519,0.333c-0.346,0-0.68-0.049-1-0.148
		c0,0.643,0.197,1.198,0.593,1.667c0.593,0.741,1.408,1.112,2.445,1.112c0.419,0,0.821-0.061,1.204-0.185
		c0.382-0.123,0.673-0.253,0.871-0.389c0.197-0.136,0.456-0.327,0.778-0.574l0.074-0.037c0.197-0.148,0.456-0.371,0.778-0.667
		c0.593-0.494,1.012-0.765,1.26-0.815C12.288,12.772,12.387,12.759,12.461,12.759z"/>
</g>
</svg>
