<?xml version="1.0" encoding="iso-8859-1"?>
<!-- Generator: Adobe Illustrator 19.0.0, SVG Export Plug-In . SVG Version: 6.00 Build 0)  -->
<svg version="1.1" xmlns="http://www.w3.org/2000/svg" xmlns:xlink="http://www.w3.org/1999/xlink" x="0px" y="0px"
	 viewBox="0 0 25 25" style="enable-background:new 0 0 25 25;" xml:space="preserve">
<g id="Layer_1">
</g>
<g id="icon-nav-extension">
	<path style="fill:#FFFFFF;" d="M18.141,21.647C18.041,21.882,17.856,22,17.584,22H7.416c-0.272,0-0.458-0.118-0.557-0.353
		c-0.1-0.235-0.062-0.452,0.111-0.649l3.154-3.711v-6.568H9.717c-0.148,0-0.285-0.062-0.408-0.186
		c-0.124-0.124-0.186-0.266-0.186-0.427c0-0.161,0.062-0.297,0.186-0.408c0.123-0.111,0.26-0.167,0.408-0.167h1.002
		c0.173,0,0.315,0.056,0.427,0.167s0.167,0.254,0.167,0.427v7.385c0,0.148-0.05,0.272-0.148,0.371l-2.412,2.932h7.496l-2.412-2.932
		c-0.1-0.099-0.148-0.223-0.148-0.371v-7.385c0-0.173,0.056-0.315,0.167-0.427s0.253-0.167,0.427-0.167h1.002
		c0.148,0,0.284,0.056,0.408,0.167c0.123,0.111,0.186,0.248,0.186,0.408c0,0.161-0.062,0.303-0.186,0.427
		c-0.124,0.124-0.26,0.186-0.408,0.186h-0.408v6.568l3.154,3.711C18.202,21.196,18.24,21.412,18.141,21.647z M10.719,7.75
		c0-0.321,0.117-0.6,0.353-0.835c0.234-0.235,0.513-0.353,0.835-0.353c0.321,0,0.6,0.118,0.835,0.353
		c0.234,0.235,0.353,0.514,0.353,0.835c0,0.322-0.118,0.6-0.353,0.835c-0.235,0.235-0.514,0.353-0.835,0.353
		c-0.322,0-0.6-0.117-0.835-0.353C10.836,8.35,10.719,8.072,10.719,7.75z M13.688,5.078c0-0.569,0.204-1.058,0.612-1.466
		S15.203,3,15.784,3c0.581,0,1.076,0.204,1.484,0.612s0.612,0.897,0.612,1.466c0,0.569-0.204,1.058-0.612,1.466
		s-0.903,0.612-1.484,0.612c-0.582,0-1.076-0.204-1.484-0.612S13.688,5.647,13.688,5.078z M14.875,5.078
		c0,0.248,0.086,0.458,0.26,0.631c0.173,0.173,0.383,0.26,0.631,0.26c0.247,0,0.457-0.086,0.631-0.26
		c0.173-0.173,0.26-0.383,0.26-0.631c0-0.247-0.087-0.458-0.26-0.631c-0.174-0.173-0.384-0.26-0.631-0.26
		c-0.248,0-0.458,0.087-0.631,0.26C14.961,4.621,14.875,4.831,14.875,5.078z"/>
</g>
</svg>
