<?xml version="1.0" encoding="iso-8859-1"?>
<!-- Generator: Adobe Illustrator 19.0.0, SVG Export Plug-In . SVG Version: 6.00 Build 0)  -->
<svg version="1.1" xmlns="http://www.w3.org/2000/svg" xmlns:xlink="http://www.w3.org/1999/xlink" x="0px" y="0px"
	 viewBox="0 0 25 25" style="enable-background:new 0 0 25 25;" xml:space="preserve">
<g id="Layer_1">
</g>
<g id="icon-action-copy_x5F_children">
	<g>
		<g>
			<path style="fill:#26C281;" d="M17.513,4.762C17.113,4.362,16.635,4,16.078,4H10v0.034C10,3.478,9.787,2.999,9.388,2.6
				C8.988,2.2,8.498,2,7.94,2H5.034C4.478,2,3.999,2.2,3.6,2.6C3.2,2.999,3,3.477,3,4.034v8.719c0,0.557,0.2,1.141,0.6,1.541
				C3.999,14.694,4.477,15,5.034,15h0.333l-0.005-3.602c0-0.712,0.292-1.285,0.803-1.795c0.511-0.51,1.122-0.792,1.833-0.793
				l4.119,0.008c0.712,0,1.323,0.249,1.833,0.759s0.729,0.973,0.73,1.684l-0.049,0.06l3.37-0.01V6.36l0.056-0.082
				C18.056,5.721,17.912,5.162,17.513,4.762z"/>
		</g>
	</g>
	<path style="fill:#26C281;" d="M21.7,14.572v6.394c0,0.557-0.2,1.035-0.6,1.435C20.7,22.8,20.222,23,19.665,23H8.622
		c-0.557,0-1.035-0.2-1.435-0.6c-0.399-0.4-0.599-0.878-0.6-1.435v-8.719c0-0.557,0.2-1.035,0.6-1.435s0.878-0.599,1.435-0.6h2.906
		c0.557,0,1.035,0.2,1.435,0.6c0.399,0.4,0.599,0.878,0.6,1.435v0.29h6.103c0.557,0,1.035,0.2,1.435,0.6
		C21.5,13.536,21.699,14.015,21.7,14.572L21.7,14.572z"/>
</g>
</svg>
