<?xml version="1.0" encoding="iso-8859-1"?>
<!-- Generator: Adobe Illustrator 19.0.0, SVG Export Plug-In . SVG Version: 6.00 Build 0)  -->
<svg version="1.1" xmlns="http://www.w3.org/2000/svg" xmlns:xlink="http://www.w3.org/1999/xlink" x="0px" y="0px"
	 viewBox="0 0 25 25" style="enable-background:new 0 0 25 25;" xml:space="preserve">
<g id="Layer_1">
</g>
<g id="icon-action-article">
	<path style="fill:#E87E04;" d="M9.875,14.031c0,0,4.182-2.51,6.537-1.518c0.488-0.743,0.969-1.545,1.44-2.363
		c-2.304-0.564-5.352-0.056-5.352-0.056s3.901-2.34,6.289-1.608c0.479-0.864,0.945-1.715,1.394-2.508
		c-1.903-0.128-3.745,0.178-3.745,0.178s2.443-1.466,4.647-1.714C21.777,3.316,22.421,2.435,23,2C11.495,2,4.625,15.125,2,23h1.312
		l3.938-6.562c0,0,1.312,1.312,5.25,0c0.932-0.311,1.865-1.174,2.781-2.336C12.97,13.515,9.875,14.031,9.875,14.031z"/>
</g>
</svg>
