<?xml version="1.0" encoding="iso-8859-1"?>
<!-- Generator: Adobe Illustrator 19.0.0, SVG Export Plug-In . SVG Version: 6.00 Build 0)  -->
<svg version="1.1" xmlns="http://www.w3.org/2000/svg" xmlns:xlink="http://www.w3.org/1999/xlink" x="0px" y="0px"
	 viewBox="0 0 25 25" style="enable-background:new 0 0 25 25;" xml:space="preserve">
<g id="Layer_1">
</g>
<g id="icon-action-modules">
	<path style="fill:#26C281;" d="M2.369,7.281C2.163,7.283,1.998,7.452,2,7.657l0.018,1.607c0.002,0.204,0.169,0.369,0.373,0.369
		c0.001,0,0.003,0,0.004,0L2.95,9.66c0.145,0.625,0.4,1.228,0.762,1.782l-0.364,0.42c-0.144,0.147-0.141,0.383,0.006,0.527
		l1.149,1.124c0.072,0.071,0.167,0.106,0.261,0.106c0.097,0,0.194-0.037,0.267-0.112l0.412-0.373c0.532,0.331,1.108,0.565,1.701,0.7
		c0.043-0.074,0.096-0.144,0.159-0.206c0.186-0.186,0.431-0.29,0.692-0.296l0.247-0.015c0.002-0.006,0.004-0.013,0.006-0.019
		c0.079-0.276,0.173-0.546,0.283-0.809c-0.047,0.002-0.095,0.003-0.142,0.003c-0.424,0-0.848-0.065-1.256-0.196
		c-0.182-0.058-0.36-0.129-0.534-0.214c-0.388-0.188-0.752-0.441-1.077-0.759c-0.325-0.318-0.586-0.677-0.783-1.06
		c-0.02-0.038-0.038-0.076-0.057-0.115L7.676,9.48c0.216,0.141,0.464,0.212,0.712,0.212c0.018,0,0.036,0,0.054-0.001l0.384,0.376
		l1.261-1.263L9.691,8.414c0.005-0.28-0.079-0.561-0.253-0.797l0.596-2.987c0.049,0.021,0.097,0.043,0.145,0.067
		c0.388,0.188,0.752,0.441,1.077,0.759c0.325,0.318,0.586,0.677,0.783,1.06c0.088,0.172,0.163,0.349,0.226,0.529
		c0.169,0.487,0.243,1,0.222,1.51C12.741,8.45,13,8.361,13.264,8.286l0.005-0.081l0.01-0.166c0.005-0.262,0.109-0.507,0.294-0.693
		c0.098-0.098,0.254-0.228,0.254-0.228c-0.145-0.625-0.4-1.228-0.762-1.782l0.364-0.42c0.144-0.147,0.141-0.383-0.006-0.527
		l-1.149-1.124c-0.072-0.071-0.167-0.106-0.261-0.106c-0.097,0-0.194,0.037-0.267,0.112l-0.412,0.373
		c-0.562-0.349-1.171-0.59-1.799-0.721l-0.04-0.554C9.495,2.164,9.329,2,9.125,2C9.123,2,9.122,2,9.12,2L7.513,2.018
		C7.307,2.021,7.142,2.189,7.145,2.395L7.117,2.95c-0.625,0.145-1.228,0.4-1.782,0.762l-0.42-0.364
		C4.843,3.277,4.749,3.242,4.655,3.242c-0.097,0-0.194,0.037-0.267,0.112L3.265,4.503C3.121,4.651,3.124,4.887,3.271,5.03
		l0.373,0.412c-0.349,0.562-0.59,1.171-0.721,1.799L2.369,7.281z M7.669,7.303c-0.075,0.05-0.146,0.108-0.211,0.175
		c-0.076,0.078-0.14,0.163-0.193,0.252L4.839,8.242L4.287,8.359C4.29,7.945,4.355,7.531,4.483,7.132
		c0.058-0.182,0.129-0.36,0.214-0.534c0.188-0.388,0.441-0.752,0.759-1.077s0.677-0.586,1.06-0.783
		C6.687,4.65,6.864,4.575,7.044,4.512C7.429,4.379,7.83,4.305,8.233,4.289L8.129,4.844L7.669,7.303z M8.821,8.811
		C8.815,8.817,8.809,8.823,8.803,8.828C8.801,8.83,8.799,8.832,8.797,8.834C8.682,8.94,8.535,8.993,8.389,8.993
		c-0.152,0-0.305-0.057-0.422-0.172c-0.05-0.049-0.09-0.105-0.12-0.165c-0.11-0.223-0.074-0.501,0.11-0.689
		c0.118-0.121,0.275-0.182,0.432-0.182c0.068,0,0.136,0.011,0.202,0.034c0.08,0.028,0.156,0.074,0.221,0.137
		C9.05,8.19,9.054,8.573,8.821,8.811z"/>
	<path style="fill:#26C281;" d="M22.51,16.716c0.248,0,0.449-0.202,0.449-0.45l-0.002-1.939c0-0.248-0.201-0.449-0.45-0.449h0
		l-0.669-0.04c-0.173-0.779-0.48-1.507-0.897-2.159l0.444-0.502c0.175-0.176,0.175-0.46-0.001-0.636l-1.372-1.37
		c-0.088-0.088-0.203-0.131-0.318-0.131c-0.115,0-0.23,0.044-0.318,0.132l-0.501,0.445c-0.652-0.416-1.381-0.722-2.16-0.893
		l-0.041-0.669c0-0.248-0.201-0.449-0.45-0.449c0,0,0,0,0,0l-0.906,0.001l-0.279,0l-0.279,0l-0.474,0
		c-0.248,0-0.449,0.202-0.449,0.45l-0.04,0.669c-0.185,0.041-0.368,0.09-0.547,0.146c-0.289,0.09-0.569,0.199-0.84,0.326
		c-0.11,0.051-0.218,0.106-0.324,0.163c-0.12,0.064-0.238,0.132-0.354,0.203c-0.013,0.008-0.027,0.017-0.04,0.025
		c-0.018,0.011-0.036,0.022-0.054,0.034l-0.502-0.444c-0.088-0.088-0.203-0.131-0.318-0.131c-0.025,0-0.049,0.002-0.073,0.006
		c-0.09,0.015-0.176,0.056-0.245,0.126l-0.013,0.013l-1.261,1.263l-0.096,0.096c-0.036,0.036-0.064,0.076-0.085,0.119
		c-0.06,0.121-0.062,0.262-0.006,0.384c0.022,0.048,0.052,0.093,0.091,0.133l0.445,0.501c-0.011,0.017-0.021,0.034-0.031,0.05
		c-0.072,0.115-0.141,0.233-0.206,0.353c-0.058,0.106-0.112,0.214-0.164,0.323c-0.132,0.278-0.246,0.566-0.339,0.862
		c-0.059,0.187-0.11,0.378-0.153,0.572L8.015,13.89c-0.248,0-0.449,0.202-0.449,0.45l0,0.427l0,0.284l0,0.281l0.001,0.947
		c0,0.248,0.201,0.449,0.45,0.449c0,0,0,0,0,0l0.669,0.04c0.173,0.779,0.48,1.507,0.897,2.159l-0.444,0.502
		c-0.175,0.176-0.175,0.46,0.001,0.636l1.372,1.37c0.088,0.088,0.203,0.131,0.318,0.131c0.115,0,0.23-0.044,0.318-0.132l0.501-0.445
		c0.652,0.416,1.381,0.722,2.16,0.893l0.041,0.669c0,0.248,0.201,0.449,0.45,0.449h0l1.939-0.002c0.248,0,0.449-0.202,0.449-0.45
		l0.04-0.669c0.779-0.173,1.507-0.48,2.159-0.897l0.502,0.444c0.088,0.088,0.203,0.131,0.318,0.131c0.115,0,0.23-0.044,0.318-0.132
		l1.37-1.372c0.175-0.176,0.175-0.46-0.001-0.636l-0.445-0.501c0.416-0.652,0.722-1.381,0.893-2.16L22.51,16.716z M19.958,16.868
		c-0.074,0.221-0.163,0.435-0.265,0.641c-0.478,0.959-1.259,1.741-2.217,2.221c-0.206,0.103-0.42,0.192-0.641,0.266
		c-0.493,0.165-1.02,0.255-1.569,0.255c-0.001,0-0.003,0-0.004,0c-0.547,0-1.073-0.089-1.565-0.253
		c-0.049-0.016-0.097-0.033-0.146-0.051l2.017-3.103c0.328-0.065,0.618-0.231,0.838-0.466l3.146-0.003l0.54,0
		C20.057,16.543,20.012,16.708,19.958,16.868z M10.569,16.876c-0.165-0.493-0.255-1.02-0.255-1.569c0-0.388,0.044-0.765,0.128-1.128
		c0.026-0.112,0.056-0.222,0.089-0.331c0.011-0.037,0.023-0.074,0.035-0.111c0.027-0.082,0.057-0.164,0.089-0.244
		c0.053-0.135,0.112-0.268,0.177-0.397c0.137-0.274,0.298-0.533,0.48-0.775c0.111-0.147,0.23-0.287,0.356-0.421l0.052,0.078
		l0.326,0.488l0.519,0.776l0.159,0.237l0.159,0.237l0.842,1.258c-0.023,0.106-0.035,0.216-0.034,0.329
		c0,0.131,0.017,0.258,0.047,0.38l-1.658,2.488l-0.378,0.567c-0.347-0.359-0.64-0.771-0.866-1.222
		C10.733,17.311,10.643,17.097,10.569,16.876z M14.168,10.476c0.351-0.079,0.716-0.121,1.091-0.122c0.001,0,0.003,0,0.004,0
		c0.547,0,1.073,0.089,1.565,0.253c0.221,0.074,0.435,0.163,0.641,0.265c0.959,0.478,1.741,1.259,2.221,2.217
		c0.103,0.206,0.192,0.42,0.266,0.641c0.054,0.161,0.099,0.325,0.137,0.492l-0.54,0l-3.146,0.003
		c-0.232-0.246-0.542-0.417-0.89-0.473l-1.664-2.551l-0.177-0.271l-0.167-0.256c0.06-0.023,0.12-0.045,0.181-0.065
		c0.049-0.016,0.097-0.032,0.147-0.046C13.945,10.531,14.056,10.502,14.168,10.476z M15.263,14.575c0.402,0,0.728,0.326,0.728,0.728
		c0,0.01,0,0.02-0.001,0.03c0,0.003,0,0.007,0,0.01c-0.02,0.384-0.338,0.689-0.727,0.69c0,0,0,0-0.001,0
		c-0.085,0-0.166-0.015-0.242-0.041c-0.283-0.1-0.487-0.369-0.487-0.687c0-0.293,0.172-0.545,0.422-0.661
		C15.049,14.599,15.153,14.575,15.263,14.575C15.262,14.575,15.262,14.575,15.263,14.575L15.263,14.575z"/>
</g>
</svg>
