<?xml version="1.0" encoding="iso-8859-1"?>
<!-- Generator: Adobe Illustrator 19.0.0, SVG Export Plug-In . SVG Version: 6.00 Build 0)  -->
<svg version="1.1" xmlns="http://www.w3.org/2000/svg" xmlns:xlink="http://www.w3.org/1999/xlink" x="0px" y="0px"
	 viewBox="0 0 25 25" style="enable-background:new 0 0 25 25;" xml:space="preserve">
<g id="Layer_1">
</g>
<g id="icon-action-new_x5F_after">
	<path style="fill:#26C281;" d="M15.887,7.376h-4.928V2.448C10.959,2.201,10.759,2,10.511,2H7.823C7.576,2,7.376,2.201,7.376,2.448
		v4.928H2.448C2.201,7.376,2,7.576,2,7.823v2.688c0,0.247,0.201,0.448,0.448,0.448h4.928v4.928c0,0.247,0.201,0.448,0.448,0.448
		h2.688c0.247,0,0.448-0.201,0.448-0.448v-4.928h4.928c0.247,0,0.448-0.201,0.448-0.448V7.823
		C16.335,7.576,16.134,7.376,15.887,7.376L15.887,7.376z M15.887,7.376"/>
	<path style="fill:#26C281;" d="M18.366,22.876l4.48-4.48c0.267-0.267,0.078-0.725-0.3-0.725h-1.991
		c-0.234,0-0.425-0.19-0.425-0.425v-4.655c0-0.234-0.19-0.425-0.425-0.425h-3.279c-0.234,0-0.425,0.19-0.425,0.425v4.655
		c0,0.234-0.19,0.425-0.425,0.425h-1.991c-0.378,0-0.568,0.457-0.3,0.725l4.48,4.48C17.932,23.041,18.201,23.041,18.366,22.876z"/>
</g>
</svg>
