<svg xmlns="http://www.w3.org/2000/svg" viewBox="0 0 25 25"><path d="M10.31,21.55a5.65,5.65,0,0,1-1.84-1.29,6.26,6.26,0,0,1-1.23-2,6.73,6.73,0,0,1-.44-2.42,8.63,8.63,0,0,1,.21-2,10.21,10.21,0,0,1,.58-1.75,15.18,15.18,0,0,1,.82-1.61q.45-.78,1-1.58.39-.61.77-1.24t.72-1.32q.34-.69.65-1.43A12.74,12.74,0,0,0,12,3.35a.6.6,0,0,1,.18-.25.46.46,0,0,1,.58,0,.6.6,0,0,1,.18.25,12.74,12.74,0,0,0,.53,1.58q.31.74.66,1.43t.73,1.32l.75,1.24q.5.8,1,1.58a13.16,13.16,0,0,1,.82,1.61A10.76,10.76,0,0,1,18,13.86a8.63,8.63,0,0,1,.21,2,6.93,6.93,0,0,1-.43,2.43,5.91,5.91,0,0,1-1.22,2,5.65,5.65,0,0,1-1.84,1.29,5.54,5.54,0,0,1-4.4,0ZM11.41,7.35q-.61,1.07-1.22,2.07-.5.78-.94,1.52a13.91,13.91,0,0,0-.77,1.51A9.46,9.46,0,0,0,7.94,14a7.7,7.7,0,0,0-.19,1.77,5.85,5.85,0,0,0,.36,2.09,5,5,0,0,0,1,1.65,4.7,4.7,0,0,0,1.5,1.09,4.64,4.64,0,0,0,3.77,0,4.7,4.7,0,0,0,1.5-1.09,5,5,0,0,0,1-1.65,5.85,5.85,0,0,0,.36-2.09A7.7,7.7,0,0,0,17.06,14a9.46,9.46,0,0,0-.53-1.6,13.91,13.91,0,0,0-.77-1.51q-.44-.74-.92-1.52-.63-1-1.24-2.07A16.15,16.15,0,0,1,12.5,5,16.15,16.15,0,0,1,11.41,7.35Z" fill="#fff"/></svg>