<?xml version="1.0" encoding="iso-8859-1"?>
<!-- Generator: Adobe Illustrator 19.0.0, SVG Export Plug-In . SVG Version: 6.00 Build 0)  -->
<svg version="1.1" xmlns="http://www.w3.org/2000/svg" xmlns:xlink="http://www.w3.org/1999/xlink" x="0px" y="0px"
	 viewBox="0 0 25 25" style="enable-background:new 0 0 25 25;" xml:space="preserve">
<g id="Layer_1">
</g>
<g id="icon-nav-articles">
	<path style="fill:#FFFFFF;" d="M18.843,13.242l1.187-1.113v8.683c0,0.321-0.118,0.6-0.353,0.835
		c-0.235,0.235-0.514,0.353-0.835,0.353H5.187c-0.347,0-0.631-0.118-0.853-0.353C4.111,21.411,4,21.133,4,20.812V5.969
		c0-0.321,0.111-0.6,0.334-0.835c0.223-0.235,0.507-0.353,0.853-0.353h9.499l0.037,0.037l-1.225,1.15H5.187v14.843h13.655V13.242z
		 M22.999,5.635c0.024,0.643-0.272,1.287-0.891,1.93c-0.174,0.173-2.907,2.87-8.201,8.089c-0.05,0.05-0.111,0.087-0.186,0.111
		c-1.213,0.371-2.623,0.829-4.23,1.373c-0.05,0.025-0.111,0.037-0.186,0.037c-0.124,0-0.235-0.049-0.334-0.148
		c-0.148-0.148-0.186-0.321-0.111-0.519c0.668-2.202,1.088-3.636,1.262-4.304c0.024-0.099,0.074-0.186,0.148-0.26
		c2.622-2.622,4.613-4.607,5.974-5.956c1.36-1.348,2.078-2.072,2.152-2.171c0.568-0.544,1.212-0.816,1.93-0.816
		c0.618,0,1.199,0.26,1.744,0.779C22.689,4.349,22.999,4.967,22.999,5.635z M21.811,5.635c0-0.321-0.186-0.655-0.557-1.002
		c-0.322-0.297-0.631-0.445-0.928-0.445c-0.396,0-0.755,0.161-1.076,0.482c-0.198,0.198-2.87,2.87-8.015,8.015
		c-0.148,0.47-0.445,1.447-0.891,2.931c1.459-0.47,2.412-0.779,2.857-0.928l0.371-0.371c4.799-4.725,7.359-7.248,7.681-7.57
		C21.65,6.353,21.836,5.982,21.811,5.635z"/>
</g>
</svg>
