<?xml version="1.0" encoding="iso-8859-1"?>
<!-- Generator: Adobe Illustrator 19.0.0, SVG Export Plug-In . SVG Version: 6.00 Build 0)  -->
<svg version="1.1" xmlns="http://www.w3.org/2000/svg" xmlns:xlink="http://www.w3.org/1999/xlink" x="0px" y="0px"
	 viewBox="0 0 25 25" style="enable-background:new 0 0 25 25;" xml:space="preserve">
<g id="Layer_1">
</g>
<g id="icon-nav-undo">
	<path style="fill:#FFFFFF;" d="M21.381,20.492h-0.037c-0.297,0-0.458-0.173-0.483-0.52c-0.025-0.099-0.05-0.229-0.074-0.39
		c-0.025-0.161-0.111-0.433-0.26-0.817c-0.149-0.384-0.341-0.749-0.576-1.095c-0.235-0.346-0.588-0.724-1.058-1.133
		c-0.471-0.408-1.003-0.767-1.597-1.077c-0.594-0.309-1.362-0.563-2.302-0.761c-0.941-0.198-1.981-0.297-3.119-0.297v3.416
		c0,0.248-0.111,0.427-0.334,0.538s-0.434,0.081-0.631-0.093l-7.687-6.387C3.074,11.778,3,11.629,3,11.431
		c0-0.198,0.074-0.346,0.223-0.446l7.687-6.35c0.197-0.149,0.408-0.167,0.631-0.056s0.334,0.291,0.334,0.538V8.46
		c3.515,0.099,6.152,1.176,7.91,3.231c0.52,0.619,0.953,1.325,1.3,2.117c0.346,0.792,0.576,1.51,0.687,2.154
		c0.111,0.644,0.179,1.306,0.204,1.987c0.024,0.681,0.03,1.151,0.019,1.411c-0.013,0.26-0.031,0.477-0.056,0.65
		C21.889,20.331,21.703,20.492,21.381,20.492z M11.281,13.214h0.037c1.411,0,2.667,0.105,3.769,0.316
		c1.101,0.211,2.017,0.52,2.748,0.928c0.73,0.408,1.318,0.805,1.764,1.188c0.446,0.384,0.854,0.836,1.225,1.355
		c-0.248-1.807-0.904-3.317-1.968-4.53c-1.634-1.906-4.159-2.859-7.575-2.859c-0.149,0-0.285-0.056-0.408-0.167
		c-0.124-0.111-0.186-0.254-0.186-0.427V6.344l-6.164,5.087l6.164,5.125v-2.748c0-0.173,0.062-0.316,0.186-0.427
		C10.996,13.269,11.132,13.214,11.281,13.214z"/>
</g>
</svg>
