<svg xmlns="http://www.w3.org/2000/svg" viewBox="0 0 25 25"><path d="M20.57,6.8A1.43,1.43,0,0,1,22,8.23v8.55a1.36,1.36,0,0,1-.42,1,1.38,1.38,0,0,1-1,.42H19.14v2.38a1.38,1.38,0,0,1-.42,1,1.36,1.36,0,0,1-1,.42H7.27a1.36,1.36,0,0,1-1-.42,1.38,1.38,0,0,1-.42-1V18.2H4.43a1.38,1.38,0,0,1-1-.42,1.36,1.36,0,0,1-.42-1V8.23A1.43,1.43,0,0,1,4.43,6.8H5.86V4.43a1.38,1.38,0,0,1,.42-1,1.36,1.36,0,0,1,1-.42H17.73a1.36,1.36,0,0,1,1,.42,1.38,1.38,0,0,1,.42,1V6.8Zm.48,10V8.23a.48.48,0,0,0-.48-.48H4.43a.48.48,0,0,0-.48.48v8.55a.45.45,0,0,0,.14.32.47.47,0,0,0,.34.14H5.86V14.31H5.38a.48.48,0,1,1,0-1H19.63a.48.48,0,1,1,0,1h-.48v2.94h1.43a.47.47,0,0,0,.34-.14A.45.45,0,0,0,21.05,16.79ZM6.8,4.43V6.8H18.2V4.43a.47.47,0,0,0-.14-.34.45.45,0,0,0-.32-.14H7.27a.45.45,0,0,0-.32.14A.47.47,0,0,0,6.8,4.43ZM17.73,21.05a.45.45,0,0,0,.32-.14.47.47,0,0,0,.14-.34V14.31H6.8v6.26a.47.47,0,0,0,.14.34.45.45,0,0,0,.32.14Zm-1-4.75a.48.48,0,0,0,.48-.48.45.45,0,0,0-.14-.32.47.47,0,0,0-.34-.14H8.23a.47.47,0,0,0-.34.14.45.45,0,0,0-.14.32.48.48,0,0,0,.48.48Zm0,1.89a.47.47,0,0,0,.34-.14.45.45,0,0,0,.14-.32.48.48,0,0,0-.48-.48H8.23a.48.48,0,0,0-.48.48.45.45,0,0,0,.14.32.47.47,0,0,0,.34.14Zm0,1.91a.48.48,0,0,0,.48-.48.45.45,0,0,0-.14-.32.47.47,0,0,0-.34-.14H8.23a.47.47,0,0,0-.34.14.45.45,0,0,0-.14.32.48.48,0,0,0,.48.48ZM19,11a1,1,0,1,0-.71-.29A1,1,0,0,0,19,11Z" fill="#fff"/></svg>