<svg xmlns="http://www.w3.org/2000/svg" viewBox="0 0 25 25"><path d="M21.07,5.6a1.18,1.18,0,0,1,.28.54,1.71,1.71,0,0,1,0,.62L20.66,11a1.72,1.72,0,0,1-.58,1.05,1.9,1.9,0,0,1-1.11.52L8.45,13.5l.25,1.57a.68.68,0,0,0,.26.42.72.72,0,0,0,.46.18H20a.49.49,0,0,1,.36.15.52.52,0,0,1,.15.38.53.53,0,0,1-.52.52H9.42a1.74,1.74,0,0,1-1.14-.42,1.7,1.7,0,0,1-.61-1.06L5.89,4.65a.69.69,0,0,0-.25-.42.69.69,0,0,0-.45-.18H4.14a.53.53,0,0,1-.54-.54.49.49,0,0,1,.15-.36A.52.52,0,0,1,4.14,3H5.19a1.74,1.74,0,0,1,1.14.42,1.69,1.69,0,0,1,.61,1L7,5.1H20a1.38,1.38,0,0,1,.61.13A1.57,1.57,0,0,1,21.07,5.6Zm-.74,1a.37.37,0,0,0,0-.18.48.48,0,0,0-.06-.13.25.25,0,0,0-.12-.09.47.47,0,0,0-.17,0H7.21l1.05,6.29,10.62-.91a.78.78,0,0,0,.47-.24.83.83,0,0,0,.27-.46ZM11,22a2.11,2.11,0,0,0,2.1-2.1,2,2,0,0,0-.62-1.51A2,2,0,0,0,11,17.77,2.11,2.11,0,0,0,8.88,19.9a2,2,0,0,0,.62,1.49A2,2,0,0,0,11,22Zm0-3.16a1.05,1.05,0,0,1,0,2.1,1,1,0,0,1-.76-.31,1,1,0,0,1,0-1.49A1,1,0,0,1,11,18.84ZM18.39,22a2.11,2.11,0,0,0,2.1-2.1,2,2,0,0,0-.62-1.51,2.09,2.09,0,0,0-3,0,2,2,0,0,0-.62,1.51,2.11,2.11,0,0,0,2.1,2.1Zm0-3.16a1.06,1.06,0,1,1-.74.31A1,1,0,0,1,18.39,18.84Z" fill="#fff"/></svg>