<svg xmlns="http://www.w3.org/2000/svg" viewBox="0 0 25 25"><path d="M21.06,4.62A1.73,1.73,0,0,1,22,6V18c0,1.68-2.8,2.24-4,2.51a26.59,26.59,0,0,1-5.48.5A26.5,26.5,0,0,1,7,20.5C5.8,20.24,3,19.68,3,18V6C3,4.43,5.52,3.86,6.68,3.58A23.88,23.88,0,0,1,11.4,3a30.61,30.61,0,0,1,4.94.22,11,11,0,0,1,4.72,1.38C21.38,4.81,20.82,4.45,21.06,4.62Zm-14.8.1c-.48.13-2.36.6-2.24,1.36S5.76,7.15,6.26,7.29a26,26,0,0,0,12.46,0c.53-.15,2.12-.52,2.26-1.22s-1.81-1.23-2.26-1.36a24,24,0,0,0-12.46,0Zm12.46,6.56C19.16,11.16,21,10.71,21,10V7.43C18.64,8.93,15.2,9,12.49,9S6.36,8.92,4,7.43V10c0,.71,1.82,1.15,2.27,1.27a24,24,0,0,0,12.46,0C19.62,11,18.32,11.4,18.72,11.28Zm0,4C19.18,15.15,21,14.72,21,14V11.43C18.65,12.92,15.18,13,12.49,13S6.35,12.92,4,11.43V14c0,.73,1.8,1.16,2.27,1.29a24,24,0,0,0,12.46,0C19.62,15,18.32,15.4,18.72,15.28Zm0,4C19.18,19.16,21,18.72,21,18V15.44C18.65,16.92,15.18,17,12.49,17S6.35,16.92,4,15.44V18c0,.73,1.8,1.16,2.27,1.29a24,24,0,0,0,12.46,0C19.62,19,18.32,19.4,18.72,19.28Z" fill="#fff"/></svg>