<?xml version="1.0" encoding="iso-8859-1"?>
<!-- Generator: Adobe Illustrator 19.0.0, SVG Export Plug-In . SVG Version: 6.00 Build 0)  -->
<svg version="1.1" xmlns="http://www.w3.org/2000/svg" xmlns:xlink="http://www.w3.org/1999/xlink" x="0px" y="0px"
	 viewBox="0 0 25 25" style="enable-background:new 0 0 25 25;" xml:space="preserve">
<g id="Layer_1">
</g>
<g id="icon-action-visible">
	<path style="fill:#3598DC;" d="M2,12.5c0-0.266,0.078-0.535,0.234-0.809c1.094-1.789,2.564-3.226,4.412-4.312
		C8.494,6.293,10.445,5.75,12.5,5.75c2.055,0,4.006,0.543,5.854,1.629c1.848,1.086,3.318,2.523,4.412,4.312
		C22.922,11.965,23,12.234,23,12.5c0,0.266-0.078,0.535-0.234,0.809c-1.094,1.797-2.564,3.236-4.412,4.318S14.555,19.25,12.5,19.25
		s-4.006-0.543-5.854-1.629s-3.318-2.523-4.412-4.312C2.078,13.035,2,12.766,2,12.5z M3.5,12.5c1.039,1.602,2.342,2.877,3.908,3.826
		c1.566,0.949,3.264,1.424,5.092,1.424c1.828,0,3.526-0.474,5.092-1.424c1.566-0.95,2.869-2.225,3.908-3.826
		c-1.187-1.844-2.676-3.223-4.465-4.137c0.476,0.812,0.715,1.691,0.715,2.637c0,1.446-0.514,2.682-1.541,3.709
		s-2.264,1.541-3.709,1.541c-1.446,0-2.682-0.514-3.709-1.541S7.249,12.445,7.249,11c0-0.945,0.238-1.824,0.715-2.637
		C6.175,9.277,4.687,10.656,3.499,12.5L3.5,12.5z M8.937,11c0,0.156,0.055,0.289,0.164,0.398c0.109,0.109,0.242,0.164,0.398,0.164
		s0.289-0.055,0.398-0.164s0.164-0.242,0.164-0.398c0-0.672,0.238-1.246,0.715-1.723c0.476-0.476,1.051-0.715,1.723-0.715
		c0.156,0,0.289-0.055,0.398-0.164C13.007,8.289,13.062,8.156,13.062,8c0-0.156-0.055-0.289-0.164-0.398
		c-0.109-0.109-0.242-0.164-0.398-0.164c-0.976,0-1.814,0.35-2.513,1.049C9.287,9.186,8.937,10.023,8.937,11z"/>
</g>
</svg>
