<svg version="1.1" xmlns="http://www.w3.org/2000/svg" xmlns:xlink="http://www.w3.org/1999/xlink" x="0px" y="0px"
	 viewBox="0 0 25 25" enable-background="new 0 0 25 25" xml:space="preserve">
	<path fill="#FFFFFF" d="M5.3,6.4c0.1,0.1,0.2,0.3,0.2,0.5v1.3c0,0.2-0.1,0.3-0.2,0.5C5.2,8.7,5.1,8.7,4.9,8.7H3.6
		c-0.2,0-0.3-0.1-0.5-0.2C3.1,8.4,3,8.3,3,8.1V6.9c0-0.2,0.1-0.3,0.2-0.5s0.3-0.2,0.5-0.2h1.3C5.1,6.2,5.2,6.3,5.3,6.4z M5.3,11.4
		c0.1,0.1,0.2,0.3,0.2,0.5v1.3c0,0.2-0.1,0.3-0.2,0.5c-0.1,0.1-0.3,0.2-0.5,0.2H3.6c-0.2,0-0.3-0.1-0.5-0.2S3,13.3,3,13.1v-1.3
		c0-0.2,0.1-0.3,0.2-0.5s0.3-0.2,0.5-0.2h1.3C5.1,11.2,5.2,11.3,5.3,11.4z M5.3,16.4c0.1,0.1,0.2,0.3,0.2,0.5v1.3
		c0,0.2-0.1,0.3-0.2,0.5c-0.1,0.1-0.3,0.2-0.5,0.2H3.6c-0.2,0-0.3-0.1-0.5-0.2C3.1,18.5,3,18.3,3,18.1v-1.3c0-0.2,0.1-0.3,0.2-0.5
		c0.1-0.1,0.3-0.2,0.5-0.2h1.3C5.1,16.3,5.2,16.3,5.3,16.4z M8.8,7.9C8.7,7.8,8.6,7.7,8.6,7.5c0-0.2,0.1-0.3,0.2-0.5
		s0.3-0.2,0.5-0.2h12.1c0.2,0,0.3,0.1,0.5,0.2S22,7.3,22,7.5c0,0.2-0.1,0.3-0.2,0.5c-0.1,0.1-0.3,0.2-0.5,0.2H9.3
		C9.1,8.1,8.9,8.1,8.8,7.9z M21.8,12c0.1,0.1,0.2,0.3,0.2,0.5c0,0.2-0.1,0.3-0.2,0.5c-0.1,0.1-0.3,0.2-0.5,0.2H9.3
		c-0.2,0-0.3-0.1-0.5-0.2c-0.1-0.1-0.2-0.3-0.2-0.5c0-0.2,0.1-0.3,0.2-0.5c0.1-0.1,0.3-0.2,0.5-0.2h12.1
		C21.6,11.9,21.7,11.9,21.8,12z M21.8,17.1c0.1,0.1,0.2,0.3,0.2,0.5c0,0.2-0.1,0.3-0.2,0.5s-0.3,0.2-0.5,0.2H9.3
		c-0.2,0-0.3-0.1-0.5-0.2s-0.2-0.3-0.2-0.5c0-0.2,0.1-0.3,0.2-0.5c0.1-0.1,0.3-0.2,0.5-0.2h12.1C21.6,16.9,21.7,16.9,21.8,17.1z"/>
</svg>
