<svg xmlns="http://www.w3.org/2000/svg" viewBox="0 0 25 25"><path d="M19.8,17.87a.53.53,0,0,1-.29,1H15A2.66,2.66,0,0,1,12.49,22,2.63,2.63,0,0,1,10,18.82H5.5a.53.53,0,0,1-.29-1A4.85,4.85,0,0,0,7,14.06V10.88a5.87,5.87,0,0,1,4-5.6V4.54a1.5,1.5,0,1,1,3,0v.74a5.88,5.88,0,0,1,4,5.6v3.18a4.85,4.85,0,0,0,1.8,3.8Zm-13.05-.1H18.26a5.53,5.53,0,0,1-.66-1.05A6.2,6.2,0,0,1,17,14.06V10.88a4.69,4.69,0,0,0-4.38-4.75A4.67,4.67,0,0,0,8,10.88v3.18a5.88,5.88,0,0,1-.61,2.65A7,7,0,0,1,6.75,17.76ZM14,19.35a1.92,1.92,0,0,0-.08-.54H11.08C10.45,21.18,14,21.72,14,19.35ZM12,4.54V5.1a3.09,3.09,0,0,1,1,0V4.54A.5.5,0,1,0,12,4.54Z" fill="#fff"/></svg>