<?xml version="1.0" encoding="iso-8859-1"?>
<!-- Generator: Adobe Illustrator 19.0.0, SVG Export Plug-In . SVG Version: 6.00 Build 0)  -->
<svg version="1.1" xmlns="http://www.w3.org/2000/svg" xmlns:xlink="http://www.w3.org/1999/xlink" x="0px" y="0px"
	 viewBox="0 0 25 25" style="enable-background:new 0 0 25 25;" xml:space="preserve">
<g id="Layer_1">
</g>
<g id="icon-nav-template">
	<path style="fill:#FFFFFF;" d="M12.5,22c-0.396,0-0.73-0.137-1.002-0.408l-8.09-8.09C3.136,13.23,3,12.896,3,12.5
		c0-0.396,0.136-0.73,0.408-1.002l2.969-2.969c0.197-0.198,0.427-0.229,0.687-0.093c0.26,0.136,0.364,0.34,0.315,0.612
		C7.354,9.222,7.342,9.371,7.342,9.494c0,0.644,0.229,1.2,0.687,1.67c0.457,0.47,1.008,0.705,1.651,0.705
		c0.643,0,1.181-0.235,1.614-0.705c0.433-0.47,0.649-1.033,0.649-1.688c0-0.655-0.217-1.212-0.649-1.67
		C10.86,7.348,10.322,7.119,9.68,7.119c-0.124,0-0.26,0.013-0.408,0.037c-0.297,0.05-0.514-0.049-0.649-0.297
		c-0.137-0.247-0.093-0.482,0.13-0.705l2.746-2.746C11.77,3.136,12.104,3,12.5,3c0.396,0,0.73,0.136,1.002,0.408l2.004,2.004
		c0.223-0.668,0.618-1.212,1.188-1.633c0.568-0.42,1.212-0.631,1.93-0.631c0.915,0,1.688,0.322,2.319,0.965
		c0.631,0.644,0.946,1.41,0.946,2.301c0,0.718-0.211,1.361-0.631,1.93c-0.421,0.569-0.965,0.965-1.633,1.188l1.967,1.967
		C21.863,11.77,22,12.104,22,12.5c0,0.396-0.137,0.73-0.408,1.002l-8.09,8.09C13.23,21.863,12.896,22,12.5,22z M6.229,10.348
		l-2.004,2.004c-0.1,0.099-0.087,0.198,0.037,0.297l8.09,8.09c0.099,0.124,0.197,0.124,0.297,0l8.09-8.09
		c0.123-0.099,0.123-0.198,0-0.297l-2.82-2.857c-0.223-0.198-0.272-0.427-0.148-0.687c0.123-0.26,0.334-0.377,0.631-0.353
		l0.074,0.037c0.074,0,0.123,0,0.148,0c0.568,0,1.058-0.204,1.466-0.612s0.612-0.897,0.612-1.466c0-0.569-0.204-1.058-0.612-1.466
		s-0.897-0.612-1.466-0.612c-0.569,0-1.058,0.204-1.466,0.612s-0.612,0.897-0.612,1.466c0,0.025,0.012,0.074,0.037,0.148v0.111
		c0.024,0.272-0.087,0.47-0.334,0.594C16,7.392,15.777,7.354,15.58,7.156l-2.932-2.932c-0.1-0.099-0.198-0.099-0.297,0l-1.818,1.818
		c0.767,0.198,1.392,0.612,1.874,1.243s0.724,1.367,0.724,2.208c0,0.99-0.334,1.831-1.002,2.523
		c-0.668,0.693-1.484,1.039-2.449,1.039c-0.816,0-1.547-0.26-2.189-0.779C6.847,11.758,6.426,11.115,6.229,10.348z"/>
</g>
</svg>
