<?xml version="1.0" encoding="iso-8859-1"?>
<!-- Generator: Adobe Illustrator 19.0.0, SVG Export Plug-In . SVG Version: 6.00 Build 0)  -->
<svg version="1.1" xmlns="http://www.w3.org/2000/svg" xmlns:xlink="http://www.w3.org/1999/xlink" x="0px" y="0px"
	 viewBox="0 0 25 25" style="enable-background:new 0 0 25 25;" xml:space="preserve">
<g id="Layer_1">
</g>
<g id="icon-action-copy">
	<path style="display:none;fill:#26C281;" d="M10.531,4.625l5.25,5.25v11.812c0,0.355-0.131,0.663-0.39,0.923
		c-0.26,0.26-0.568,0.39-0.923,0.39H3.312c-0.356,0-0.664-0.13-0.923-0.39C2.13,22.35,2,22.043,2,21.688V5.938
		c0-0.355,0.13-0.663,0.39-0.923c0.259-0.26,0.567-0.39,0.923-0.39H10.531z M14.469,11.188h-5.25v-5.25H3.312v15.75h11.156V11.188z
		 M23,7.25v11.812c0,0.356-0.131,0.663-0.39,0.923c-0.26,0.26-0.568,0.39-0.923,0.39h-4.594v-1.312h4.594v-10.5h-5.25v-5.25H9.219
		c0-0.355,0.13-0.663,0.39-0.923C9.868,2.13,10.175,2,10.531,2h7.219L23,7.25z M13.936,9.875l-3.404-3.404v3.404H13.936z
		 M21.154,7.25L17.75,3.846V7.25H21.154z"/>
	<g>
		<path style="fill:#26C281;" d="M6.025,6.55h7.3V7.6h1.796l0.004-1.4l-4.2-1.4l1.05-2.8h-7.7v14.7h4.2v-3.5h-2.45v-1.05h2.45V10.4
			h-2.45V9.35h2.45V7.6h-2.45V6.55z M5.944,6.605"/>
		<path style="fill:#26C281;" d="M13.025,2l-0.7,2.1l3.15,1.05L13.025,2z"/>
		<path style="fill:#26C281;" d="M17.225,8.65h-7.7V23h10.897l-0.047-10.15l-4.2-1.4L17.225,8.65z M18.627,19.85h-7.352V18.8h7.35
			L18.627,19.85z M18.627,17.05h-7.352V16h7.35L18.627,17.05z M18.625,13.2v1.05h-7.35V13.2H18.625z M18.627,12.696"/>
		<path style="fill:#26C281;" d="M18.275,8.65l-0.7,2.1l3.15,1.05L18.275,8.65z"/>
	</g>
</g>
</svg>
