<svg xmlns="http://www.w3.org/2000/svg" viewBox="0 0 25 25"><path d="M4.17,12.82A.48.48,0,0,1,4,12.47a.5.5,0,0,0-.15-.37A.48.48,0,0,0,3.52,12,.51.51,0,0,1,3,11.43a.48.48,0,0,1,.15-.35.5.5,0,0,1,.37-.15.48.48,0,0,0,.35-.15A.5.5,0,0,0,4,10.41a.48.48,0,0,1,.15-.35.5.5,0,0,1,.37-.15.51.51,0,0,1,.5.5.51.51,0,0,0,.52.52.5.5,0,0,1,.37.15.48.48,0,0,1,.15.35.51.51,0,0,1-.52.52.51.51,0,0,0-.52.52.51.51,0,0,1-.5.5A.5.5,0,0,1,4.17,12.82ZM6.22,7.71a.48.48,0,0,1-.15-.35A1.53,1.53,0,0,0,4.54,5.82.51.51,0,0,1,4,5.31.48.48,0,0,1,4.17,5a.5.5,0,0,1,.37-.15A1.53,1.53,0,0,0,6.07,3.27a.5.5,0,0,1,.15-.37.48.48,0,0,1,.35-.15.51.51,0,0,1,.52.52A1.53,1.53,0,0,0,8.63,4.81a.51.51,0,0,1,.5.5A.5.5,0,0,1,9,5.67a.48.48,0,0,1-.35.15A1.53,1.53,0,0,0,7.09,7.36a.48.48,0,0,1-.15.35.5.5,0,0,1-.37.15A.48.48,0,0,1,6.22,7.71Zm0,10.22a.48.48,0,0,1-.15-.35A1.53,1.53,0,0,0,4.54,16,.51.51,0,0,1,4,15.52a.48.48,0,0,1,.15-.35A.5.5,0,0,1,4.54,15a1.53,1.53,0,0,0,1.54-1.54.5.5,0,0,1,.15-.37A.48.48,0,0,1,6.57,13a.51.51,0,0,1,.52.52A1.53,1.53,0,0,0,8.63,15a.51.51,0,0,1,.5.5.5.5,0,0,1-.15.37.48.48,0,0,1-.35.15,1.53,1.53,0,0,0-1.54,1.54.48.48,0,0,1-.15.35.5.5,0,0,1-.37.15A.48.48,0,0,1,6.22,17.93ZM6.34,5.55a2.14,2.14,0,0,1,.23.27l.25-.27.27-.25a2.14,2.14,0,0,1-.27-.23l-.25-.27a2.22,2.22,0,0,1-.5.5Zm0,10.22a2.14,2.14,0,0,1,.23.27l.25-.27.27-.25a2.14,2.14,0,0,1-.27-.23L6.57,15a2.22,2.22,0,0,1-.5.5Zm4.38-7.55a1.45,1.45,0,0,0-.5-.33,1.57,1.57,0,0,0-.58-.11,1.62,1.62,0,0,0-.6.11,1.45,1.45,0,0,0-.5.33L8,8.82a1.58,1.58,0,0,0-.34.5,1.5,1.5,0,0,0-.12.6,1.45,1.45,0,0,0,.12.58A1.58,1.58,0,0,0,8,11l10.8,10.82a1.45,1.45,0,0,0,.5.33,1.62,1.62,0,0,0,.6.11,1.57,1.57,0,0,0,.58-.11,1.45,1.45,0,0,0,.5-.33l.6-.6a1.58,1.58,0,0,0,.34-.5,1.45,1.45,0,0,0,.12-.58,1.5,1.5,0,0,0-.12-.6,1.58,1.58,0,0,0-.34-.5ZM9.29,9a.36.36,0,0,1,.16-.12.53.53,0,0,1,.2,0,.46.46,0,0,1,.19,0A.57.57,0,0,1,10,9l1.48,1.46-1.34,1.32L8.69,10.27a.51.51,0,0,1,0-.74ZM20.22,21.09l-.17.1a.46.46,0,0,1-.19,0,.53.53,0,0,1-.2,0,.47.47,0,0,1-.16-.1l-8.62-8.62,1.32-1.34,8.62,8.62a.56.56,0,0,1,0,.74ZM14.39,9.77a.5.5,0,0,1-.15-.37,2.56,2.56,0,0,0-2.55-2.55.48.48,0,0,1-.35-.15.5.5,0,0,1-.15-.37.51.51,0,0,1,.5-.5,2.46,2.46,0,0,0,1.81-.75,2.46,2.46,0,0,0,.75-1.81.51.51,0,0,1,.52-.52.48.48,0,0,1,.35.15.5.5,0,0,1,.15.37A2.46,2.46,0,0,0,16,5.08a2.46,2.46,0,0,0,1.81.75.5.5,0,0,1,.37.15.48.48,0,0,1,.15.35.51.51,0,0,1-.52.52A2.56,2.56,0,0,0,15.25,9.4a.5.5,0,0,1-.15.37.48.48,0,0,1-.35.15A.5.5,0,0,1,14.39,9.77Zm-.18-2.89a4,4,0,0,1,.55.69,3.33,3.33,0,0,1,.53-.69A4,4,0,0,1,16,6.32a3.34,3.34,0,0,1-1.22-1.22,4,4,0,0,1-.55.69,3.33,3.33,0,0,1-.69.53A4,4,0,0,1,14.21,6.87Z" fill="#fff"/></svg>