<svg xmlns="http://www.w3.org/2000/svg" viewBox="0 0 25 25"><path d="M5.79,22A2.79,2.79,0,0,1,3,19.2V5.8a2.69,2.69,0,0,1,.82-2,2.69,2.69,0,0,1,2-.82H19.21a2.69,2.69,0,0,1,2,.82,2.69,2.69,0,0,1,.82,2V19.2A2.79,2.79,0,0,1,19.21,22ZM4.6,4.61A1.62,1.62,0,0,0,4.11,5.8V19.2a1.68,1.68,0,0,0,1.68,1.68H19.21a1.59,1.59,0,0,0,1.17-.49,1.62,1.62,0,0,0,.49-1.19V5.8a1.62,1.62,0,0,0-.49-1.19,1.59,1.59,0,0,0-1.17-.49H5.79A1.62,1.62,0,0,0,4.6,4.61ZM7.44,9.06a1.5,1.5,0,0,1,0-2.12A1.46,1.46,0,0,1,8.51,6.5,1.5,1.5,0,0,1,10,8,1.5,1.5,0,0,1,8.51,9.5,1.46,1.46,0,0,1,7.44,9.06Zm0,4.5a1.5,1.5,0,0,1,0-2.12A1.46,1.46,0,0,1,8.51,11a1.5,1.5,0,0,1,1,2.56,1.44,1.44,0,0,1-1,.44A1.46,1.46,0,0,1,7.44,13.56Zm0,4.5A1.43,1.43,0,0,1,7,17,1.51,1.51,0,0,1,8.51,15.5a1.43,1.43,0,0,1,1,.44A1.46,1.46,0,0,1,10,17,1.51,1.51,0,0,1,8.51,18.5,1.46,1.46,0,0,1,7.44,18.06Zm8-9a1.5,1.5,0,1,1,1.06.44A1.45,1.45,0,0,1,15.44,9.06Zm0,4.5A1.5,1.5,0,1,1,16.5,14,1.45,1.45,0,0,1,15.44,13.56Zm0,4.5A1.44,1.44,0,0,1,15,17a1.46,1.46,0,0,1,.44-1.07,1.5,1.5,0,0,1,2.12,0A1.46,1.46,0,0,1,18,17a1.5,1.5,0,0,1-2.56,1Z" fill="#fff"/></svg>