<svg xmlns="http://www.w3.org/2000/svg" viewBox="0 0 25 25"><path d="M18.21,11.14a3.19,3.19,0,0,1-1.52-.68c-.45-.41-.29-1.54-.8-1.76a9.25,9.25,0,0,0-6.76,0c-.41.18-.35,1-.53,1.39A2.1,2.1,0,0,1,7.25,11c-.9.29-2.79.79-3.58,0a2.19,2.19,0,0,1,0-3.1C6.41,5.15,11,4.57,14.64,5A12.75,12.75,0,0,1,20,6.88c1.4.91,2.87,2.56,1.34,4.13C20.64,11.73,19,11.33,18.21,11.14Zm-3.67-3.8a4.52,4.52,0,0,1,2,.68c.56.47.31,1.3.78,1.77.79.79,2.36.56,3.33.56,1.28-1.4-1.13-2.71-2.16-3.21a13.2,13.2,0,0,0-4.81-1.22c-3.15-.24-7.07.31-9.38,2.68a1.19,1.19,0,0,0,0,1.72c.5.5,2.83-.1,3.31-.52s.22-1.1.54-1.55a2.78,2.78,0,0,1,1.64-.77A11.81,11.81,0,0,1,14.54,7.33ZM6.28,20.09A2.3,2.3,0,0,1,4,17.68,7.28,7.28,0,0,1,5.21,14.1c3-4.84,11.57-4.84,14.57,0A7.28,7.28,0,0,1,21,17.68a2.3,2.3,0,0,1-2.28,2.41Zm4.14-8.42A6.66,6.66,0,0,0,6,14.58,8.86,8.86,0,0,0,5,17.72a1.34,1.34,0,0,0,1.33,1.42H18.72A1.34,1.34,0,0,0,20,17.72,8.86,8.86,0,0,0,19,14.58C17.15,11.76,13.54,11,10.42,11.68Zm0,5.65c-2.63-2.63,1.45-6.68,4.07-4.05S13.08,20,10.46,17.33Zm.69-3.38c-1.74,1.74.94,4.46,2.69,2.71S12.9,12.2,11.15,13.95Z" fill="#fff"/></svg>