<?xml version="1.0" encoding="iso-8859-1"?>
<!-- Generator: Adobe Illustrator 19.0.0, SVG Export Plug-In . SVG Version: 6.00 Build 0)  -->
<svg version="1.1" xmlns="http://www.w3.org/2000/svg" xmlns:xlink="http://www.w3.org/1999/xlink" x="0px" y="0px"
	 viewBox="0 0 25 25" style="enable-background:new 0 0 25 25;" xml:space="preserve">
<g id="Layer_1">
</g>
<g id="gear">
	<g>
		<path fill="#a4aebb" d="M11.134,24.1c-0.7,0-1.281-0.524-1.35-1.221L9.537,21.4c-0.42-0.14-0.834-0.312-1.235-0.512l-1.257,0.897
			c-0.209,0.174-0.515,0.28-0.823,0.28c-0.362,0-0.703-0.142-0.959-0.398l-1.931-1.932c-0.495-0.494-0.534-1.276-0.091-1.818
			l0.871-1.22C3.912,16.3,3.74,15.886,3.6,15.463l-1.523-0.254C1.426,15.148,0.9,14.557,0.9,13.865v-2.731
			c0-0.7,0.524-1.281,1.221-1.35L3.6,9.536C3.74,9.115,3.912,8.701,4.111,8.302L3.214,7.045C2.797,6.541,2.843,5.75,3.332,5.263
			l1.932-1.932c0.248-0.247,0.599-0.389,0.963-0.389c0.316,0,0.62,0.105,0.854,0.297l1.222,0.872C8.7,3.912,9.113,3.741,9.537,3.6
			L9.79,2.077C9.853,1.426,10.445,0.9,11.134,0.9h2.732c0.698,0,1.278,0.524,1.351,1.219l0.247,1.48
			c0.424,0.142,0.838,0.313,1.233,0.512l1.258-0.897c0.207-0.173,0.513-0.279,0.822-0.279c0.363,0,0.704,0.141,0.959,0.397
			l1.932,1.932c0.495,0.493,0.534,1.274,0.092,1.816l-0.871,1.222c0.199,0.396,0.37,0.811,0.512,1.234l1.523,0.254
			c0.65,0.063,1.176,0.655,1.176,1.344v2.731c0,0.701-0.525,1.281-1.222,1.35L21.4,15.462c-0.141,0.424-0.312,0.838-0.512,1.235
			l0.897,1.256c0.417,0.506,0.37,1.297-0.119,1.784l-1.931,1.93c-0.246,0.247-0.598,0.39-0.963,0.39
			c-0.317,0-0.621-0.106-0.855-0.298l-1.221-0.871c-0.399,0.201-0.813,0.373-1.233,0.513l-0.255,1.523
			c-0.063,0.65-0.654,1.176-1.344,1.176H11.134z M8.25,19.425c0.116,0,0.229,0.029,0.33,0.086c0.545,0.307,1.13,0.549,1.736,0.721
			c0.249,0.07,0.438,0.281,0.48,0.537l0.321,1.934l2.747,0.051l0.338-1.983c0.042-0.256,0.23-0.468,0.481-0.538
			c0.601-0.17,1.185-0.412,1.735-0.721c0.101-0.057,0.215-0.086,0.329-0.086c0.142,0,0.278,0.044,0.393,0.127l1.595,1.139
			l1.979-1.906l-1.165-1.643c-0.151-0.212-0.167-0.495-0.038-0.722c0.306-0.546,0.548-1.13,0.718-1.734
			c0.073-0.254,0.278-0.438,0.537-0.482l1.935-0.322l0.052-2.746l-1.984-0.338c-0.257-0.043-0.468-0.232-0.538-0.482
			c-0.172-0.606-0.414-1.19-0.72-1.734C19.384,8.353,19.399,8.07,19.55,7.86l1.141-1.596l-1.906-1.979l-1.643,1.166
			c-0.115,0.082-0.251,0.125-0.392,0.125c-0.115,0-0.229-0.03-0.33-0.086c-0.547-0.307-1.131-0.549-1.735-0.721
			c-0.249-0.069-0.438-0.281-0.48-0.538l-0.322-1.933l-2.748-0.053l-0.337,1.984c-0.042,0.256-0.231,0.467-0.481,0.537
			C9.708,4.94,9.124,5.183,8.581,5.488c-0.102,0.057-0.215,0.086-0.33,0.086c-0.142,0-0.277-0.043-0.392-0.126L6.263,4.309
			L4.284,6.215L5.45,7.858C5.601,8.07,5.616,8.353,5.489,8.58c-0.307,0.546-0.549,1.13-0.721,1.736
			c-0.07,0.249-0.281,0.438-0.537,0.48l-1.934,0.322l-0.052,2.748l1.984,0.337c0.256,0.042,0.467,0.231,0.538,0.481
			c0.169,0.601,0.412,1.185,0.72,1.736c0.127,0.226,0.111,0.509-0.04,0.721L4.31,18.736l1.905,1.979l1.643-1.165
			C7.975,19.468,8.11,19.425,8.25,19.425z M12.5,17.27c-2.631,0-4.771-2.14-4.771-4.77c0-2.631,2.14-4.771,4.771-4.771
			c2.63,0,4.771,2.14,4.771,4.771C17.271,15.13,15.13,17.27,12.5,17.27z M12.5,9.075c-1.888,0-3.425,1.536-3.425,3.424
			s1.537,3.424,3.425,3.424s3.424-1.536,3.424-3.424C15.924,10.611,14.388,9.075,12.5,9.075z"/>
	</g>
</g>
</svg>
