<?xml version="1.0" encoding="iso-8859-1"?>
<!-- Generator: Adobe Illustrator 19.0.0, SVG Export Plug-In . SVG Version: 6.00 Build 0)  -->
<svg version="1.1" xmlns="http://www.w3.org/2000/svg" xmlns:xlink="http://www.w3.org/1999/xlink" x="0px" y="0px"
	 viewBox="0 0 25 25" style="enable-background:new 0 0 25 25;" xml:space="preserve">
<g id="Layer_1">
</g>
<g id="icon-action-set_x5F_user">
	<path style="fill:#2AB4C0;" d="M22.877,17.605l-4.442-4.442c-0.265-0.265-0.719-0.077-0.719,0.298v1.974
		c0,0.233-0.188,0.421-0.421,0.421h-4.616c-0.233,0-0.421,0.188-0.421,0.421v3.252c0,0.233,0.188,0.421,0.421,0.421h4.616
		c0.233,0,0.421,0.188,0.421,0.421v1.974c0,0.375,0.453,0.563,0.719,0.298l4.442-4.442C23.041,18.036,23.041,17.769,22.877,17.605z"
		/>
	<path style="fill:#2AB4C0;" d="M10.767,19.056l0.035-4.319c0,0,5.017,0.016,4.908-0.024c-2.256-0.822-2.997-1.519-2.997-3.004
		c0-0.892,0.679-0.602,0.981-2.234c0.126-0.677,0.729-0.012,0.845-1.558c0-0.616-0.335-0.77-0.335-0.77s0.168-0.912,0.234-1.614
		C14.52,4.659,13.932,2.4,10.801,2.4S7.082,4.659,7.165,5.533c0.066,0.702,0.235,1.614,0.235,1.614S7.067,7.3,7.067,7.916
		c0.116,1.546,0.725,0.88,0.85,1.557c0.303,1.632,0.991,1.341,0.991,2.233c0,1.485-0.82,2.178-3.076,3.001
		C3.569,15.532,2,16.372,2,16.946c0,0.573,0,2.096,0,2.096S10.767,19.057,10.767,19.056z"/>
</g>
</svg>
