<?xml version="1.0" encoding="iso-8859-1"?>
<!-- Generator: Adobe Illustrator 19.0.0, SVG Export Plug-In . SVG Version: 6.00 Build 0)  -->
<svg version="1.1" xmlns="http://www.w3.org/2000/svg" xmlns:xlink="http://www.w3.org/1999/xlink" x="0px" y="0px"
	 viewBox="0 0 25 25" style="enable-background:new 0 0 25 25;" xml:space="preserve">
<g id="Layer_1">
</g>
<g id="icon-nav-labels">
	<path style="fill:#FFFFFF;" d="M21.592,12.277l-9.389,9.389C11.98,21.889,11.702,22,11.368,22s-0.612-0.111-0.835-0.334
		l-7.199-7.199C3.111,14.244,3,13.966,3,13.632s0.111-0.612,0.334-0.835l9.389-9.389C12.994,3.136,13.465,3,14.133,3h0.26h6.16
		c0.396,0,0.735,0.143,1.021,0.427C21.857,3.711,22,4.052,22,4.447v6.271C22,11.486,21.863,12.005,21.592,12.277z M20.812,10.719
		V4.447c0-0.173-0.087-0.26-0.26-0.26h-6.16h-0.26c-0.322,0-0.508,0.025-0.557,0.074l-9.389,9.352l7.162,7.199l9.426-9.389
		C20.8,11.35,20.812,11.115,20.812,10.719z M19.625,7.75c0,0.668-0.229,1.231-0.687,1.688c-0.458,0.458-1.015,0.687-1.67,0.687
		c-0.656,0-1.219-0.229-1.688-0.687c-0.471-0.458-0.705-1.021-0.705-1.688s0.234-1.231,0.705-1.688
		c0.47-0.458,1.032-0.687,1.688-0.687c0.655,0,1.212,0.229,1.67,0.687C19.396,6.519,19.625,7.082,19.625,7.75z M18.438,7.75
		c0-0.321-0.118-0.6-0.353-0.835C17.85,6.68,17.571,6.562,17.25,6.562c-0.322,0-0.6,0.118-0.835,0.353
		C16.18,7.15,16.062,7.429,16.062,7.75c0,0.322,0.117,0.6,0.353,0.835c0.234,0.235,0.513,0.353,0.835,0.353
		c0.321,0,0.6-0.117,0.835-0.353C18.319,8.35,18.438,8.072,18.438,7.75z"/>
</g>
</svg>
