<svg xmlns="http://www.w3.org/2000/svg" viewBox="0 0 25 25"><path d="M19.23,5.76A9.51,9.51,0,0,1,11.56,22,9.51,9.51,0,0,1,7.23,4.57,9.6,9.6,0,0,1,19.23,5.76ZM3.94,12.41a9.26,9.26,0,0,0,.48,2.94,4.13,4.13,0,0,0,.08-1.27,2,2,0,0,1,.44-1l.22-.33a2.29,2.29,0,0,0-.89-.28l-.33-.07S4,12.43,3.94,12.41Zm8.56,8.64A8.66,8.66,0,0,0,20.57,9.59v0a.94.94,0,0,1-.33.82,7.37,7.37,0,0,1-.76.72c-.24.2-.59.44-.7.74a3.39,3.39,0,0,0,0,1.15,3.3,3.3,0,0,1-.92,2.48,1.87,1.87,0,0,0-.3.63A3.22,3.22,0,0,1,16.23,18c-.6.35-1.75.64-2.18-.1-.67-.93-.53-2.57-.63-3.66s-.13-3-1.25-3.38c-.93-.31-2,.31-2.84-.33a3.26,3.26,0,0,1-.85-3.24,4.3,4.3,0,0,1,2.14-2.7,3.24,3.24,0,0,1,3.47,0c.83.42,1.73,0,2.56.39A8.62,8.62,0,0,0,4,11.47l.56.11c.48.11,1.27.25,1.49.76s-.08.91-.33,1.3c-.08.11-.26.3-.26.45A3.76,3.76,0,0,1,5,16.54,8.63,8.63,0,0,0,12.5,21.05Zm5.31-8.38a1.86,1.86,0,0,1,.46-1.73c.18-.18.37-.34.56-.5s.46-.4.67-.61c-.19-.08-.38-.16-.58-.22A2.34,2.34,0,0,1,17.5,8.14c-.3-.67-.43-1.75-1.07-2.17-.36-.27-.86-.13-1.28-.15a3.58,3.58,0,0,1-1.39-.32,2.7,2.7,0,0,0-3.05.21A3,3,0,0,0,9.47,9.12c.22.63.5.84,1.15.8a4.18,4.18,0,0,1,1.86.1c1.35.45,1.65,2.21,1.8,3.42.1.79.14,1.59.22,2.39,0,.42,0,1.29.34,1.62,1.07,0,1.51-.69,1.84-1.63a3.22,3.22,0,0,1,.48-.93,2.59,2.59,0,0,0,.65-2.21C17.79,12.39,17.85,13,17.82,12.67ZM20.49,9.4A8.71,8.71,0,0,0,17,5.22c.85.67.94,1.83,1.42,2.74a1.49,1.49,0,0,0,.88.79c.4.17.9.25,1.15.65C20.16,8.54,20.39,9.24,20.49,9.4Z" fill="#fff"/></svg>