<svg xmlns="http://www.w3.org/2000/svg" viewBox="0 0 25 25"><path d="M21.68,9.14a1.1,1.1,0,0,1,0,1.54l-.32.32a2,2,0,0,1-1.33.56H18.93a1,1,0,0,0-.56.24l-3.07,3.07a.86.86,0,0,0-.24.54V16.5a2,2,0,0,1-.54,1.33l-.32.32a1.13,1.13,0,0,1-1.57,0L11,16.46,3.87,21.89a.53.53,0,0,1-.71,0,.55.55,0,0,1,0-.73l5.43-7.06L6.83,12.34a1.1,1.1,0,0,1,0-1.54l.32-.32a2.09,2.09,0,0,1,1.33-.56H9.58a1.2,1.2,0,0,0,.56-.21L13.2,6.63a1,1,0,0,0,.24-.56V5A2,2,0,0,1,14,3.65l.32-.32a1.13,1.13,0,0,1,1.57,0ZM6.55,18.45l3.6-2.79-.84-.84Zm14-8.22.32-.32L15.07,4.1l-.32.32a1.2,1.2,0,0,0-.21.56V6.07A2,2,0,0,1,14,7.4l-3.07,3.07A2,2,0,0,1,9.58,11H8.48a.86.86,0,0,0-.54.24l-.32.32,5.81,5.81.32-.32A1.2,1.2,0,0,0,14,16.5V15.41a2.07,2.07,0,0,1,.56-1.33L17.6,11a2,2,0,0,1,1.33-.54H20A.86.86,0,0,0,20.56,10.24Z" fill="#fff"/></svg>