<svg xmlns="http://www.w3.org/2000/svg" viewBox="0 0 25 25"><title>icons-nav</title><path d="M21.47,21.31a.46.46,0,0,1-.2.63.49.49,0,0,1-.65-.2l-.33-.69H4.72l-.35.69a.47.47,0,1,1-.83-.43l1.89-3.8c.29-.53,1.15-.1.85.43l-.13.26H18.85l-.13-.26c-.3-.53.56-1,.85-.43ZM5.2,20.1H19.8l-.46-.95H5.66Zm12-2.86a2.39,2.39,0,0,0,2.37-2.37V5.37A2.39,2.39,0,0,0,17.24,3H7.74A2.39,2.39,0,0,0,5.37,5.37v9.5a2.39,2.39,0,0,0,2.37,2.37ZM7.74,3.95h9.5a1.44,1.44,0,0,1,1.43,1.43v9.5a1.44,1.44,0,0,1-1.43,1.43H7.74a1.44,1.44,0,0,1-1.41-1.43V5.37A1.44,1.44,0,0,1,7.74,3.95Zm9.5,2.86a.48.48,0,0,1,.48.48v3.78a.48.48,0,0,1-.48.48H7.74a.48.48,0,0,1-.46-.48V7.29a.48.48,0,0,1,.46-.48ZM8.71,15.36a1.43,1.43,0,0,0,0-2.86A1.43,1.43,0,0,0,8.71,15.36ZM8.22,7.75v2.86H12V7.75Zm.48,5.7a.48.48,0,0,1,0,1A.48.48,0,0,1,8.71,13.44Zm6.64-7.59a.47.47,0,0,0,0-.95H9.65a.47.47,0,0,0,0,.95Zm1.43,4.75V7.75H13v2.86Zm-.48,4.75a1.43,1.43,0,0,0,0-2.86A1.43,1.43,0,0,0,16.29,15.36Zm0-1.91a.48.48,0,0,1,0,1A.48.48,0,0,1,16.29,13.44Z" fill="#fff"/></svg>