<?xml version="1.0" encoding="iso-8859-1"?>
<!-- Generator: Adobe Illustrator 19.0.0, SVG Export Plug-In . SVG Version: 6.00 Build 0)  -->
<svg version="1.1" xmlns="http://www.w3.org/2000/svg" xmlns:xlink="http://www.w3.org/1999/xlink" x="0px" y="0px"
	 viewBox="0 0 25 25" style="enable-background:new 0 0 25 25;" xml:space="preserve">
<g id="Layer_1">
</g>
<g id="icon-nav-log">
	<path style="fill:#FFFFFF;" d="M21.592,3.209C21.863,3.42,22,3.698,22,4.044V18.48c0,0.297-0.1,0.575-0.297,0.835
		c-0.198,0.26-0.445,0.427-0.742,0.501l-7.83,2.115c-0.198,0.049-0.434,0.074-0.705,0.074c-0.297,0-0.545-0.025-0.742-0.074
		l-7.682-2.115c-0.272-0.074-0.508-0.241-0.705-0.501C3.099,19.055,3,18.777,3,18.48V4.044C3,3.698,3.136,3.42,3.408,3.209
		c0.272-0.21,0.581-0.266,0.928-0.167l7.645,2.115c0.099,0.025,0.241,0.037,0.427,0.037s0.327-0.012,0.427-0.037l7.83-2.115
		C21.01,2.944,21.319,2.999,21.592,3.209z M11.906,6.345c-0.1,0-0.174-0.012-0.223-0.037L4.188,4.23v14.25
		c0,0.099,0.049,0.161,0.148,0.186l7.57,2.078V6.345z M10.682,8.924c0.074,0.136,0.086,0.278,0.037,0.427
		c-0.074,0.297-0.26,0.445-0.557,0.445c-0.05,0-0.1,0-0.148,0L5.857,8.609C5.684,8.559,5.561,8.467,5.486,8.33
		C5.412,8.195,5.394,8.046,5.431,7.885c0.037-0.161,0.13-0.284,0.278-0.371c0.148-0.086,0.297-0.105,0.445-0.056l4.156,1.187
		C10.483,8.695,10.607,8.788,10.682,8.924z M10.682,12.487c0.074,0.136,0.086,0.278,0.037,0.427
		c-0.074,0.297-0.26,0.445-0.557,0.445c-0.05,0-0.1,0-0.148,0l-4.156-1.188c-0.174-0.049-0.297-0.142-0.371-0.278
		c-0.074-0.136-0.093-0.284-0.056-0.445c0.037-0.161,0.13-0.284,0.278-0.371c0.148-0.086,0.297-0.105,0.445-0.056l4.156,1.188
		C10.483,12.258,10.607,12.351,10.682,12.487z M10.682,16.049c0.074,0.136,0.086,0.278,0.037,0.427
		c-0.074,0.297-0.26,0.445-0.557,0.445c-0.05,0-0.1,0-0.148,0l-4.156-1.188c-0.174-0.049-0.297-0.142-0.371-0.278
		c-0.074-0.136-0.093-0.284-0.056-0.445c0.037-0.161,0.13-0.284,0.278-0.371c0.148-0.086,0.297-0.105,0.445-0.056l4.156,1.188
		C10.483,15.82,10.607,15.913,10.682,16.049z M20.812,4.23l-7.682,2.078h-0.037v14.398l7.57-2.041
		c0.099-0.024,0.148-0.086,0.148-0.186V4.23z M14.355,9.351c-0.05-0.148-0.037-0.291,0.037-0.427
		c0.074-0.136,0.197-0.229,0.371-0.278l4.156-1.187c0.148-0.049,0.297-0.031,0.445,0.056c0.148,0.087,0.241,0.21,0.278,0.371
		c0.037,0.161,0.019,0.31-0.056,0.445c-0.074,0.136-0.198,0.229-0.371,0.278l-4.156,1.188c-0.05,0-0.1,0-0.148,0
		C14.615,9.796,14.43,9.648,14.355,9.351z M14.355,12.913c-0.05-0.148-0.037-0.291,0.037-0.427c0.074-0.136,0.197-0.229,0.371-0.278
		l4.156-1.188c0.148-0.049,0.297-0.031,0.445,0.056c0.148,0.087,0.241,0.21,0.278,0.371c0.037,0.161,0.019,0.31-0.056,0.445
		c-0.074,0.136-0.198,0.229-0.371,0.278l-4.156,1.188c-0.05,0-0.1,0-0.148,0C14.615,13.359,14.43,13.21,14.355,12.913z
		 M14.355,16.476c-0.05-0.148-0.037-0.291,0.037-0.427c0.074-0.136,0.197-0.229,0.371-0.278l4.156-1.188
		c0.148-0.049,0.297-0.031,0.445,0.056c0.148,0.087,0.241,0.21,0.278,0.371c0.037,0.161,0.019,0.31-0.056,0.445
		c-0.074,0.136-0.198,0.229-0.371,0.278l-4.156,1.188c-0.05,0-0.1,0-0.148,0C14.615,16.921,14.43,16.773,14.355,16.476z"/>
</g>
</svg>
