<svg xmlns="http://www.w3.org/2000/svg" viewBox="0 0 25 25"><path d="M10.82,21.81A9.83,9.83,0,0,1,3,12.58,9.74,9.74,0,0,1,10,3a.48.48,0,0,1,.56.67c-3.46,6.78,4,14.22,10.76,10.76A.48.48,0,0,1,22,15,9.74,9.74,0,0,1,10.82,21.81ZM7.06,5.63A8.57,8.57,0,0,0,5.39,7.48,8.72,8.72,0,0,0,4.33,9.73a8.71,8.71,0,0,0,.32,6,8.82,8.82,0,0,0,4.68,4.68,8.71,8.71,0,0,0,6,.32,8.72,8.72,0,0,0,5.43-4.91,7.84,7.84,0,0,1-1.47.41,8.7,8.7,0,0,1-1.5.13A9,9,0,0,1,16,16.13a9,9,0,0,1-3.23-1.34,8.85,8.85,0,0,1-1.37-1.12,9.21,9.21,0,0,1-1.14-1.38,8.66,8.66,0,0,1-.83-1.55A9.33,9.33,0,0,1,8.87,9,8.87,8.87,0,0,1,8.7,7.29a8.24,8.24,0,0,1,.14-1.52,9.53,9.53,0,0,1,.4-1.47A9.07,9.07,0,0,0,7.06,5.63Z" fill="#fff"/></svg>