<svg xmlns="http://www.w3.org/2000/svg" viewBox="0 0 25 25"><path d="M22,10.27a2.8,2.8,0,0,1-1.13,2.23v7.26h.57a.56.56,0,0,1,0,1.11H3.57a.56.56,0,0,1,0-1.11h.55V12.5A2.85,2.85,0,0,1,3,10.27V9.14a.74.74,0,0,1,.07-.24L5.29,4.43a.63.63,0,0,1,.5-.31H19.21a.55.55,0,0,1,.48.31L21.93,8.9a.74.74,0,0,1,.07.24Zm-17.89,0a1.68,1.68,0,0,0,3.36,0V9.71H4.11Zm2-5L4.46,8.6H7.6l.83-3.36ZM5.25,13v6.76h8.92V13a2.84,2.84,0,0,1-1.68-1.07,2.77,2.77,0,0,1-4.45,0A2.81,2.81,0,0,1,5.25,13ZM6.9,16.4a.72.72,0,0,0,.41-.15l1.11-1.11a.57.57,0,0,0-.81-.81L6.51,15.44a.61.61,0,0,0,0,.81A.66.66,0,0,0,6.9,16.4ZM8,18.65a.54.54,0,0,0,.39-.17l3.34-3.34a.56.56,0,0,0-.79-.81L7.62,17.69a.58.58,0,0,0,0,.79A.59.59,0,0,0,8,18.65Zm.55-8.94v.57a1.68,1.68,0,0,0,3.36,0V9.71Zm3.36-4.47H9.59L8.74,8.6h3.21Zm-.57,13.42a.5.5,0,0,0,.39-.17l1.13-1.11a.56.56,0,0,0-.81-.79L11,17.69a.58.58,0,0,0,0,.79A.54.54,0,0,0,11.38,18.65Zm4-13.42H13.06V8.6h3.18Zm-.68,6.7a1.69,1.69,0,0,0,1.68-1.66V9.71H13.06v.57A1.69,1.69,0,0,0,14.74,11.93Zm5,7.83V13A2.81,2.81,0,0,1,17,11.93,2.79,2.79,0,0,1,15.28,13v6.76Zm-2.23-3.9a.56.56,0,0,0-1.11,0A.56.56,0,0,0,17.53,15.86Zm3-7.26L18.86,5.24H16.57L17.4,8.6Zm-3,1.11v.57a1.67,1.67,0,0,0,3.34,0V9.71Z" fill="#fff"/></svg>