<?xml version="1.0" encoding="iso-8859-1"?>
<!-- Generator: Adobe Illustrator 19.0.0, SVG Export Plug-In . SVG Version: 6.00 Build 0)  -->
<svg version="1.1" xmlns="http://www.w3.org/2000/svg" xmlns:xlink="http://www.w3.org/1999/xlink" x="0px" y="0px"
	 viewBox="0 0 25 25" style="enable-background:new 0 0 25 25;" xml:space="preserve">
<g id="Layer_1">
</g>
<g id="icon-nav-pages">
	<path style="fill:#FFFFFF;" d="M13.054,21.963c-0.099,0-0.197,0-0.296,0h-0.074c-0.025,0-0.055,0-0.092,0c-0.037,0-0.068,0-0.092,0
		c-2.613,0-4.849-0.924-6.709-2.772C3.93,17.342,3,15.112,3,12.5c0-2.612,0.93-4.842,2.791-6.691
		c1.86-1.848,4.096-2.772,6.709-2.772c0.024,0,0.074,0,0.148,0c0.024,0,0.061,0,0.111,0c0.098,0,0.197,0,0.296,0
		c2.488,0.148,4.602,1.134,6.339,2.957C21.131,7.818,22,10.428,22,12.5c0,2.659-0.869,4.682-2.606,6.506
		S15.543,21.815,13.054,21.963z M4.183,12.5c0,1.035,0.197,2.033,0.591,2.994c0.665-0.172,1.527-0.32,2.588-0.444
		C7.214,14.213,7.14,13.363,7.14,12.5c0-0.69,0.049-1.368,0.148-2.033c-1.159-0.123-2.058-0.271-2.698-0.444
		C4.318,10.812,4.183,11.638,4.183,12.5z M5.033,8.914c0.616,0.148,1.429,0.271,2.44,0.37C7.916,7.411,8.643,5.883,9.654,4.7
		C7.558,5.464,6.019,6.869,5.033,8.914z M9.654,20.3c-0.912-1.059-1.589-2.415-2.033-4.066c-0.912,0.099-1.689,0.21-2.329,0.333
		C6.302,18.34,7.756,19.585,9.654,20.3z M8.508,14.94c1.059-0.074,2.193-0.111,3.401-0.111v-4.103
		c-1.232-0.024-2.391-0.074-3.475-0.148C8.36,11.219,8.323,11.859,8.323,12.5C8.323,13.338,8.384,14.151,8.508,14.94z M9.949,6.031
		C9.358,6.943,8.914,8.064,8.619,9.395c1.035,0.074,2.131,0.123,3.29,0.148V4.331C11.194,4.553,10.541,5.12,9.949,6.031z
		 M8.767,16.123c0.296,1.208,0.727,2.218,1.294,3.031c0.566,0.813,1.183,1.319,1.848,1.516v-4.658
		C10.774,16.012,9.728,16.049,8.767,16.123z M13.054,9.543c1.183-0.024,2.267-0.074,3.253-0.148
		c-0.271-1.331-0.696-2.458-1.275-3.382c-0.58-0.924-1.238-1.497-1.978-1.719V9.543z M16.455,14.977
		c0.123-0.813,0.185-1.639,0.185-2.477c0-0.641-0.037-1.281-0.111-1.922c-1.06,0.074-2.218,0.123-3.475,0.148v4.103
		C14.286,14.829,15.42,14.878,16.455,14.977z M14.921,19.172c0.554-0.825,0.98-1.842,1.275-3.05
		c-0.961-0.074-2.009-0.111-3.142-0.111v4.695C13.744,20.509,14.367,19.998,14.921,19.172z M15.79,4.885
		c0.813,1.134,1.392,2.6,1.737,4.399c1.059-0.123,1.86-0.271,2.403-0.444C19.043,7.017,17.662,5.698,15.79,4.885z M19.708,16.64
		c-0.617-0.172-1.38-0.308-2.292-0.407c-0.345,1.577-0.887,2.871-1.626,3.881C17.465,19.375,18.771,18.217,19.708,16.64z
		 M20.817,12.5c0-1.109-0.444-2.551-0.444-2.551c-0.543,0.173-1.43,0.333-2.661,0.481c0.074,0.69,0.111,1.38,0.111,2.07
		c0,0.887-0.062,1.75-0.185,2.588c1.084,0.123,1.947,0.271,2.588,0.444C20.62,14.57,20.817,13.56,20.817,12.5z"/>
</g>
</svg>
