<?xml version="1.0" encoding="iso-8859-1"?>
<!-- Generator: Adobe Illustrator 19.0.0, SVG Export Plug-In . SVG Version: 6.00 Build 0)  -->
<svg version="1.1" xmlns="http://www.w3.org/2000/svg" xmlns:xlink="http://www.w3.org/1999/xlink" x="0px" y="0px"
	 viewBox="0 0 25 25" style="enable-background:new 0 0 25 25;" xml:space="preserve">
<g id="Layer_1">
</g>
<g id="icon-nav-news">
	<path style="fill:#FFFFFF;" d="M22,12.5c0,2.623-0.928,4.861-2.783,6.717S15.122,22,12.5,22c-2.623,0-4.861-0.928-6.717-2.783
		S3,15.123,3,12.5c0-2.622,0.928-4.861,2.783-6.717S9.877,3,12.5,3c2.622,0,4.861,0.928,6.717,2.783S22,9.878,22,12.5z M20.812,12.5
		c0-2.301-0.811-4.261-2.431-5.882c-1.621-1.62-3.581-2.431-5.882-2.431S8.238,4.998,6.618,6.618
		C4.997,8.239,4.188,10.199,4.188,12.5s0.81,4.268,2.431,5.9c1.62,1.633,3.581,2.449,5.882,2.449s4.261-0.816,5.882-2.449
		C20.002,16.768,20.812,14.801,20.812,12.5z M15.914,15.061c0.099,0.124,0.148,0.266,0.148,0.427c0,0.161-0.05,0.303-0.148,0.427
		c-0.297,0.272-0.582,0.272-0.854,0l-2.932-2.969h-0.037c-0.124-0.124-0.186-0.272-0.186-0.445V6.562
		c0-0.173,0.056-0.315,0.167-0.427s0.253-0.167,0.427-0.167c0.173,0,0.315,0.056,0.427,0.167s0.167,0.254,0.167,0.427v5.715
		L15.914,15.061z"/>
</g>
</svg>
