<?xml version="1.0" encoding="iso-8859-1"?>
<!-- Generator: Adobe Illustrator 19.0.0, SVG Export Plug-In . SVG Version: 6.00 Build 0)  -->
<svg version="1.1" xmlns="http://www.w3.org/2000/svg" xmlns:xlink="http://www.w3.org/1999/xlink" x="0px" y="0px"
	 viewBox="0 0 25 25" style="enable-background:new 0 0 25 25;" xml:space="preserve">
<g id="Layer_1">
</g>
<g id="icon-action-edit">
	<path style="display:none;fill:#E87E04;" d="M23,5.486c0,0.875-0.409,1.737-1.226,2.584c-0.627,0.656-4.958,4.963-12.995,12.92
		c-0.082,0.082-0.163,0.137-0.245,0.164C7.607,21.428,5.727,22.043,2.895,23c-0.082,0-0.15,0-0.204,0
		c-0.191,0-0.355-0.055-0.49-0.164c-0.19-0.192-0.245-0.424-0.163-0.697c1.089-3.636,1.661-5.551,1.716-5.742
		c0.027-0.137,0.082-0.246,0.163-0.328L16.87,3.107C17.606,2.369,18.45,2,19.404,2c0.844,0,1.621,0.342,2.329,1.025
		C22.55,3.791,22.972,4.611,23,5.486z M4.264,19.268C3.95,20.279,3.725,20.99,3.59,21.4c0.463-0.137,1.205-0.383,2.227-0.738
		c1.022-0.355,1.668-0.574,1.941-0.656c-0.191-0.629-0.518-1.175-0.981-1.641c-0.572-0.601-1.199-0.984-1.88-1.148
		C4.788,17.572,4.577,18.256,4.264,19.268z M13.417,8.46c-1.43,1.436-2.936,2.947-4.515,4.532c-1.581,1.586-2.615,2.625-3.106,3.117
		c0.708,0.301,1.349,0.738,1.921,1.312c0.463,0.465,0.83,1.025,1.103,1.682c5.366-5.332,8.976-8.927,10.829-10.787
		c-0.137-0.738-0.49-1.395-1.062-1.969c-0.6-0.601-1.24-0.984-1.921-1.148C15.931,5.938,14.848,7.024,13.417,8.46z M21.651,5.527
		c0-0.492-0.273-0.998-0.817-1.518c-0.463-0.465-0.94-0.697-1.43-0.697c-0.572,0-1.103,0.246-1.594,0.738l-0.082,0.082
		c0.654,0.301,1.253,0.725,1.798,1.271c0.517,0.52,0.912,1.135,1.185,1.846c0.054-0.055,0.095-0.096,0.123-0.123
		C21.378,6.553,21.651,6.02,21.651,5.527z"/>
	<path style="fill:#E87E04;" d="M4.594,17.21L2,23l5.755-2.627l0.012,0.012l-3.18-3.189L4.594,17.21z M5.652,16.152l10.5-10.5
		l3.196,3.196l-10.5,10.5L5.652,16.152z M22.278,2.602c-1.382-1.291-2.946-0.103-2.946-0.103l-0.44,0.414l3.196,3.196l0.428-0.424
		C22.515,5.684,23.75,4.205,22.278,2.602L22.278,2.602z M22.278,2.602 M17.065,4.739l0.913-0.913l3.196,3.196l-0.913,0.913
		L17.065,4.739z"/>
</g>
</svg>
