<?xml version="1.0" encoding="iso-8859-1"?>
<!-- Generator: Adobe Illustrator 19.0.0, SVG Export Plug-In . SVG Version: 6.00 Build 0)  -->
<svg version="1.1" xmlns="http://www.w3.org/2000/svg" xmlns:xlink="http://www.w3.org/1999/xlink" x="0px" y="0px"
	 viewBox="0 0 25 25" style="enable-background:new 0 0 25 25;" xml:space="preserve">
<g id="Layer_1">
</g>
<g id="icon-nav-user">
	<path style="fill:#FFFFFF;" d="M17.844,7.156v2.969c0,0.866-0.18,1.812-0.538,2.839c-0.359,1.027-0.909,1.837-1.651,2.431
		l5.158,2.449l0.297,0.148c0.197,0.074,0.396,0.21,0.594,0.408C21.9,18.599,22,18.809,22,19.031v1.781
		c0,0.321-0.118,0.6-0.353,0.835C21.412,21.882,21.134,22,20.812,22H4.188c-0.322,0-0.6-0.118-0.835-0.353
		C3.117,21.412,3,21.134,3,20.812v-1.781c0-0.198,0.111-0.402,0.334-0.612c0.223-0.21,0.396-0.353,0.52-0.427
		c0.123-0.074,0.234-0.124,0.334-0.148l5.195-2.486c-0.742-0.594-1.299-1.41-1.67-2.449s-0.557-1.967-0.557-2.783V7.156
		c0-0.989,0.563-1.93,1.688-2.82C9.97,3.445,11.183,3,12.481,3s2.517,0.445,3.655,1.336C17.274,5.227,17.844,6.167,17.844,7.156z
		 M9.698,5.189C8.795,5.857,8.344,6.513,8.344,7.156v2.969c0,0.668,0.16,1.441,0.482,2.319c0.321,0.878,0.767,1.54,1.336,1.985
		c0.321,0.297,0.457,0.662,0.408,1.095c-0.05,0.433-0.272,0.736-0.668,0.909L4.67,18.92c-0.322,0.148-0.482,0.371-0.482,0.668v1.225
		h16.625v-1.188c0-0.371-0.161-0.606-0.482-0.705h-0.037l-5.158-2.449c-0.396-0.198-0.619-0.513-0.668-0.946
		c-0.05-0.433,0.099-0.785,0.445-1.058c0.568-0.47,1.002-1.138,1.299-2.004c0.297-0.866,0.445-1.645,0.445-2.338V7.156
		c0-0.643-0.445-1.299-1.336-1.967s-1.831-1.002-2.82-1.002C11.535,4.188,10.601,4.521,9.698,5.189z"/>
	<g>
		<path style="fill:#FFFFFF;" d="M14.749,10.272c-0.562,0-1.052-0.202-1.456-0.599c-0.405-0.4-0.61-0.886-0.61-1.444
			c0-0.066,0.004-0.133,0.012-0.2C12.633,8.02,12.568,8.016,12.5,8.016c-0.074,0-0.143,0.005-0.208,0.014
			c0.006,0.067,0.009,0.134,0.009,0.199c0,0.568-0.2,1.056-0.594,1.449c-0.394,0.394-0.879,0.594-1.441,0.594
			S9.214,10.07,8.811,9.673C8.405,9.273,8.2,8.787,8.2,8.229c0-0.668,0.431-1.952,2.061-2.027c0.003,0,0.007,0,0.011,0
			c0.392,0,0.709,0.093,1.019,0.274c0.234,0.138,0.434,0.313,0.596,0.522c0.191-0.054,0.397-0.081,0.614-0.081
			c0.217,0,0.426,0.024,0.624,0.074c0.164-0.213,0.37-0.389,0.614-0.526C14.055,6.289,14.375,6.2,14.691,6.2
			c1.672,0.078,2.093,1.361,2.093,2.029c0,0.568-0.199,1.056-0.594,1.449C15.797,10.072,15.312,10.272,14.749,10.272z M14.757,7.299
			c-0.265,0-0.489,0.092-0.687,0.282c-0.195,0.187-0.29,0.401-0.29,0.655s0.095,0.469,0.289,0.655
			c0.198,0.19,0.423,0.283,0.688,0.283c0.261,0,0.476-0.09,0.656-0.275c0.184-0.187,0.272-0.405,0.273-0.668l0,0
			c-0.002,0-0.016-0.062-0.016-0.126c-0.057-0.289-0.163-0.461-0.333-0.6C15.168,7.367,14.978,7.299,14.757,7.299z M10.274,7.299
			c-0.265,0-0.489,0.092-0.688,0.282C9.393,7.769,9.298,7.982,9.298,8.237s0.095,0.469,0.289,0.655
			c0.198,0.19,0.422,0.283,0.688,0.283c0.261,0,0.476-0.09,0.657-0.276c0.183-0.187,0.272-0.406,0.272-0.669
			c0-0.262-0.088-0.478-0.271-0.66C10.752,7.388,10.536,7.299,10.274,7.299z"/>
	</g>
</g>
</svg>
