<svg xmlns="http://www.w3.org/2000/svg" viewBox="0 0 25 25"><path d="M8.51,21A1.5,1.5,0,0,1,7,19.49V10.2L4.66,11a.52.52,0,0,1-.38,0,.45.45,0,0,1-.24-.3l-1-3a.47.47,0,0,1,0-.35.5.5,0,0,1,.23-.25l6-3a.48.48,0,0,1,.25,0,.52.52,0,0,1,.23.07.5.5,0,0,1,.18.2A.52.52,0,0,1,10,4.5a2.41,2.41,0,0,0,.73,1.77,2.5,2.5,0,0,0,3.53,0A2.41,2.41,0,0,0,15,4.5a.46.46,0,0,1,.07-.23.59.59,0,0,1,.19-.2A.51.51,0,0,1,15.47,4a.46.46,0,0,1,.24,0l6,3a.5.5,0,0,1,.23.25.41.41,0,0,1,0,.35l-1,3a.45.45,0,0,1-.24.3.52.52,0,0,1-.38,0L18,10.2v9.29a1.5,1.5,0,0,1-1.5,1.5ZM7.65,9l.14.06a.61.61,0,0,1,.16.19A.46.46,0,0,1,8,9.5v10a.5.5,0,0,0,.51.51h8a.5.5,0,0,0,.51-.51V9.5a.54.54,0,0,1,0-.22.5.5,0,0,1,.15-.19A.61.61,0,0,1,17.42,9a.42.42,0,0,1,.22,0l2.54.84.7-2.11-5-2.5a3.39,3.39,0,0,1-1.21,2A3.39,3.39,0,0,1,12.49,8a3.35,3.35,0,0,1-2.2-.78,3.4,3.4,0,0,1-1.2-2l-5,2.5.7,2.11L7.34,9l.08,0H7.5Z" fill="#fff"/></svg>