<svg xmlns="http://www.w3.org/2000/svg" viewBox="0 0 25 25"><path d="M3.67,13.73a4.59,4.59,0,0,1-.14-4.54A1.84,1.84,0,0,1,6.84,9,4.64,4.64,0,0,1,7,13.39C6.29,14.84,4.64,15.18,3.67,13.73Zm.82-4a3.61,3.61,0,0,0-.11,3c.42.95,1.19,1.11,1.69.11A3.64,3.64,0,0,0,6.12,10C5.74,9.07,5,8.79,4.49,9.73ZM15.14,21.18c-1.47-.58-2.49-1.24-4.08-.55C9.76,21.21,8,22,7,20.45c-1.22-1.77-.22-4.31.76-5.94s2.83-3.28,5-3.15a6,6,0,0,1,4.49,3.22c1,1.62,1.93,4.12.73,5.87A2.29,2.29,0,0,1,15.14,21.18Zm-7-11.91A4.61,4.61,0,0,1,8,4.75a1.85,1.85,0,0,1,3.3-.22,4.54,4.54,0,0,1,.2,4.41C10.74,10.37,9.08,10.72,8.12,9.28Zm5.63,10.08c.91.36,2.5,1.56,3.33.49A3.79,3.79,0,0,0,17,16.58c-.76-1.89-2.22-4.12-4.51-4.11S8.76,14.7,8,16.58a3.61,3.61,0,0,0-.09,3.27c.74.95,2,.09,2.83-.28A3.89,3.89,0,0,1,13.75,19.36ZM9,5.3A3.57,3.57,0,0,0,8.8,8.15c.28.74.88,1.36,1.51.57A3.4,3.4,0,0,0,10.72,6C10.5,5.05,9.65,4.07,9,5.3Zm4.75,4a4.61,4.61,0,0,1-.13-4.53,1.85,1.85,0,0,1,3.3-.22,4.54,4.54,0,0,1,.2,4.41C16.32,10.37,14.66,10.72,13.7,9.28Zm.83-4a3.56,3.56,0,0,0-.11,3c.35.81,1,1.18,1.56.34a3.5,3.5,0,0,0,.27-2.85C15.94,4.83,15.14,4.22,14.52,5.3Zm3.64,8.42A4.65,4.65,0,0,1,18,9.18,1.84,1.84,0,0,1,21.33,9a4.58,4.58,0,0,1,.2,4.43C20.78,14.83,19.12,15.19,18.16,13.73Zm.83-4a3.62,3.62,0,0,0-.15,2.87c.42,1.08,1.27,1.26,1.77.12a3.7,3.7,0,0,0,0-2.77C20.21,9.07,19.51,8.79,19,9.73Z" fill="#fff"/></svg>