<svg xmlns="http://www.w3.org/2000/svg" viewBox="0 0 25 25"><path d="M18.21,4.91a1.43,1.43,0,0,1,1.41,1.41v1a1.4,1.4,0,0,1-.95,1.34V20.57A1.43,1.43,0,0,1,17.25,22H7.75a1.36,1.36,0,0,1-1-.42,1.38,1.38,0,0,1-.42-1V8.62a1.44,1.44,0,0,1-.7-.51,1.35,1.35,0,0,1-.27-.83v-1a1.36,1.36,0,0,1,.42-1,1.38,1.38,0,0,1,1-.42h3.32V4.43A1.43,1.43,0,0,1,11.55,3h1.91a1.36,1.36,0,0,1,1,.42,1.38,1.38,0,0,1,.42,1v.48Zm.46,2.38v-1a.48.48,0,0,0-.46-.46H6.8a.48.48,0,0,0-.46.46v1a.48.48,0,0,0,.46.46H18.21a.48.48,0,0,0,.46-.46ZM17.25,21.05a.48.48,0,0,0,.48-.48V8.7H7.29V20.57a.47.47,0,0,0,.14.34.45.45,0,0,0,.32.14ZM9.66,9.66a.48.48,0,0,1,.46.46v9.5A.47.47,0,0,1,10,20a.45.45,0,0,1-.32.14.48.48,0,0,1-.48-.48v-9.5a.45.45,0,0,1,.14-.32A.47.47,0,0,1,9.66,9.66Zm1.43-5.23v.48h2.84V4.43a.47.47,0,0,0-.14-.34.45.45,0,0,0-.32-.14H11.55a.45.45,0,0,0-.32.14A.47.47,0,0,0,11.09,4.43ZM12.5,9.66a.47.47,0,0,1,.34.14.45.45,0,0,1,.14.32v9.5a.48.48,0,0,1-.48.48.45.45,0,0,1-.32-.14.47.47,0,0,1-.14-.34v-9.5a.48.48,0,0,1,.46-.46Zm2.86,0a.47.47,0,0,1,.34.14.45.45,0,0,1,.14.32v9.5a.48.48,0,1,1-1,0v-9.5A.45.45,0,0,1,15,9.8.47.47,0,0,1,15.36,9.66Z" fill="#fff"/></svg>