<svg xmlns="http://www.w3.org/2000/svg" viewBox="0 0 25 25"><path d="M3.58,20a1.62,1.62,0,0,1-1.12-.41,1.29,1.29,0,0,1-.46-1V6.39a1.27,1.27,0,0,1,.46-1A1.62,1.62,0,0,1,3.58,5H21.42a1.62,1.62,0,0,1,1.12.41,1.27,1.27,0,0,1,.46,1v12.2a1.29,1.29,0,0,1-.46,1,1.62,1.62,0,0,1-1.12.41ZM3.2,6.07A.42.42,0,0,0,3,6.39v12.2a.44.44,0,0,0,.15.34.55.55,0,0,0,.38.14H21.42a.55.55,0,0,0,.38-.14.44.44,0,0,0,.15-.34V6.39a.42.42,0,0,0-.15-.32.55.55,0,0,0-.38-.14H3.58A.55.55,0,0,0,3.2,6.07ZM5.67,9a.5.5,0,0,1-.36-.15.46.46,0,0,1-.15-.34.48.48,0,0,1,.15-.36A.5.5,0,0,1,5.67,8H12a.53.53,0,0,1,.38.15.48.48,0,0,1,.15.36.46.46,0,0,1-.15.34A.53.53,0,0,1,12,9Zm0,1.95a.5.5,0,0,1-.36-.15.48.48,0,0,1-.15-.36.46.46,0,0,1,.15-.34A.5.5,0,0,1,5.67,10H12a.53.53,0,0,1,.38.15.46.46,0,0,1,.15.34.48.48,0,0,1-.15.36A.53.53,0,0,1,12,11Zm0,2a.5.5,0,0,1-.36-.15.48.48,0,0,1-.15-.36.46.46,0,0,1,.15-.34A.5.5,0,0,1,5.67,12H12a.53.53,0,0,1,.38.15.46.46,0,0,1,.15.34.48.48,0,0,1-.15.36A.53.53,0,0,1,12,13Zm0,2.1a.5.5,0,0,1-.36-.15.46.46,0,0,1-.15-.34.48.48,0,0,1,.15-.36.5.5,0,0,1,.36-.15h5.25a.53.53,0,0,1,.38.15.48.48,0,0,1,.15.36.46.46,0,0,1-.15.34.53.53,0,0,1-.38.15ZM20,8.7l-.33-.9h-1l-.86-.55-.86.55h-1l-.33.9-.86.55.33.9-.33.9.86.55.14.38v4.74a.43.43,0,0,0,.08.25.47.47,0,0,0,.23.17.64.64,0,0,0,.32,0,.51.51,0,0,0,.26-.12L17.75,16,19,17.05a.49.49,0,0,0,.16.09.61.61,0,0,0,.21,0h.09l.11,0a.47.47,0,0,0,.23-.17.43.43,0,0,0,.08-.25V12l.14-.38.86-.55-.33-.9.33-.9Zm-3.57.59.18-.55h.64l.51-.33.51.33h.64l.18.55.51.33-.18.53.18.55-.51.33-.18.53h-.64l-.51.33-.51-.33H16.6L16.42,11l-.51-.33.18-.55-.18-.53Zm1.33,5.55a.49.49,0,0,0-.37.15l-.68.6v-3.1h.18l.86.57.86-.57h.18v3.1l-.68-.6A.49.49,0,0,0,17.75,14.84Z" fill="#fff"/></svg>