<?xml version="1.0" encoding="iso-8859-1"?>
<!-- Generator: Adobe Illustrator 19.0.0, SVG Export Plug-In . SVG Version: 6.00 Build 0)  -->
<svg version="1.1" xmlns="http://www.w3.org/2000/svg" xmlns:xlink="http://www.w3.org/1999/xlink" x="0px" y="0px"
	 viewBox="0 0 25 25" style="enable-background:new 0 0 25 25;" xml:space="preserve">
<g id="Layer_1">
</g>
<g id="icon-nav-letter">
	<path style="fill:#FFFFFF;" d="M22,7.306v0.037c0,0.05,0,0.087,0,0.111v9.497c0,0.544-0.13,1.027-0.39,1.447
		c-0.26,0.421-0.625,0.631-1.094,0.631H5.084c-0.495,0-0.965-0.223-1.41-0.668c-0.445-0.445-0.668-0.915-0.668-1.41V7.455
		c0-0.049,0-0.099,0-0.148C2.982,7.134,3.031,6.972,3.154,6.824C3.179,6.8,3.203,6.775,3.229,6.75
		c0.395-0.519,1.013-0.779,1.855-0.779h15.433c0.791,0,1.261,0.334,1.41,1.002C21.975,7.072,22,7.183,22,7.306z M20.813,16.952
		V8.456L12.874,14.8c-0.099,0.074-0.223,0.111-0.371,0.111s-0.272-0.037-0.371-0.111L4.193,8.456v8.495
		c0,0.173,0.105,0.365,0.315,0.575c0.21,0.21,0.401,0.315,0.575,0.315h15.433C20.713,17.842,20.813,17.545,20.813,16.952z
		 M4.527,7.195l7.976,6.344l8.013-6.381H5.084C4.787,7.158,4.601,7.171,4.527,7.195z"/>
</g>
</svg>
