<?xml version="1.0" encoding="iso-8859-1"?>
<!-- Generator: Adobe Illustrator 19.0.0, SVG Export Plug-In . SVG Version: 6.00 Build 0)  -->
<svg version="1.1" xmlns="http://www.w3.org/2000/svg" xmlns:xlink="http://www.w3.org/1999/xlink" x="0px" y="0px"
	 viewBox="0 0 25 25" style="enable-background:new 0 0 25 25;" xml:space="preserve">
<g id="Layer_1">
</g>
<g id="icon-nav-faq">
	<path style="fill:#FFFFFF;" d="M22,12.5c0,2.623-0.928,4.861-2.783,6.717S15.122,22,12.5,22c-2.623,0-4.861-0.928-6.717-2.783
		S3,15.123,3,12.5c0-2.622,0.928-4.861,2.783-6.717S9.877,3,12.5,3c2.622,0,4.861,0.928,6.717,2.783S22,9.878,22,12.5z
		 M4.299,13.688h3.6c-0.1-0.396-0.148-0.792-0.148-1.188c0-0.396,0.049-0.792,0.148-1.188h-3.6
		c-0.074,0.421-0.111,0.816-0.111,1.188S4.225,13.267,4.299,13.688z M6.637,6.637c-0.99,0.99-1.683,2.152-2.078,3.488h3.822
		c0.445-0.717,1.026-1.299,1.744-1.744V4.521C8.789,4.942,7.626,5.647,6.637,6.637z M10.125,16.619
		c-0.742-0.42-1.324-1.002-1.744-1.744H4.559c0.396,1.336,1.088,2.505,2.078,3.507c0.989,1.002,2.152,1.701,3.488,2.097V16.619z
		 M12.5,8.938c-0.99,0-1.831,0.347-2.523,1.039c-0.693,0.693-1.039,1.534-1.039,2.523c0,0.99,0.346,1.831,1.039,2.523
		c0.692,0.693,1.533,1.039,2.523,1.039c0.989,0,1.83-0.346,2.523-1.039c0.692-0.692,1.039-1.534,1.039-2.523
		c0-0.989-0.347-1.831-1.039-2.523C14.33,9.284,13.489,8.938,12.5,8.938z M11.312,7.898C11.708,7.8,12.104,7.75,12.5,7.75
		c0.396,0,0.791,0.05,1.188,0.148V4.262c-0.396-0.049-0.792-0.074-1.188-0.074c-0.396,0-0.792,0.025-1.188,0.074V7.898z
		 M13.688,17.102c-0.396,0.099-0.792,0.148-1.188,0.148c-0.396,0-0.792-0.049-1.188-0.148v3.637c0.396,0.05,0.791,0.074,1.188,0.074
		c0.396,0,0.791-0.024,1.188-0.074V17.102z M14.875,8.381c0.717,0.445,1.299,1.027,1.744,1.744h3.822
		c-0.396-1.336-1.089-2.499-2.078-3.488c-0.99-0.989-2.152-1.694-3.488-2.115V8.381z M18.363,18.382
		c0.989-1.002,1.682-2.171,2.078-3.507h-3.822c-0.421,0.742-1.002,1.324-1.744,1.744v3.859
		C16.211,20.083,17.373,19.384,18.363,18.382z M20.701,13.688c0.074-0.42,0.111-0.816,0.111-1.188s-0.037-0.767-0.111-1.188h-3.6
		c0.099,0.396,0.148,0.792,0.148,1.188c0,0.396-0.05,0.792-0.148,1.188H20.701z"/>
</g>
</svg>
