<svg xmlns="http://www.w3.org/2000/svg" viewBox="0 0 25 25"><path d="M8.38,22A1.41,1.41,0,0,1,7,20.57V4.43A1.41,1.41,0,0,1,8.38,3h8.24A1.41,1.41,0,0,1,18,4.43V20.57A1.41,1.41,0,0,1,16.62,22ZM8,4.09a.48.48,0,0,0-.13.34V20.57a.47.47,0,0,0,.47.48h8.24a.47.47,0,0,0,.47-.48V4.43a.47.47,0,0,0-.47-.48H8.38A.44.44,0,0,0,8,4.09ZM9.29,18.2a.47.47,0,0,1-.47-.46V5.38a.47.47,0,0,1,.47-.46h6.41a.47.47,0,0,1,.47.46V17.73a.47.47,0,0,1-.47.46Zm6-.95V5.86H9.74V17.25ZM12,20.11a.47.47,0,0,1,0-.95H13a.47.47,0,0,1,0,.95Z" fill="#fff"/></svg>