<?xml version="1.0" encoding="iso-8859-1"?>
<!-- Generator: Adobe Illustrator 19.0.0, SVG Export Plug-In . SVG Version: 6.00 Build 0)  -->
<svg version="1.1" xmlns="http://www.w3.org/2000/svg" xmlns:xlink="http://www.w3.org/1999/xlink" x="0px" y="0px"
	 viewBox="0 0 25 25" style="enable-background:new 0 0 25 25;" xml:space="preserve">
<g id="Layer_1">
</g>
<g id="icon-action-pictures">
	<path style="fill:#3598DC;" d="M19.981,9.005l-2.149-5.918c-0.159-0.437-0.625-0.668-1.038-0.516L2.518,7.782
		c-0.415,0.15-0.623,0.627-0.465,1.064l2.265,6.239v-3.344c0-1.509,1.206-2.735,2.689-2.735h3.773l4.499-3.158l2.604,3.158H19.981z
		 M22.2,10.899H7.007c-0.441,0-0.8,0.377-0.8,0.842v9.892c0,0.464,0.358,0.842,0.8,0.842H22.2c0.442,0,0.8-0.377,0.8-0.842v-9.893
		C23,11.277,22.642,10.899,22.2,10.899z M21.04,20.37H8.446v-1.805l1.937-4.51l2.907,3.609l2.727-2.795l3.506-1.265l1.517,3.383
		L21.04,20.37L21.04,20.37z"/>
</g>
</svg>
