<svg xmlns="http://www.w3.org/2000/svg" viewBox="0 0 25 25"><path d="M10.84,21.67a4.29,4.29,0,0,1-2.28-2.28,4.15,4.15,0,0,1-.33-1.65V6.32A3.2,3.2,0,0,1,9.2,4a3.31,3.31,0,0,1,4.69,0,3.2,3.2,0,0,1,1,2.35V16.79a2.37,2.37,0,0,1-4.05,1.68,2.29,2.29,0,0,1-.7-1.68V11.07a.45.45,0,0,1,.14-.32.49.49,0,0,1,.69,0,.45.45,0,0,1,.14.32v5.71a1.43,1.43,0,0,0,1.41,1.41,1.38,1.38,0,0,0,1-.42,1.36,1.36,0,0,0,.42-1V6.32a2.38,2.38,0,0,0-2.37-2.37A2.38,2.38,0,0,0,9.17,6.32V17.73a3.33,3.33,0,0,0,3.32,3.32,3.33,3.33,0,0,0,3.34-3.32V11.07a.48.48,0,0,1,.46-.46.47.47,0,0,1,.34.14.45.45,0,0,1,.14.32v6.66a4.15,4.15,0,0,1-.33,1.65,4.29,4.29,0,0,1-2.28,2.28,4.19,4.19,0,0,1-1.67.33A4.15,4.15,0,0,1,10.84,21.67Z" fill="#fff"/></svg>