<?xml version="1.0" encoding="iso-8859-1"?>
<!-- Generator: Adobe Illustrator 19.0.0, SVG Export Plug-In . SVG Version: 6.00 Build 0)  -->
<svg version="1.1" xmlns="http://www.w3.org/2000/svg" xmlns:xlink="http://www.w3.org/1999/xlink" x="0px" y="0px"
	 viewBox="0 0 25 25" style="enable-background:new 0 0 25 25;" xml:space="preserve">
<g id="Layer_1">
</g>
<g id="icon-action-delete">
	<path style="display:none;fill:#E43A45;" d="M20.847,5.466c0.123,0.123,0.185,0.274,0.185,0.451c0,0.178-0.062,0.335-0.185,0.472
		c-0.123,0.137-0.281,0.205-0.472,0.205h-0.902L17.955,21.77c-0.028,0.355-0.172,0.649-0.431,0.882
		C17.264,22.883,16.957,23,16.602,23H8.398c-0.356,0-0.664-0.123-0.923-0.369c-0.26-0.246-0.404-0.547-0.431-0.902L5.527,6.594
		H4.625c-0.192,0-0.349-0.068-0.472-0.205C4.03,6.252,3.969,6.095,3.969,5.917c0-0.178,0.062-0.328,0.185-0.451
		s0.28-0.185,0.472-0.185h4.594V3.477c0-0.41,0.15-0.759,0.451-1.046C9.97,2.144,10.326,2,10.736,2h3.527
		c0.41,0,0.765,0.144,1.066,0.431c0.3,0.287,0.451,0.636,0.451,1.046v1.805h4.594C20.566,5.281,20.724,5.343,20.847,5.466z
		 M18.16,6.594H6.84l1.518,15.012c0,0.055,0.013,0.082,0.041,0.082h8.203c0.027,0,0.041-0.014,0.041-0.041L18.16,6.594z
		 M10.531,5.281h3.938V3.477c0-0.137-0.069-0.205-0.205-0.205h-3.527c-0.137,0-0.205,0.069-0.205,0.205V5.281z"/>
	<path style="fill:#E43A45;" d="M18.406,4.625H6.594c-1.088,0-1.969,0.881-1.969,1.969V7.25h15.75V6.594
		C20.375,5.506,19.494,4.625,18.406,4.625z M14.967,3.312l0.29,2.071H9.743l0.29-2.071H14.967 M15.125,2h-5.25
		C9.333,2,8.83,2.438,8.754,2.975L8.37,5.722C8.295,6.258,8.677,6.696,9.219,6.696h6.562c0.542,0,0.923-0.438,0.848-0.975
		l-0.384-2.746C16.17,2.438,15.667,2,15.125,2L15.125,2z M18.734,8.562H6.266c-0.722,0-1.259,0.588-1.194,1.307l1.075,11.823
		C6.212,22.412,6.857,23,7.578,23h9.844c0.722,0,1.366-0.588,1.431-1.307L19.928,9.87C19.994,9.151,19.456,8.562,18.734,8.562z
		 M9.7,20.55H7.95l-0.7-9.45H9.7V20.55z M13.55,20.55h-2.1V11.1h2.1V20.55z M17.05,20.55H15.3V11.1h2.45L17.05,20.55z"/>
</g>
</svg>
