<?xml version="1.0" encoding="iso-8859-1"?>
<!-- Generator: Adobe Illustrator 19.0.0, SVG Export Plug-In . SVG Version: 6.00 Build 0)  -->
<svg version="1.1" xmlns="http://www.w3.org/2000/svg" xmlns:xlink="http://www.w3.org/1999/xlink" x="0px" y="0px"
	 viewBox="0 0 25 25" style="enable-background:new 0 0 25 25;" xml:space="preserve">
<g id="Layer_1">
</g>
<g id="icon-nav-settings">
	<path style="fill:#FFFFFF;" d="M22,7.527c0,2.895-0.458,4.8-1.373,5.715l-0.26,0.26c-0.891,0.916-1.967,1.373-3.229,1.373
		c-0.816,0-1.584-0.198-2.301-0.594l-6.977,7.014C7.416,21.765,6.865,22,6.21,22c-0.656,0-1.219-0.235-1.688-0.705l-0.816-0.854
		C3.234,19.996,3,19.439,3,18.771s0.234-1.237,0.705-1.707l6.828-6.977c-0.371-0.866-0.482-1.812-0.334-2.839
		c0.148-1.026,0.557-1.886,1.225-2.579l0.26-0.26C12.623,3.47,14.553,3,17.473,3h0.148c0.247,0,0.42,0.111,0.52,0.334
		c0.099,0.223,0.074,0.421-0.074,0.594l-2.709,3.08l2.709,2.783l3.006-2.709c0.173-0.148,0.371-0.173,0.594-0.074
		C21.889,7.107,22,7.28,22,7.527z M20.85,8.826L18.4,10.979c-0.248,0.248-0.495,0.248-0.742,0l-3.451-3.525
		c-0.248-0.272-0.26-0.532-0.037-0.779l2.189-2.523c-2.004,0.124-3.303,0.482-3.896,1.076l-0.223,0.26
		c-0.445,0.421-0.73,1.002-0.854,1.744c-0.124,0.742-0.1,1.386,0.074,1.93c0.099,0.421,0.272,0.804,0.52,1.15l-7.459,7.607
		c-0.223,0.223-0.334,0.501-0.334,0.835s0.111,0.625,0.334,0.872l0.854,0.816c0.223,0.248,0.494,0.371,0.816,0.371
		c0.321,0,0.606-0.124,0.854-0.371l7.607-7.645c0.297,0.272,0.631,0.482,1.002,0.631c0.42,0.173,0.915,0.26,1.484,0.26
		c0.965,0,1.781-0.334,2.449-1.002l0.223-0.223C20.379,11.869,20.726,10.657,20.85,8.826z"/>
</g>
</svg>
