<svg xmlns="http://www.w3.org/2000/svg" viewBox="0 0 25 25"><title>icons-nav</title><path d="M18.49,9.7a1.81,1.81,0,0,1,1.28.49,1.57,1.57,0,0,1,.53,1.19v8.93a1.57,1.57,0,0,1-.53,1.19,1.81,1.81,0,0,1-1.28.49h-12a1.78,1.78,0,0,1-1.25-.49,1.57,1.57,0,0,1-.53-1.19V11.39a1.57,1.57,0,0,1,.53-1.19A1.78,1.78,0,0,1,6.49,9.7H7.1V8a4.65,4.65,0,0,1,.42-2A4.94,4.94,0,0,1,8.68,4.46a5.7,5.7,0,0,1,7.64,0,4.94,4.94,0,0,1,1.16,1.59,4.65,4.65,0,0,1,.42,2V9.7Zm.61,10.61V11.39a.53.53,0,0,0-.18-.4.61.61,0,0,0-.43-.16h-12a.58.58,0,0,0-.41.16.53.53,0,0,0-.18.4v8.93a.53.53,0,0,0,.18.4.58.58,0,0,0,.41.16h12a.61.61,0,0,0,.43-.16A.53.53,0,0,0,19.1,20.32ZM8.29,8V9.7h8.41V8a3.64,3.64,0,0,0-1.23-2.76,4.22,4.22,0,0,0-3-1.15,4.19,4.19,0,0,0-3,1.15A3.64,3.64,0,0,0,8.29,8Z" fill="#fff"/></svg>