<svg xmlns="http://www.w3.org/2000/svg" viewBox="0 0 25 25"><path d="M21.57,11.76a4.74,4.74,0,0,1,.31,1,5,5,0,0,1,.12,1v4.81A1.43,1.43,0,0,1,20.57,20H4.43A1.43,1.43,0,0,1,3,18.58V13.77a5,5,0,0,1,.12-1,4.74,4.74,0,0,1,.31-1L6,6.14a1.83,1.83,0,0,1,.71-.82,1.89,1.89,0,0,1,1-.33h9.5a1.89,1.89,0,0,1,1,.33,1.83,1.83,0,0,1,.71.82Zm-.52,6.82V13.77a.45.45,0,0,0-.14-.32.47.47,0,0,0-.34-.14H15.36a2.85,2.85,0,0,1-2.86,2.84A2.85,2.85,0,0,1,9.64,13.3H4.43a.47.47,0,0,0-.34.14.45.45,0,0,0-.14.32v4.81a.48.48,0,0,0,.48.48H20.57a.48.48,0,0,0,.48-.48ZM6.86,6.29,4.3,11.89a.47.47,0,0,0-.06.11l0,.11h5.92a.48.48,0,0,1,.48.48v.48a1.89,1.89,0,0,0,3.23,1.34,1.82,1.82,0,0,0,.56-1.34v-.48a.48.48,0,0,1,.48-.48h5.92l0-.11a.47.47,0,0,0-.06-.11l-2.56-5.6a.89.89,0,0,0-.36-.42,1,1,0,0,0-.53-.18H7.75a1,1,0,0,0-.53.18A.89.89,0,0,0,6.86,6.29Z" fill="#fff"/></svg>