<?xml version="1.0" encoding="iso-8859-1"?>
<!-- Generator: Adobe Illustrator 19.0.0, SVG Export Plug-In . SVG Version: 6.00 Build 0)  -->
<svg version="1.1" xmlns="http://www.w3.org/2000/svg" xmlns:xlink="http://www.w3.org/1999/xlink" x="0px" y="0px"
	 viewBox="0 0 25 25" style="enable-background:new 0 0 25 25;" xml:space="preserve">
<g id="Layer_1">
</g>
<g id="icon-action-cut">
	<path style="fill:#3598DC;" d="M19.77,15.289v3.269c0,1.001-0.355,1.857-1.066,2.568c-0.711,0.711-1.567,1.066-2.568,1.066h-10.5
		c-1.001,0-1.857-0.355-2.568-1.066C2.355,20.415,2,19.559,2,18.558v-10.5C2,7.057,2.355,6.201,3.066,5.49s1.567-1.066,2.568-1.066
		h3.218c0.109,0,0.204,0.04,0.284,0.12c0.08,0.08,0.12,0.175,0.12,0.284c0,0.227-0.109,0.362-0.328,0.404
		C8.282,5.45,7.722,5.702,7.251,5.988c-0.084,0.033-0.152,0.05-0.202,0.05H5.635c-0.555,0-1.031,0.198-1.426,0.593
		S3.616,7.502,3.616,8.057v10.5c0,0.555,0.198,1.031,0.593,1.426c0.395,0.395,0.871,0.593,1.426,0.593h10.5
		c0.555,0,1.031-0.198,1.426-0.593c0.395-0.395,0.593-0.871,0.593-1.426v-2.7c0-0.16,0.076-0.282,0.227-0.366
		c0.236-0.109,0.463-0.265,0.681-0.467c0.135-0.135,0.282-0.168,0.442-0.101C19.681,14.999,19.77,15.121,19.77,15.289L19.77,15.289z
		 M22.76,9.03l-4.846,4.846c-0.151,0.16-0.341,0.24-0.568,0.24c-0.101,0-0.206-0.021-0.315-0.063
		c-0.328-0.143-0.492-0.392-0.492-0.745v-2.423H14.52c-2.718,0-4.56,0.551-5.527,1.653C7.991,13.69,7.68,15.68,8.059,18.507
		C8.084,18.7,8,18.843,7.807,18.936c-0.067,0.017-0.118,0.025-0.151,0.025c-0.135,0-0.244-0.055-0.328-0.164
		c-0.084-0.118-0.173-0.248-0.265-0.392c-0.092-0.143-0.258-0.431-0.498-0.864c-0.24-0.433-0.448-0.852-0.625-1.256
		c-0.177-0.404-0.339-0.884-0.486-1.439c-0.147-0.555-0.221-1.068-0.221-1.54c0-0.412,0.015-0.795,0.045-1.148
		c0.03-0.353,0.089-0.732,0.177-1.136c0.088-0.404,0.206-0.774,0.353-1.11c0.147-0.336,0.345-0.679,0.593-1.028
		c0.248-0.349,0.536-0.66,0.864-0.934C7.592,7.677,7.99,7.418,8.456,7.174c0.466-0.244,0.99-0.448,1.571-0.612
		s1.252-0.292,2.013-0.385c0.761-0.093,1.588-0.139,2.48-0.139h2.019V3.615c0-0.353,0.164-0.602,0.492-0.745
		c0.109-0.042,0.214-0.063,0.315-0.063c0.219,0,0.408,0.08,0.568,0.24l4.846,4.846C22.92,8.052,23,8.242,23,8.461
		C23,8.68,22.92,8.869,22.76,9.03L22.76,9.03z"/>
</g>
</svg>
