<?xml version="1.0" encoding="iso-8859-1"?>
<!-- Generator: Adobe Illustrator 19.0.0, SVG Export Plug-In . SVG Version: 6.00 Build 0)  -->
<svg version="1.1" xmlns="http://www.w3.org/2000/svg" xmlns:xlink="http://www.w3.org/1999/xlink" x="0px" y="0px"
	 viewBox="0 0 25 25" style="enable-background:new 0 0 25 25;" xml:space="preserve">
<g id="Layer_1">
</g>
<g id="icon-action-css">
	<path style="fill:#E87E04;" d="M20.622,9.512h-0.504V7.079c0-0.015-0.002-0.03-0.004-0.046c-0.001-0.097-0.032-0.191-0.098-0.267
		l-4.049-4.625c-0.001-0.001-0.002-0.002-0.003-0.003c-0.024-0.027-0.052-0.049-0.082-0.069c-0.009-0.006-0.018-0.011-0.027-0.016
		c-0.026-0.014-0.053-0.026-0.081-0.034c-0.008-0.002-0.014-0.005-0.022-0.007C15.721,2.005,15.689,2,15.657,2H5.706
		C5.251,2,4.882,2.37,4.882,2.824v6.688H4.378c-0.65,0-1.177,0.527-1.177,1.177v6.121c0,0.65,0.527,1.177,1.177,1.177h0.504v4.19
		C4.882,22.63,5.251,23,5.706,23h13.588c0.454,0,0.824-0.37,0.824-0.824v-4.19h0.504c0.65,0,1.177-0.527,1.177-1.177v-6.121
		C21.799,10.038,21.272,9.512,20.622,9.512z M6.5,3.5h8.745v3.537c0,0.227,0.184,0.412,0.412,0.412H18.5v2.063h-12V3.5z
		 M12.05,14.131c-1.022-0.356-1.688-0.921-1.688-1.815c0-1.05,0.876-1.853,2.327-1.853c0.693,0,1.204,0.146,1.569,0.31l-0.31,1.122
		c-0.247-0.119-0.684-0.292-1.287-0.292c-0.602,0-0.894,0.274-0.894,0.593c0,0.392,0.347,0.566,1.141,0.867
		c1.086,0.401,1.596,0.967,1.596,1.834c0,1.031-0.793,1.907-2.482,1.907c-0.702,0-1.396-0.183-1.742-0.374l0.283-1.149
		c0.374,0.191,0.949,0.383,1.542,0.383c0.639,0,0.976-0.264,0.976-0.665C13.081,14.615,12.789,14.396,12.05,14.131z M4.805,13.73
		c0-2.099,1.497-3.266,3.358-3.266c0.721,0,1.268,0.146,1.514,0.274l-0.283,1.104c-0.283-0.118-0.675-0.227-1.168-0.227
		c-1.104,0-1.961,0.666-1.961,2.034c0,1.232,0.73,2.007,1.971,2.007c0.42,0,0.885-0.091,1.159-0.201l0.21,1.086
		c-0.255,0.128-0.83,0.265-1.578,0.265C5.9,16.804,4.805,15.481,4.805,13.73z M18.5,21.5h-12v-3.513h12V21.5z M16.95,16.804
		c-0.702,0-1.396-0.183-1.743-0.374l0.283-1.149c0.374,0.191,0.949,0.383,1.541,0.383c0.639,0,0.976-0.264,0.976-0.665
		c0-0.383-0.292-0.602-1.031-0.867c-1.022-0.356-1.688-0.921-1.688-1.815c0-1.05,0.876-1.853,2.327-1.853
		c0.693,0,1.204,0.146,1.569,0.31l-0.31,1.122c-0.246-0.119-0.684-0.292-1.286-0.292s-0.894,0.274-0.894,0.593
		c0,0.392,0.347,0.566,1.14,0.867c1.086,0.401,1.597,0.967,1.597,1.834C19.431,15.929,18.637,16.804,16.95,16.804z"/>
</g>
</svg>
