<?xml version="1.0" encoding="iso-8859-1"?>
<!-- Generator: Adobe Illustrator 19.0.0, SVG Export Plug-In . SVG Version: 6.00 Build 0)  -->
<svg version="1.1" xmlns="http://www.w3.org/2000/svg" xmlns:xlink="http://www.w3.org/1999/xlink" x="0px" y="0px"
	 viewBox="0 0 25 25" style="enable-background:new 0 0 25 25;" xml:space="preserve">
<g id="Layer_1">
</g>
<g id="icon-action-invisible">
	<path style="fill:#E7505A;" d="M2,12.5c0-0.297,0.078-0.567,0.234-0.809c1.195-1.836,2.68-3.285,4.453-4.348S10.399,5.75,12.5,5.75
		c0.695,0,1.398,0.067,2.109,0.2l0.633-1.137c0.078-0.125,0.188-0.188,0.328-0.188c0.039,0,0.109,0.023,0.211,0.07
		c0.102,0.047,0.223,0.107,0.364,0.182c0.141,0.074,0.27,0.147,0.387,0.217c0.117,0.07,0.24,0.142,0.369,0.217
		c0.13,0.074,0.206,0.119,0.228,0.135c0.125,0.078,0.188,0.184,0.188,0.316c0,0.055-0.004,0.09-0.012,0.106
		c-0.82,1.469-2.051,3.68-3.692,6.633s-2.875,5.168-3.703,6.645l-0.574,1.043c-0.078,0.125-0.188,0.188-0.328,0.188
		c-0.094,0-0.617-0.273-1.57-0.82c-0.125-0.078-0.188-0.188-0.188-0.328c0-0.094,0.172-0.434,0.516-1.02
		c-1.117-0.508-2.147-1.184-3.088-2.027c-0.941-0.844-1.756-1.801-2.443-2.871C2.078,13.066,2,12.796,2,12.5L2,12.5z M3.5,12.5
		c1.305,2.016,2.973,3.48,5.004,4.394l0.914-1.652c-0.68-0.492-1.211-1.113-1.594-1.863C7.442,12.629,7.25,11.836,7.25,11
		c0-0.945,0.238-1.824,0.715-2.637C6.176,9.277,4.687,10.656,3.5,12.5L3.5,12.5z M8.937,11c0,0.156,0.055,0.289,0.164,0.398
		c0.109,0.109,0.242,0.164,0.398,0.164s0.289-0.055,0.398-0.164c0.109-0.109,0.164-0.242,0.164-0.398
		c0-0.672,0.238-1.246,0.715-1.723c0.476-0.476,1.051-0.715,1.723-0.715c0.156,0,0.289-0.055,0.398-0.164
		C13.007,8.289,13.062,8.156,13.062,8s-0.055-0.289-0.164-0.398c-0.109-0.109-0.242-0.164-0.398-0.164
		c-0.977,0-1.814,0.35-2.514,1.049C9.287,9.186,8.937,10.024,8.937,11z M12.5,19.251l0.867-1.547c1.656-0.14,3.19-0.676,4.6-1.605
		c1.41-0.93,2.588-2.129,3.533-3.598c-0.899-1.398-2-2.547-3.305-3.445l0.738-1.313c0.742,0.5,1.455,1.098,2.139,1.793
		s1.248,1.414,1.693,2.157C22.922,11.958,23,12.228,23,12.501c0,0.273-0.078,0.543-0.234,0.809c-0.305,0.5-0.73,1.066-1.277,1.699
		c-1.172,1.344-2.529,2.387-4.072,3.129S14.235,19.251,12.5,19.251z M14.375,15.898l3.281-5.883c0.063,0.352,0.094,0.68,0.094,0.984
		c0,1.086-0.309,2.076-0.926,2.971C16.207,14.866,15.391,15.508,14.375,15.898L14.375,15.898z"/>
</g>
</svg>
