<?xml version="1.0" encoding="iso-8859-1"?>
<!-- Generator: Adobe Illustrator 19.0.0, SVG Export Plug-In . SVG Version: 6.00 Build 0)  -->
<svg version="1.1" xmlns="http://www.w3.org/2000/svg" xmlns:xlink="http://www.w3.org/1999/xlink" x="0px" y="0px"
	 viewBox="0 0 25 25" style="enable-background:new 0 0 25 25;" xml:space="preserve">
<g id="Layer_1">
</g>
<g id="icon-nav-files">
	<path style="fill:#FFFFFF;" d="M21.907,12.444c0.012,0.235-0.093,0.402-0.315,0.501l-8.906,4.824
		c-0.1,0.05-0.198,0.074-0.297,0.074c-0.1,0-0.186-0.024-0.26-0.074l-8.832-4.824C3.099,12.847,3,12.673,3,12.426
		c0-0.247,0.111-0.42,0.334-0.52l1.855-0.928l1.262,0.705l-1.596,0.779l7.533,4.119l7.645-4.119l-1.484-0.742l1.262-0.705
		l1.781,0.891C21.789,12.03,21.895,12.209,21.907,12.444z M21.907,16.6c0.012,0.235-0.093,0.415-0.315,0.538l-8.906,4.787
		C12.586,21.975,12.487,22,12.389,22c-0.1,0-0.186-0.025-0.26-0.074l-8.832-4.824C3.099,17.003,3,16.829,3,16.582
		c0-0.247,0.111-0.42,0.334-0.52l1.744-0.816l1.262,0.705l-1.484,0.668l7.533,4.119l7.645-4.119l-1.41-0.668l1.299-0.705l1.67,0.816
		C21.789,16.186,21.895,16.366,21.907,16.6z M3.093,8.065C3.105,7.83,3.21,7.663,3.408,7.564l8.906-4.49
		c0.197-0.099,0.383-0.099,0.557,0l8.795,4.49C21.889,7.663,22,7.83,22,8.065c0,0.235-0.1,0.415-0.297,0.538l-8.906,4.787
		c-0.1,0.05-0.198,0.074-0.297,0.074c-0.1,0-0.198-0.024-0.297-0.074L3.408,8.603C3.186,8.48,3.08,8.301,3.093,8.065z M4.967,8.084
		l7.533,4.119l7.645-4.119l-7.533-3.822L4.967,8.084z"/>
</g>
</svg>
