<?xml version="1.0" encoding="iso-8859-1"?>
<!-- Generator: Adobe Illustrator 19.0.0, SVG Export Plug-In . SVG Version: 6.00 Build 0)  -->
<svg version="1.1" xmlns="http://www.w3.org/2000/svg" xmlns:xlink="http://www.w3.org/1999/xlink" x="0px" y="0px"
	 viewBox="0 0 25 25" style="enable-background:new 0 0 25 25;" xml:space="preserve">
<g id="Layer_1">
</g>
<g id="icon-top_x5F_menu-alerts">
	<g>
		<path style="fill:#A4AEBB;" d="M12.485,23.78c-1.732,0-3.229-1.293-3.481-3.007l-0.015-0.103H2.94
			c-0.276,0-0.533-0.173-0.639-0.431c-0.106-0.271-0.042-0.573,0.163-0.767c0.022-0.024,0.393-0.441,0.778-1.364
			c0.359-0.87,0.787-2.379,0.787-4.628c0-2.495,0.543-5.914,3.133-8.034c0.937-0.773,1.874-1.157,2.495-1.341L9.74,4.081
			l0.002-0.087c0.01-0.428,0.109-1.245,0.667-1.902c0.344-0.397,0.989-0.871,2.104-0.871c1.146,0,1.784,0.473,2.117,0.871
			c0.396,0.469,0.616,1.097,0.653,1.865l0.004,0.084l0.081,0.024c0.622,0.189,1.561,0.58,2.495,1.368
			c1.417,1.202,3.106,3.578,3.106,8.076c0,2.3,0.42,3.808,0.772,4.669c0.333,0.826,0.683,1.2,0.749,1.267
			c0.243,0.229,0.31,0.51,0.218,0.775c-0.094,0.234-0.309,0.404-0.559,0.438l-0.105,0.013h-6.062l-0.016,0.103
			C15.714,22.487,14.217,23.78,12.485,23.78z M10.448,20.824c0.266,0.918,1.109,1.56,2.051,1.56c0.942,0,1.786-0.642,2.052-1.56
			l0.045-0.153h-4.192L10.448,20.824z M12.513,2.575c-0.482,0-0.834,0.129-1.047,0.385C10.989,3.507,11.138,4.491,11.14,4.5
			c0.023,0.199-0.025,0.385-0.14,0.535c-0.112,0.146-0.287,0.244-0.479,0.268c-0.523,0.075-5.096,0.939-5.096,8.178
			c0,2.175-0.363,4.071-1.08,5.637l-0.078,0.17h16.471l-0.085-0.173c-0.479-0.982-1.051-2.754-1.051-5.606
			c0-3.205-0.877-5.566-2.607-7.019c-1.256-1.06-2.507-1.229-2.518-1.229c-0.174-0.021-0.34-0.119-0.465-0.28
			c-0.113-0.148-0.161-0.348-0.126-0.532c0.052-0.31,0.042-1.079-0.314-1.491C13.458,2.841,13.2,2.575,12.513,2.575z"/>
	</g>
</g>
</svg>
