<?xml version="1.0" encoding="iso-8859-1"?>
<!-- Generator: Adobe Illustrator 19.0.0, SVG Export Plug-In . SVG Version: 6.00 Build 0)  -->
<svg version="1.1" xmlns="http://www.w3.org/2000/svg" xmlns:xlink="http://www.w3.org/1999/xlink" x="0px" y="0px"
	 viewBox="0 0 25 25" style="enable-background:new 0 0 25 25;" xml:space="preserve">
<g id="Layer_1">
</g>
<g id="icon-nav-user_x5F_group">
	<path style="fill:#FFFFFF;" d="M16.953,18.549c0.074,0.025,0.16,0.068,0.26,0.13c0.099,0.062,0.191,0.13,0.278,0.204
		c0.086,0.074,0.167,0.167,0.241,0.278s0.111,0.229,0.111,0.353v1.484c0,0.272-0.1,0.507-0.297,0.705
		C17.349,21.901,17.113,22,16.842,22H4.002c-0.272,0-0.508-0.099-0.705-0.297C3.099,21.505,3,21.27,3,20.998v-1.484
		c0-0.371,0.334-0.705,1.002-1.002l3.822-2.078c-0.619-0.52-1.083-1.218-1.392-2.097c-0.31-0.878-0.464-1.664-0.464-2.356V9.457
		c0-0.816,0.47-1.602,1.41-2.356c0.94-0.754,1.96-1.132,3.062-1.132c1.101,0,2.115,0.371,3.043,1.113s1.392,1.534,1.392,2.375v2.523
		c0,0.767-0.143,1.577-0.427,2.431c-0.285,0.854-0.736,1.528-1.354,2.022l3.748,2.078L16.953,18.549z M16.656,19.736
		c-0.1-0.049-0.186-0.099-0.26-0.148c-0.05-0.024-0.087-0.037-0.111-0.037l-3.748-2.078c-0.371-0.198-0.575-0.513-0.612-0.946
		c-0.037-0.433,0.105-0.773,0.427-1.021c0.47-0.371,0.81-0.903,1.021-1.596c0.21-0.692,0.315-1.336,0.315-1.93V9.457
		c0-0.47-0.341-0.971-1.021-1.503c-0.681-0.532-1.417-0.798-2.208-0.798c-0.792,0-1.54,0.272-2.245,0.816
		C7.509,8.517,7.156,9.012,7.156,9.457v2.523c0,0.569,0.123,1.206,0.371,1.911c0.247,0.705,0.594,1.243,1.039,1.614
		c0.346,0.248,0.501,0.588,0.464,1.021c-0.037,0.433-0.241,0.749-0.612,0.946l-3.859,2.078c-0.025,0-0.05,0.013-0.074,0.037
		c-0.1,0.05-0.198,0.111-0.297,0.186v1.039h12.469V19.736z M21.258,15.654c0.148,0.074,0.309,0.198,0.482,0.371
		c0.173,0.173,0.26,0.347,0.26,0.52v1.484c0,0.272-0.1,0.507-0.297,0.705c-0.198,0.198-0.434,0.297-0.705,0.297h-1.967
		c-0.174-0.594-0.384-0.989-0.631-1.188h2.412v-1.039c-0.1-0.074-0.186-0.136-0.26-0.186c-0.05,0-0.087-0.012-0.111-0.037
		l-3.822-2.078c-0.371-0.198-0.575-0.507-0.612-0.928c-0.037-0.42,0.117-0.767,0.464-1.039c0.47-0.371,0.816-0.903,1.039-1.596
		c0.223-0.692,0.334-1.336,0.334-1.93V6.525c0-0.47-0.347-0.977-1.039-1.521c-0.693-0.544-1.447-0.816-2.264-0.816
		c-0.842,0-1.596,0.26-2.264,0.779c-0.223-0.074-0.718-0.136-1.484-0.186c0.445-0.52,1.008-0.946,1.688-1.28
		C13.161,3.167,13.848,3,14.541,3c1.113,0,2.14,0.377,3.08,1.132c0.94,0.755,1.41,1.553,1.41,2.394v2.486
		c0,0.767-0.148,1.577-0.445,2.431s-0.755,1.528-1.373,2.022l3.785,2.078L21.258,15.654z"/>
</g>
</svg>
