<svg xmlns="http://www.w3.org/2000/svg" viewBox="0 0 25 25"><path d="M22.86,12.16a.5.5,0,0,1,0,.7A5.3,5.3,0,0,1,21.7,14a20.78,20.78,0,0,1-1.94,1.55,13,13,0,0,1-7.26,2.71,13,13,0,0,1-7.26-2.71A20.78,20.78,0,0,1,3.3,14a5.3,5.3,0,0,1-1.16-1.15.5.5,0,0,1,0-.7A5.3,5.3,0,0,1,3.3,11,20.78,20.78,0,0,1,5.24,9.45,12.75,12.75,0,0,1,12.5,6.73a12.75,12.75,0,0,1,7.26,2.73A20.78,20.78,0,0,1,21.7,11a5.3,5.3,0,0,1,1.16,1.15C23,12.26,22.84,12.13,22.86,12.16Zm-3.73,2.56a20.58,20.58,0,0,0,2.63-2.21,20.58,20.58,0,0,0-2.62-2.21A15.26,15.26,0,0,0,17.2,9.09a5.32,5.32,0,0,1-4.7,7.63A5.32,5.32,0,0,1,7.8,9.09,15.26,15.26,0,0,0,5.88,10.3a20.58,20.58,0,0,0-2.62,2.21,20.58,20.58,0,0,0,2.63,2.21,11.69,11.69,0,0,0,6.62,2.5,11.65,11.65,0,0,0,6.62-2.5ZM15.21,8.24a8.73,8.73,0,0,0-5.41,0,4.22,4.22,0,0,0,2.71,7.4,4.22,4.22,0,0,0,2.71-7.4C14.77,8.11,15.69,8.64,15.21,8.24Z" fill="#fff"/></svg>