<?xml version="1.0" encoding="iso-8859-1"?>
<!-- Generator: Adobe Illustrator 19.0.0, SVG Export Plug-In . SVG Version: 6.00 Build 0)  -->
<svg version="1.1" xmlns="http://www.w3.org/2000/svg" xmlns:xlink="http://www.w3.org/1999/xlink" x="0px" y="0px"
	 viewBox="0 0 25 25" style="enable-background:new 0 0 25 25;" xml:space="preserve">
<g id="Layer_1">
</g>
<g id="icon-action-new">
	<path style="fill:#26C281;" d="M22.344,9.875h-7.219V2.656C15.125,2.294,14.831,2,14.469,2h-3.938
		c-0.362,0-0.656,0.294-0.656,0.656v7.219H2.656C2.294,9.875,2,10.169,2,10.531v3.938c0,0.363,0.294,0.656,0.656,0.656h7.219v7.219
		c0,0.362,0.294,0.656,0.656,0.656h3.938c0.363,0,0.656-0.294,0.656-0.656v-7.219h7.219c0.362,0,0.656-0.294,0.656-0.656v-3.938
		C23,10.169,22.706,9.875,22.344,9.875L22.344,9.875z M22.344,9.875"/>
</g>
</svg>
