<svg xmlns="http://www.w3.org/2000/svg" viewBox="0 0 25 25"><title>icons-nav</title><path d="M22,13.72v3a1.82,1.82,0,0,1-1.23,1.71v1.33A1.22,1.22,0,0,1,19.56,21H18.35a1.22,1.22,0,0,1-1.21-1.21V18.58H7.86v1.21A1.22,1.22,0,0,1,6.65,21H5.44a1.22,1.22,0,0,1-1.21-1.21V18.46A1.82,1.82,0,0,1,3,16.75v-3a3,3,0,0,1,1.28-2.54c.27-1.65.25-3.51,1-5C6.32,4,10.52,4,12.5,4s6.18,0,7.21,2.16c.76,1.51.74,3.37,1,5A3.86,3.86,0,0,1,22,13.72Zm-1.23,3v-3c0-1.71-1.56-2.09-2.93-2.27a42,42,0,0,0-5.33-.15c-2,0-8.27-.79-8.27,2.42v3a.61.61,0,0,0,.59.62H20.17A.61.61,0,0,0,20.77,16.76Zm-13.5-.62a1.82,1.82,0,0,0,0-3.63A1.81,1.81,0,0,0,7.27,16.14Zm-.62,3.65V18.58H5.44v1.21ZM6.36,6.7c-.58,1.16-.51,2.6-.75,3.86L6,10.47a18.31,18.31,0,0,1,3.93-.38l-2-1.33a.61.61,0,0,1,.66-1l3.49,2.32c1.26,0,2.53,0,3.79,0L14,8.74c-.66-.44.06-1.41.71-1l3.51,2.51,1,.19c.13,0,0,.06.16.09-.22-1.16-.08-3.41-1.09-4.22a7.38,7.38,0,0,0-3.74-1,21.69,21.69,0,0,0-4.74.07c-.95.12-3,.35-3.47,1.32C6.19,7.05,6.55,6.34,6.36,6.7Zm.91,7a.61.61,0,0,1,0,1.21A.61.61,0,0,1,7.27,13.72Zm10.46,2.42a1.81,1.81,0,0,0,0-3.63A1.81,1.81,0,0,0,17.73,16.14Zm0-2.42a.6.6,0,0,1,0,1.21A.6.6,0,0,1,17.73,13.72Zm.62,6.07h1.21V18.58H18.35Z" fill="#fff"/></svg>