<svg version="1.1" xmlns="http://www.w3.org/2000/svg" xmlns:xlink="http://www.w3.org/1999/xlink" x="0px" y="0px"
	 viewBox="0 0 25 25" style="enable-background:new 0 0 25 25;" xml:space="preserve">
	<path fill="#333" d="M12.332,20.628c0.054,0.11,0.068,0.226,0.041,0.349c-0.028,0.123-0.096,0.212-0.205,0.267l-0.205,0.123h-0.041l-3.038,1.56
		c-0.246,0.137-0.452,0.082-0.616-0.164l-0.041-0.164c-0.164-0.274-0.11-0.479,0.164-0.616l1.683-0.862c-0.028,0-0.055,0-0.082,0
		c-1.259-0.328-2.388-0.889-3.387-1.683c-0.999-0.793-1.786-1.765-2.36-2.915c-1.149-2.217-1.342-4.502-0.575-6.855
		C4.41,7.314,5.915,5.549,8.186,4.372C8.322,4.29,8.48,4.276,8.658,4.331c0.177,0.055,0.308,0.164,0.39,0.328
		C9.24,5.015,9.143,5.303,8.761,5.521c-1.943,0.985-3.243,2.491-3.9,4.516c-0.63,2.025-0.452,3.996,0.534,5.911
		c0.493,0.958,1.17,1.786,2.032,2.484c0.862,0.698,1.813,1.184,2.853,1.457c0.054,0,0.164,0.014,0.328,0.041l-1.232-1.847
		c-0.164-0.328-0.123-0.561,0.123-0.698l0.164-0.082c0.273-0.137,0.493-0.082,0.657,0.164l1.888,2.956L12.332,20.628z
		 M21.343,15.456c-0.753,2.381-2.237,4.146-4.454,5.295c-0.11,0.028-0.205,0.041-0.287,0.041c-0.274,0-0.466-0.109-0.575-0.328
		c-0.192-0.383-0.096-0.67,0.287-0.862c1.888-0.985,3.153-2.497,3.797-4.536c0.643-2.039,0.472-4.002-0.513-5.891
		c-1.04-2.053-2.655-3.366-4.844-3.941c-0.219-0.055-0.48-0.109-0.78-0.164l1.19,1.888c0.191,0.301,0.164,0.52-0.082,0.657
		l-0.164,0.123c-0.274,0.137-0.493,0.069-0.657-0.205l-1.888-2.915V4.577L12.25,4.372c-0.055-0.109-0.069-0.226-0.041-0.349
		c0.027-0.123,0.095-0.212,0.205-0.267l0.205-0.123h0.041l3.038-1.56c0.273-0.137,0.493-0.082,0.657,0.164l0.041,0.205
		c0.164,0.246,0.095,0.452-0.205,0.616l-1.642,0.821c0.246,0.055,0.424,0.096,0.534,0.123c1.232,0.328,2.332,0.89,3.305,1.683
		c0.971,0.794,1.758,1.752,2.36,2.874C21.897,10.776,22.095,13.075,21.343,15.456z"/>
</svg>
