<svg xmlns="http://www.w3.org/2000/svg" viewBox="0 0 25 25"><path d="M4.5,20A1.51,1.51,0,0,1,3,18.49V8.5A1.51,1.51,0,0,1,4.5,7H6a2,2,0,0,0,1.35-.57l.59-.57A3.05,3.05,0,0,1,10,5h5a3.06,3.06,0,0,1,2.07.86l.59.57A2,2,0,0,0,19,7h1.5A1.51,1.51,0,0,1,22,8.5v10A1.51,1.51,0,0,1,20.5,20ZM4.14,8.14A.49.49,0,0,0,4,8.5v10A.51.51,0,0,0,4.5,19h16a.51.51,0,0,0,.51-.51V8.5A.51.51,0,0,0,20.5,8H19a3.07,3.07,0,0,1-2.05-.84l-.59-.59A2.09,2.09,0,0,0,15,6H10a2,2,0,0,0-1.35.57l-.59.59A3.15,3.15,0,0,1,6,8H4.5A.49.49,0,0,0,4.14,8.14Zm6.61,8.5a4.5,4.5,0,1,1,5.9-2.4A4.55,4.55,0,0,1,10.75,16.64ZM10,10c-3.2,3.2,1.77,8.13,5,4.94S13.21,6.84,10,10Z" fill="#fff"/></svg>