<?xml version="1.0" encoding="iso-8859-1"?>
<!-- Generator: Adobe Illustrator 19.0.0, SVG Export Plug-In . SVG Version: 6.00 Build 0)  -->
<svg version="1.1" xmlns="http://www.w3.org/2000/svg" xmlns:xlink="http://www.w3.org/1999/xlink" x="0px" y="0px"
	 viewBox="0 0 25 25" enable-background="new 0 0 25 25" xml:space="preserve">
<g id="icon-nav-folder">
	<path fill="#FFFFFF" d="M11.4,7h8.4c0.3,0,0.6,0.1,0.8,0.3C20.9,7.6,21,7.8,21,8.1v9.8c0,0.3-0.1,0.6-0.3,0.8
		c-0.2,0.2-0.5,0.3-0.8,0.3H4.1c-0.3,0-0.6-0.1-0.8-0.3C3.1,18.5,3,18.2,3,17.9V6.1c0-0.3,0.1-0.6,0.3-0.8C3.6,5.1,3.8,5,4.1,5h4.6
		L11.4,7z M8.2,6.1H4.1v11.8h15.8V8.1H11"/>
</g>
</svg>
