<svg xmlns="http://www.w3.org/2000/svg" viewBox="0 0 25 25"><path d="M18.17,21.44l-.12,0-5.54-3L7,21.4a.73.73,0,0,1-.29.06.41.41,0,0,1-.27-.1.5.5,0,0,1-.19-.23.53.53,0,0,1,0-.29l1-6.06-4-4A.73.73,0,0,1,3,10.5a.45.45,0,0,1,0-.27A.78.78,0,0,1,3.19,10a.44.44,0,0,1,.27-.12l6.06-1,2.51-5a.43.43,0,0,1,.2-.22.57.57,0,0,1,.56,0,.43.43,0,0,1,.2.22l2.51,5,6.06,1a.44.44,0,0,1,.27.12.78.78,0,0,1,.16.25.45.45,0,0,1,0,.27.73.73,0,0,1-.14.27l-4,4,1,6.06a.53.53,0,0,1,0,.29.5.5,0,0,1-.19.23.31.31,0,0,1-.13.08l-.15,0Zm-5.54-4.18.12,0L17.61,20l-.89-5.28a.51.51,0,0,1,0-.25.52.52,0,0,1,.12-.21l3.5-3.5-5.32-.89a.55.55,0,0,1-.23-.09.57.57,0,0,1-.16-.18L12.5,5.23,10.34,9.57a.57.57,0,0,1-.16.18.55.55,0,0,1-.23.09l-5.32.89,3.5,3.5a.52.52,0,0,1,.12.21.51.51,0,0,1,0,.25L7.39,20l4.86-2.66.12,0,.12,0Z" fill="#fff"/></svg>