<?xml version="1.0" encoding="iso-8859-1"?>
<!-- Generator: Adobe Illustrator 19.0.0, SVG Export Plug-In . SVG Version: 6.00 Build 0)  -->
<svg version="1.1" xmlns="http://www.w3.org/2000/svg" xmlns:xlink="http://www.w3.org/1999/xlink" x="0px" y="0px"
	 viewBox="0 0 25 25" style="enable-background:new 0 0 25 25;" xml:space="preserve">
<g id="Layer_1">
</g>
<g id="icon-action-show">
	<path style="display:none;fill:#3598DC;" d="M23,12.5c0,2.899-1.025,5.373-3.076,7.424S15.398,23,12.5,23
		c-2.899,0-5.373-1.025-7.424-3.076S2,15.399,2,12.5c0-2.898,1.025-5.373,3.076-7.424S9.601,2,12.5,2
		c2.898,0,5.373,1.025,7.424,3.076S23,9.602,23,12.5z M21.688,12.5c0-2.543-0.896-4.71-2.687-6.501
		c-1.792-1.791-3.958-2.687-6.501-2.687S7.79,4.208,5.999,5.999C4.207,7.79,3.312,9.957,3.312,12.5s0.895,4.717,2.687,6.521
		c1.791,1.805,3.958,2.707,6.501,2.707s4.709-0.902,6.501-2.707C20.792,17.217,21.688,15.043,21.688,12.5z M14.284,17.278
		c0.123,0.123,0.185,0.281,0.185,0.472c0,0.192-0.062,0.349-0.185,0.472s-0.281,0.185-0.472,0.185h-2.625
		c-0.192,0-0.349-0.062-0.472-0.185s-0.185-0.28-0.185-0.472c0-0.191,0.062-0.349,0.185-0.472s0.28-0.185,0.472-0.185h0.656v-5.25
		h-0.656c-0.192,0-0.349-0.062-0.472-0.185s-0.185-0.28-0.185-0.472c0-0.191,0.062-0.349,0.185-0.472s0.28-0.185,0.472-0.185H12.5
		c0.191,0,0.349,0.062,0.472,0.185s0.185,0.281,0.185,0.472v0.041v5.865h0.656C14.004,17.094,14.161,17.155,14.284,17.278z
		 M11.188,7.906c0-0.355,0.13-0.663,0.39-0.923c0.259-0.26,0.567-0.39,0.923-0.39c0.355,0,0.663,0.13,0.923,0.39
		c0.259,0.26,0.39,0.568,0.39,0.923c0,0.356-0.131,0.663-0.39,0.923c-0.26,0.26-0.568,0.39-0.923,0.39
		c-0.356,0-0.664-0.13-0.923-0.39C11.317,8.569,11.188,8.262,11.188,7.906z"/>
	<path style="fill-rule:evenodd;clip-rule:evenodd;fill:#3598DC;" d="M23,12.5C23,6.702,18.297,2,12.5,2C6.702,2,2,6.702,2,12.5
		C2,18.297,6.702,23,12.5,23C18.297,23,23,18.297,23,12.5L23,12.5z M12.737,3.934c0.877,0,1.592,0.715,1.592,1.592
		s-0.715,1.592-1.592,1.592c-0.877,0-1.592-0.715-1.592-1.592S11.86,3.934,12.737,3.934L12.737,3.934z M9.237,18.575h1.908V9.667
		H9.237V8.392h5.092v10.183h1.908v1.275h-7V18.575z M10.114,17.747"/>
</g>
</svg>
