<svg xmlns="http://www.w3.org/2000/svg" viewBox="0 0 25 25"><path d="M21.49,7a.51.51,0,0,1,.51.51v3a.51.51,0,0,1-.51.51H21V20.5A1.51,1.51,0,0,1,19.5,22H5.5A1.51,1.51,0,0,1,4,20.5V11H3.51A.51.51,0,0,1,3,10.5v-3A.51.51,0,0,1,3.51,7h3A2.54,2.54,0,0,1,7.55,3.19c1.56-.64,3.09.44,4.08,1.57A7,7,0,0,1,12.49,6a9,9,0,0,1,.88-1.25c1-1.13,2.53-2.22,4.08-1.57A2.54,2.54,0,0,1,18.5,7ZM4,8v2h6V8ZM5,20.5A.51.51,0,0,0,5.5,21H10V11H5Zm2-15A1.51,1.51,0,0,0,8.51,7h3.38a5.53,5.53,0,0,0-1-1.58A3.56,3.56,0,0,0,8.64,4,1.51,1.51,0,0,0,7,5.5ZM14,21V8H11V21Zm.14-15.58a5.53,5.53,0,0,0-1,1.58h3.38a1.5,1.5,0,0,0,.95-2.64c-1.13-.92-2.56.19-3.31,1.06C13.88,5.69,14.52,5,14.13,5.42ZM21,10V8H15v2ZM20,20.5V11H15V21H19.5A.5.5,0,0,0,20,20.5Z" fill="#fff"/></svg>