<?xml version="1.0" encoding="iso-8859-1"?>
<!-- Generator: Adobe Illustrator 19.0.0, SVG Export Plug-In . SVG Version: 6.00 Build 0)  -->
<svg version="1.1" xmlns="http://www.w3.org/2000/svg" xmlns:xlink="http://www.w3.org/1999/xlink" x="0px" y="0px"
	 viewBox="0 0 25 25" style="enable-background:new 0 0 25 25;" xml:space="preserve">
<g id="icon-nav-member">
	<path style="fill:#FFFFFF;" d="M17.844,7.156v2.969c0,0.866-0.18,1.812-0.538,2.839c-0.359,1.027-0.909,1.837-1.651,2.431
		l5.158,2.449l0.297,0.148c0.197,0.074,0.396,0.21,0.594,0.408C21.9,18.599,22,18.809,22,19.031v1.781
		c0,0.321-0.118,0.6-0.353,0.835C21.412,21.882,21.134,22,20.812,22H4.188c-0.322,0-0.6-0.118-0.835-0.353
		C3.117,21.412,3,21.134,3,20.812v-1.781c0-0.198,0.111-0.402,0.334-0.612c0.223-0.21,0.396-0.353,0.52-0.427
		c0.123-0.074,0.234-0.124,0.334-0.148l5.195-2.486c-0.742-0.594-1.299-1.41-1.67-2.449s-0.557-1.967-0.557-2.783V7.156
		c0-0.989,0.563-1.93,1.688-2.82C9.97,3.445,11.183,3,12.481,3s2.517,0.445,3.655,1.336C17.274,5.227,17.844,6.167,17.844,7.156z
		 M9.698,5.189C8.795,5.857,8.344,6.513,8.344,7.156v2.969c0,0.668,0.16,1.441,0.482,2.319c0.321,0.878,0.767,1.54,1.336,1.985
		c0.321,0.297,0.457,0.662,0.408,1.095c-0.05,0.433-0.272,0.736-0.668,0.909L4.67,18.92c-0.322,0.148-0.482,0.371-0.482,0.668v1.225
		h16.625v-1.188c0-0.371-0.161-0.606-0.482-0.705h-0.037l-5.158-2.449c-0.396-0.198-0.619-0.513-0.668-0.946
		c-0.05-0.433,0.099-0.785,0.445-1.058c0.568-0.47,1.002-1.138,1.299-2.004c0.297-0.866,0.445-1.645,0.445-2.338V7.156
		c0-0.643-0.445-1.299-1.336-1.967s-1.831-1.002-2.82-1.002C11.535,4.188,10.601,4.521,9.698,5.189z"/>
</g>
</svg>
