<svg xmlns="http://www.w3.org/2000/svg" viewBox="0 0 25 25"><path d="M4.15,21.32A.49.49,0,0,1,4,21V6a.47.47,0,0,1,.15-.34.49.49,0,0,1,.36-.15A.5.5,0,0,1,5,6V21a.49.49,0,0,1-.15.36.47.47,0,0,1-.34.15A.49.49,0,0,1,4.15,21.32Zm2.2-8.84a.29.29,0,0,1-.14-.08.45.45,0,0,1-.2-.32.48.48,0,0,1,.11-.38s.4-.41,1.13-1.12A3.79,3.79,0,0,1,10,9.52a5.83,5.83,0,0,1,2.17.36,17.76,17.76,0,0,1,1.64.75q.66.35,1.28.61a3.58,3.58,0,0,0,1.42.26A3.37,3.37,0,0,0,18,11.16a5.46,5.46,0,0,0,1.29-.89,7.62,7.62,0,0,0,1-1.2,13.49,13.49,0,0,0,.79-1.25,6.25,6.25,0,0,1-1.19.5,4.89,4.89,0,0,1-1.44.2,4.48,4.48,0,0,1-2.64-.69,13.35,13.35,0,0,1-1.72-1.43,10.7,10.7,0,0,0-1.52-1.3,3.66,3.66,0,0,0-2.13-.54,3.74,3.74,0,0,0-2.63.88q-1,.88-1,.9a.54.54,0,0,1-.34.18.47.47,0,0,1-.36-.09A.45.45,0,0,1,6,6.11a.48.48,0,0,1,.11-.38,4.81,4.81,0,0,1,.33-.38,6.06,6.06,0,0,1,.87-.75,6.38,6.38,0,0,1,1.37-.74,4.79,4.79,0,0,1,1.83-.33,4.39,4.39,0,0,1,2.63.7,15.7,15.7,0,0,1,1.73,1.44A12,12,0,0,0,16.38,7a3.62,3.62,0,0,0,2.13.55,3.7,3.7,0,0,0,2.62-.88l1-.9a.58.58,0,0,1,.29-.18.4.4,0,0,1,.33,0,.47.47,0,0,1,.25.58l-.41,1a12.34,12.34,0,0,1-1.15,2.1,12.18,12.18,0,0,1-1,1.23,6.87,6.87,0,0,1-1,.94,5,5,0,0,1-1.42.78,4.63,4.63,0,0,1-1.5.25,4.49,4.49,0,0,1-1.73-.31,15.39,15.39,0,0,1-1.43-.68q-.72-.37-1.48-.68A4.91,4.91,0,0,0,10,10.52a3,3,0,0,0-2.19.88q-.9.88-.9.9a.5.5,0,0,1-.19.15.54.54,0,0,1-.22,0Z" fill="#fff"/></svg>