<svg xmlns="http://www.w3.org/2000/svg" viewBox="0 0 300 300">
  <path d="M-14.18,298c-.16,2.87-.18,5.6,1.18,7,15.14,15.14,38.87,8.51,60.79,8.3l103.3-157.47Z" fill="#21262a" fill-rule="evenodd"/>
  <path d="M151.12,155.82,99.23,312h52.4Z" fill="#21262a" fill-rule="evenodd"/>
  <path d="M151.09,155.82,192.35,312h38.53Z" fill="#21262a" fill-rule="evenodd"/>
  <path d="M319.84,204,151.09,155.82l166.24,149.5C321.62,271.95,319.67,238,319.84,204Z" fill="#21262a" fill-rule="evenodd"/>
  <path d="M319,78.45,151.09,155.82l171.15-9.55C319,123.92,318.91,101.22,319,78.45Z" fill="#21262a" fill-rule="evenodd"/>
  <path d="M223.32-17.7,151.09,155.82l168.4-173.1C287.27-19.81,255.59-16.71,223.32-17.7Z" fill="#21262a" fill-rule="evenodd"/>
  <path d="M148.19-22.62C117.9-21.17,87.61-21,57.32-21l93.77,176.82Z" fill="#21262a" fill-rule="evenodd"/>
  <path d="M-18.82,26.55c.13,23.95-1.76,47.46-4,71.38l173.87,57.89Z" fill="#21262a" fill-rule="evenodd"/>
  <path d="M-24,139v35.17l175.09-18.39Z" fill="#21262a" fill-rule="evenodd"/>
  <path d="M-19.84,211.39c.33,16.92-.92,34.25,1.3,50.81L151.09,155.82Z" fill="#21262a" fill-rule="evenodd"/>
</svg>
