<svg xmlns="http://www.w3.org/2000/svg" viewBox="0 0 500 80"><path d="M42.42,71.74a4.73,4.73,0,0,1-1.14-.14h0l-27.9-7.1a4.75,4.75,0,0,1-2.91-2.13,4.65,4.65,0,0,1-.56-3.59L17,30.87a4.73,4.73,0,0,1,5.72-3.47l27.91,7.1a4.74,4.74,0,0,1,3.47,5.72L47,68.08A4.48,4.48,0,0,1,45,71,4.8,4.8,0,0,1,42.42,71.74Zm-.29-3.53a1.27,1.27,0,0,0,1-.17,1,1,0,0,0,.47-.66l0-.11,7.1-27.9a1.17,1.17,0,0,0-.14-.9,1.28,1.28,0,0,0-.78-.57L21.87,30.8a1.18,1.18,0,0,0-.9.14,1.28,1.28,0,0,0-.57.78L13.3,59.63a1.17,1.17,0,0,0,.14.9,1.27,1.27,0,0,0,.78.57Z" fill="#c53a3f"/><circle cx="24.6" cy="37.5" r="3.7" fill="#c53a3f"/><circle cx="44.2" cy="42.4" r="3.7" fill="#c53a3f"/><circle cx="20" cy="56.8" r="3.7" fill="#c53a3f"/><circle cx="39.3" cy="61.7" r="3.7" fill="#c53a3f"/><path d="M55,57.12a7.07,7.07,0,0,1-2.12-.39l-.45-.13.76-3.42c.22,0,.46.12.71.2.82.25,1.22.33,1.64.09L80.2,38.7A1.29,1.29,0,0,0,80.58,37L65.9,12.29a1.29,1.29,0,0,0-1.73-.38L39.58,26.55c-.47.38-.56.9-.64,1.7a7,7,0,0,1-.14.87l-3.4-.85a3.87,3.87,0,0,0,.06-.42,5.49,5.49,0,0,1,2.11-4.17l.14-.09L62.4,8.9a4.8,4.8,0,0,1,6.51,1.64L83.6,35.21A4.81,4.81,0,0,1,82,41.72L57.3,56.5A4.57,4.57,0,0,1,55,57.12Z" fill="#c53a3f"/><circle cx="58.38" cy="32.53" r="3.7" transform="translate(-5.9 50.81) rotate(-45)" fill="#c53a3f"/><path d="M121.3,40h5.8V50.2a20.75,20.75,0,0,1-10.7,3.3c-7.9,0-13.8-5.7-13.8-13.2s6.1-13.1,14.2-13.1A16.92,16.92,0,0,1,127.4,31l-3.8,4.7a10.56,10.56,0,0,0-6.8-2.8,7.18,7.18,0,0,0-7.3,7.4,7.26,7.26,0,0,0,7.4,7.4,10.46,10.46,0,0,0,4.5-1.2V40Z" fill="#f5f5f5"/><path d="M148.8,48.6H137.6l-1.8,4.6h-6.9L140,27.3h6.9l10.8,25.8h-7.2Zm-2-5.2-3.5-9.2-3.6,9.2Z" fill="#f5f5f5"/><path d="M167.4,27.3l6.8,15.1L181,27.3h7.4V53.1h-6V36.8l-6,13.8H172l-6-13.8V53.1h-6V27.3Z" fill="#f5f5f5"/><path d="M215.3,33.9a5.65,5.65,0,0,1-4.5,5.6,6.37,6.37,0,0,1,5.3,6.5c0,4.4-3.9,7.2-9.9,7.2H193.5V27.3h12.3C211.6,27.3,215.3,29.9,215.3,33.9ZM208.4,35c0-1.5-1.2-2.4-3-2.4h-5.2v5h5.2C207.2,37.6,208.4,36.6,208.4,35Zm.8,10.1c0-1.6-1.5-2.6-3.8-2.6h-5.2v5.4h5.2C207.7,47.9,209.2,46.9,209.2,45.1Z" fill="#f5f5f5"/><path d="M226.6,27.3V47.4h10.9v5.7H219.8V27.3Z" fill="#f5f5f5"/><path d="M247.3,27.3V53.1h-6.7V27.3Z" fill="#f5f5f5"/><path d="M258.2,27.3l11.7,15.5V27.3h6.3V53.1h-5.9L258.6,37.6V53.1h-6.3V27.3Z" fill="#f5f5f5"/><path d="M298.3,40h5.8V50.2a20.75,20.75,0,0,1-10.7,3.3c-7.9,0-13.8-5.7-13.8-13.2s6.1-13.1,14.2-13.1A16.92,16.92,0,0,1,304.4,31l-3.8,4.7a10.56,10.56,0,0,0-6.8-2.8,7.18,7.18,0,0,0-7.3,7.4,7.26,7.26,0,0,0,7.4,7.4,10.46,10.46,0,0,0,4.5-1.2V40Z" fill="#f5f5f5"/><path d="M334.2,48.6H323l-1.8,4.6h-6.9l11.1-25.8h6.9l10.8,25.8H336Zm-2-5.2-3.5-9.2-3.6,9.2Z" fill="#f5f5f5"/><path d="M370.3,40.2c0,7.7-5.6,12.9-14,12.9H345.4V27.3h11.1C364.7,27.3,370.3,32.6,370.3,40.2Zm-6.9.1c0-4.5-2.9-7.5-7-7.5h-4.2V47.7h4.6C360.7,47.7,363.4,44.7,363.4,40.3Z" fill="#f5f5f5"/><path d="M378,27.3,384.4,46l6.5-18.7h6.9L387.7,53.1h-7l-10-25.8Z" fill="#f5f5f5"/><path d="M407,27.3V53.1h-6.7V27.3Z" fill="#f5f5f5"/><path d="M421.4,32.5c-1.6,0-2.7.6-2.7,1.8,0,4.3,13.6,1.8,13.6,11.1,0,5.3-4.6,7.9-10.4,7.9A19.68,19.68,0,0,1,410,49.2l2.6-5.3a16.31,16.31,0,0,0,9.3,3.9c2,0,3.2-.7,3.2-2.1,0-4.4-13.6-1.7-13.6-10.9,0-4.8,4.1-7.9,10.3-7.9a20.06,20.06,0,0,1,10.3,2.9l-2.5,5.3C427,33.7,423.6,32.5,421.4,32.5Z" fill="#f5f5f5"/><path d="M462,40.2c0,7.5-6,13.2-13.9,13.2s-13.9-5.7-13.9-13.2,6-13.1,13.9-13.1S462,32.7,462,40.2Zm-21,.1a7.26,7.26,0,0,0,7.1,7.4,7.12,7.12,0,0,0,7-7.4,7.12,7.12,0,0,0-7-7.4A7.2,7.2,0,0,0,441,40.3Z" fill="#f5f5f5"/><path d="M480.8,53.1,477,46h-5v7.1h-6.7V27.3h11.6c6.8,0,10.7,3.3,10.7,9.1,0,3.9-1.6,6.8-4.6,8.3l5.4,8.4Zm-8.7-12.5H477c2.7,0,4.3-1.4,4.3-4s-1.6-3.9-4.3-3.9h-4.9Z" fill="#f5f5f5"/></svg>