<svg xmlns="http://www.w3.org/2000/svg" viewBox="0 0 80 80">
  <title>Untitled-1</title>
  <path d="M35.41,71.74a4.73,4.73,0,0,1-1.14-.14h0L6.37,64.5a4.75,4.75,0,0,1-2.91-2.13,4.65,4.65,0,0,1-.56-3.59L10,30.87A4.73,4.73,0,0,1,15.7,27.4h0l27.91,7.1a4.74,4.74,0,0,1,3.47,5.72L40,68.08A4.48,4.48,0,0,1,38,71,4.8,4.8,0,0,1,35.41,71.74Zm-.29-3.53a1.27,1.27,0,0,0,1-.17,1,1,0,0,0,.47-.66v-.11l7.1-27.9a1.17,1.17,0,0,0-.14-.9,1.28,1.28,0,0,0-.78-.57L14.86,30.8a1.18,1.18,0,0,0-.9.14,1.28,1.28,0,0,0-.57.78L6.29,59.63a1.17,1.17,0,0,0,.14.9,1.27,1.27,0,0,0,.78.57Z" fill="#c53a3f"/>
  <circle cx="17.59" cy="37.5" r="3.7" fill="#c53a3f"/>
  <circle cx="37.19" cy="42.4" r="3.7" fill="#c53a3f"/>
  <circle cx="12.99" cy="56.8" r="3.7" fill="#c53a3f"/>
  <circle cx="32.29" cy="61.7" r="3.7" fill="#c53a3f"/>
  <path d="M48,57.12a7.07,7.07,0,0,1-2.12-.39l-.45-.13.76-3.42a2.64,2.64,0,0,1,.71.2c.82.25,1.22.33,1.64.09L73.19,38.7a1.29,1.29,0,0,0,.38-1.7L58.89,12.29a1.29,1.29,0,0,0-1.73-.38L32.57,26.55c-.47.38-.56.9-.64,1.7a7,7,0,0,1-.14.87l-3.4-.85a3.87,3.87,0,0,0,.06-.42,5.49,5.49,0,0,1,2.11-4.17l.14-.09L55.39,8.9a4.8,4.8,0,0,1,6.51,1.64L76.59,35.21A4.81,4.81,0,0,1,75,41.72L50.29,56.5A4.57,4.57,0,0,1,48,57.12Z" fill="#c53a3f"/>
  <circle cx="51.37" cy="32.53" r="3.7" transform="translate(-7.96 45.85) rotate(-45)" fill="#c53a3f"/>
</svg>
