<svg xmlns="http://www.w3.org/2000/svg" viewBox="0 0 550 370">
    <path d="M273,313.79,2.5.2l545-.7L277,318" fill="#ebedef" opacity="0.1" style="isolation: isolate"/>
    <ellipse cx="289.34" cy="189.16" rx="33.16" ry="28.84" fill="#c73b3b"/>
    <ellipse cx="288.92" cy="185.31" rx="33.17" ry="28.84" fill="#dc4646"/>
    <path d="M292.56,213.67l-.27-3a34.77,34.77,0,0,0,11.09-2.85l1.22,2.74A37.79,37.79,0,0,1,292.56,213.67Zm-26.44-7.47a29,29,0,0,1-8-9.65l2.67-1.36a26.09,26.09,0,0,0,7.21,8.65Zm56.13-16.52-3-.55a21.79,21.79,0,0,0-.82-11.07l2.84-1a24.79,24.79,0,0,1,.93,12.59Zm-59.12-18.32-2.39-1.82a31.47,31.47,0,0,1,9.46-8.19l1.49,2.6a28.47,28.47,0,0,0-8.56,7.41Zm37.19-10.08A35.73,35.73,0,0,0,289,159.47v-3a38.72,38.72,0,0,1,12.27,2Z" fill="#fff"/>
    <path d="M288.92,202.67c-10.35,0-18.77-7.63-18.77-17s8.42-17,18.77-17,18.77,7.63,18.77,17S299.27,202.67,288.92,202.67Zm0-32c-9.24,0-16.77,6.73-16.77,15s7.52,15,16.77,15,16.77-6.73,16.77-15S298.17,170.67,288.92,170.67Z" fill="#fff"/>
    <ellipse cx="255.11" cy="156.69" rx="33.17" ry="28.84" fill="#c73b3b"/>
    <ellipse cx="254.67" cy="152.84" rx="33.17" ry="28.84" fill="#dc4646"/>
    <path d="M258.39,181.69l-.26-3a33.89,33.89,0,0,0,11.07-2.87l1.24,2.73A36.87,36.87,0,0,1,258.39,181.69Zm-26.34-7.78a29.06,29.06,0,0,1-7.82-9.81l2.7-1.3a26.07,26.07,0,0,0,7,8.8Zm55.88-16.37L285,157a22.42,22.42,0,0,0-.76-11.1l2.85-.94a25.41,25.41,0,0,1,.86,12.58Zm-60-16.41-2.54-1.59a31.41,31.41,0,0,1,8.67-9L235.8,133a28.43,28.43,0,0,0-7.8,8.12Zm42-10.57A34.73,34.73,0,0,0,259,127.18l.41-3a37.72,37.72,0,0,1,11.89,3.66Z" fill="#fff"/>
    <path d="M254.67,170c-10.35,0-18.77-7.86-18.77-17.52S244.32,135,254.67,135s18.77,7.86,18.77,17.51S265,170,254.67,170Zm0-33c-9.24,0-16.77,7-16.77,15.51S245.43,168,254.67,168s16.77-7,16.77-15.52S263.92,137,254.67,137Z" fill="#fff"/>
    <path d="M102.75,45.5l9.83,18.42L133,67.65,118.66,82.77l2.79,20.73-18.7-9.08L96.84,76.77Z" fill="#ffee5a"/>
    <path d="M426,96l-8-26.5L426,43l17,26.5Z" fill="#ffee5a"/>
    <path d="M214.5,219l-4-14.25,4-14.25,9,14.25Z" fill="#ffee5a"/>
    <path d="M361.75,132,368,143.75l13,2.38-9.13,9.64L373.65,169l-11.9-5.79-2.12-11.43Z" fill="#ffee5a"/>
    <path d="M277.8,362.74l-78.12-66.66,38.14-24.77L319,271l36,24.46Z" fill="#ba5a9e"/>
    <path d="M277.8,362.43l76.9-66.66-40.59-.31Z" fill="#e693ce" opacity="0.3" style="isolation: isolate"/>
    <path d="M277.8,362.74l-78.12-66.66,41.81-.31Z" fill="#e693ce" opacity="0.3" style="isolation: isolate"/>
    <path d="M277.8,271l36.62,25.08-73.24-.31Z" fill="#e693ce" opacity="0.3" style="isolation: isolate"/>
    <path d="M214.5,219l-9-14.25,9-14.25Z" fill="#ffde2a"/>
    <path d="M426,96,409,69.5,426,43Z" fill="#ffde2a"/>
    <path d="M102.75,45.5V94.42l-18.7,9.08,2.79-20.73L72.5,67.65l20.42-3.73Z" fill="#ffde2a"/>
    <path d="M361.75,132v31.21L349.85,169l1.78-13.22-9.13-9.64,13-2.38Z" fill="#ffde2a"/>
</svg>
