<svg xmlns="http://www.w3.org/2000/svg" xmlns:xlink="http://www.w3.org/1999/xlink" viewBox="0 0 2880 1540">
  <defs>
    <radialGradient id="a" cx="326.89" cy="798.99" r="1799.01" gradientTransform="scale(1 0.91)" gradientUnits="userSpaceOnUse">
      <stop offset="0" stop-color="#e45c27"/>
      <stop offset="1" stop-color="#c93232"/>
    </radialGradient>
  </defs>
  <title>bonuses--newest</title>
  <rect width="2880" height="1546.61" fill="url(#a)"/>
  <g>
    <g opacity="0.1">
      <path d="M313.63,795.64l2309.79,751-1104.55-1.44Z" fill="#ea8e70"/>
      <path d="M312.19,791.33l2957-283.41,15.82,595.6Z" fill="#ea8e70"/>
      <path d="M1388-10,319.39,792.76,2767.24-5.68Z" fill="#ea8e70"/>
      <path d="M746.54-7.12,744.86-4l-424,799.6,12.94-797Z" fill="#ea8e70"/>
      <path d="M-15.72-10,320.82,798.52l-781-802.76Z" fill="#ea8e70"/>
      <path d="M-685.93,333.84,319.39,795.64-696,745.29Z" fill="#ea8e70"/>
      <path d="M-540.67,1561,319.39,789.89l-995.25,286.29,11.51,435.91-4.32,36Z" fill="#ea8e70"/>
      <path d="M126.66,1553.81,329.45,794.2l-391.2,759.6Z" fill="#ea8e70"/>
      <path d="M571.07,1555.24,320.82,801.4l-2.88,758.17Z" fill="#ea8e70"/>
      <path d="M804.07,1549.49,312.19,800,1178,1552.37Z" fill="#ea8e70"/>
    </g>
    <path d="M232.5,155,258,202.63l53,9.65-37.22,39.1L281,305,232.5,281.52,195,288l15-75.36Z" fill="#ffae3a"/>
    <path d="M537,552l-25-53,25-53,34,53Z" fill="#ffae3a"/>
    <path d="M160,1373l-20-53,20-53,34,53Z" fill="#ffae3a"/>
    <path d="M2694,1017l-24-53,24-53,34,53Z" fill="#ffae3a"/>
    <path d="M2563,319l19.83,37.16,41.18,7.53-28.92,30.5L2600.7,436,2563,417.68l-15.7.31-4.12-56.84Z" fill="#ffae3a"/>
    <path d="M2218.5,1267l12.51,23.5,26,4.76-18.25,19.29,3.55,26.45-23.8-11.58-16.25.14,3.73-30.05Z" fill="#ffae3a"/>
    <path d="M313.79,941,93,752.79l107.81-69.93L430.23,682,532,751.07Z" fill="#39c983"/>
    <path d="M313.79,940.14,531.14,751.93l-114.71-.86Z" fill="#d5753a" opacity="0.2" style="isolation: isolate"/>
    <path d="M313.79,941,93,752.79l118.16-.86Z" fill="#d5753a" opacity="0.1" style="isolation: isolate"/>
    <path d="M232.5,155V281.52L184,305l7.24-53.61L154,212.29l53-9.65Z" fill="#f29e25"/>
    <path d="M537,552l-34-53,34-53Z" fill="#f29e25"/>
    <path d="M212.33,751.22l101.92-68.87,101.92,69.71-203.84-.85" fill="#49c07c"/>
    <path d="M160,1373l-34-53,34-53Z" fill="#f29e25"/>
    <path d="M2694,1017l-34-53,34-53Z" fill="#f29e25"/>
    <path d="M2218.5,1267v62.42L2194.7,1341l3.55-26.45L2180,1295.26l26-4.76Z" fill="#f29e25"/>
    <path d="M2563,319v98.69L2525.29,436l5.62-41.82L2502,363.68l41.18-7.53Z" fill="#f29e25"/>
  </g>
</svg>
