<svg xmlns="http://www.w3.org/2000/svg" viewBox="0 0 450 80">
  <g>
    <path d="M42.42,71.74a4.73,4.73,0,0,1-1.14-.14h0l-27.9-7.1a4.75,4.75,0,0,1-2.91-2.13,4.65,4.65,0,0,1-.56-3.59L17,30.87a4.73,4.73,0,0,1,5.72-3.47h0l27.91,7.1a4.74,4.74,0,0,1,3.47,5.72L47,68.08A4.48,4.48,0,0,1,45,71,4.8,4.8,0,0,1,42.42,71.74Zm-.29-3.53a1.27,1.27,0,0,0,1-.17,1,1,0,0,0,.47-.66v-.11l7.1-27.9a1.17,1.17,0,0,0-.14-.9,1.28,1.28,0,0,0-.78-.57L21.87,30.8a1.18,1.18,0,0,0-.9.14,1.28,1.28,0,0,0-.57.78L13.3,59.63a1.17,1.17,0,0,0,.14.9,1.27,1.27,0,0,0,.78.57Z" fill="#c53a3f"/>
    <circle cx="24.6" cy="37.5" r="3.7" fill="#c53a3f"/>
    <circle cx="44.2" cy="42.4" r="3.7" fill="#c53a3f"/>
    <circle cx="20" cy="56.8" r="3.7" fill="#c53a3f"/>
    <circle cx="39.3" cy="61.7" r="3.7" fill="#c53a3f"/>
    <path d="M55,57.12a7.07,7.07,0,0,1-2.12-.39l-.45-.13.76-3.42a2.64,2.64,0,0,1,.71.2c.82.25,1.22.33,1.64.09L80.2,38.7a1.29,1.29,0,0,0,.38-1.7L65.9,12.29a1.29,1.29,0,0,0-1.73-.38L39.58,26.55c-.47.38-.56.9-.64,1.7a7,7,0,0,1-.14.87l-3.4-.85a3.87,3.87,0,0,0,.06-.42,5.49,5.49,0,0,1,2.11-4.17l.14-.09L62.4,8.9a4.8,4.8,0,0,1,6.51,1.64L83.6,35.21A4.81,4.81,0,0,1,82,41.72L57.3,56.5A4.57,4.57,0,0,1,55,57.12Z" fill="#c53a3f"/>
    <circle cx="58.38" cy="32.53" r="3.7" transform="translate(-5.9 50.81) rotate(-45)" fill="#c53a3f"/>
  </g>
  <g>
    <path d="M121.18,39H127V49.15a20.67,20.67,0,0,1-10.75,3.31c-7.88,0-13.8-5.67-13.8-13.18s6.07-13.1,14.24-13.1A16.59,16.59,0,0,1,127.29,30l-3.83,4.71a10.44,10.44,0,0,0-6.81-2.83,7.19,7.19,0,0,0-7.29,7.4,7.24,7.24,0,0,0,7.36,7.43,10.55,10.55,0,0,0,4.45-1.21Z" fill="#252a2e"/>
    <path d="M149.15,39.21v13h-6.44V49.92a7.19,7.19,0,0,1-6,2.54c-4.27,0-6.81-2.58-6.81-6.22s2.69-6,7.62-6h5.19V40c0-1.88-1.29-3-3.79-3a14.57,14.57,0,0,0-6,1.58l-1.8-4.42A21.93,21.93,0,0,1,140.43,32C145.91,32,149.11,34.65,149.15,39.21Zm-6.44,6.22V43.7h-3.9c-1.84,0-2.76.66-2.76,2.06S137,48,138.73,48A3.93,3.93,0,0,0,142.71,45.43Z" fill="#252a2e"/>
    <path d="M187.28,39.62V52.17h-6.55V41.49c0-2.28-1.25-3.64-3.28-3.64-2.32,0-3.75,1.88-3.75,4.49v9.83h-6.55V41.49c0-2.28-1.25-3.64-3.28-3.64-2.32,0-3.79,1.88-3.79,4.49v9.83h-6.51V32.26h6.51v3.28A7.09,7.09,0,0,1,166.56,32a6.61,6.61,0,0,1,6.62,4.45,7.1,7.1,0,0,1,7-4.45C184.44,32,187.28,34.94,187.28,39.62Z" fill="#252a2e"/>
    <path d="M213.59,42.3c0,6.07-3.61,10.08-9.13,10.08a7.29,7.29,0,0,1-6-2.8v2.58h-6.55V24.86h6.55v10a7.11,7.11,0,0,1,5.85-2.8C209.87,32,213.59,36.12,213.59,42.3ZM207,42.16c0-2.94-1.73-5-4.31-5s-4.23,2-4.23,5,1.73,4.93,4.23,4.93S207,45.1,207,42.16Z" fill="#252a2e"/>
    <path d="M223.71,24.86V52.17h-6.55V24.86Z" fill="#252a2e"/>
    <path d="M235.64,26.59a3.46,3.46,0,1,1-6.92,0,3.46,3.46,0,1,1,6.92,0Zm-.22,5.67V52.17H228.9V32.26Z" fill="#252a2e"/>
    <path d="M260.77,39.62V52.17h-6.51V41.49c0-2.25-1.33-3.64-3.39-3.64a3.9,3.9,0,0,0-3.9,3.79V52.17h-6.55V32.26H247v3.24a7.32,7.32,0,0,1,6.59-3.5C257.9,32,260.77,34.94,260.77,39.62Z" fill="#252a2e"/>
    <path d="M284.29,32.26V50.4c0,5.63-4.38,9.16-10.82,9.16A16.53,16.53,0,0,1,264.56,57l2.28-4.53a11,11,0,0,0,6.15,2c3,0,4.78-1.51,4.78-3.83V48.45a6.77,6.77,0,0,1-5.67,2.61c-5,0-8.5-3.83-8.5-9.61S267,32,272,32a7.08,7.08,0,0,1,5.81,2.65V32.26Zm-6.51,9.39c0-2.8-1.62-4.67-4-4.67s-4,1.91-4,4.67,1.62,4.64,4,4.64S277.78,44.36,277.78,41.64Z" fill="#252a2e"/>
  </g>
  <g>
    <path d="M306.26,47.6H295.11l-1.8,4.56h-6.92l11.08-25.8h6.92l10.82,25.8H308Zm-2-5.15-3.53-9.2-3.61,9.2Z" fill="#252a2e"/>
    <path d="M336.81,24.86V52.17h-6.55V49.59a7,7,0,0,1-5.89,2.83c-5.59,0-9.27-4.12-9.27-10.31S318.74,32,324.22,32a7.34,7.34,0,0,1,6,2.83v-10ZM330.26,42.3c0-3-1.73-5-4.27-5s-4.31,2-4.31,5,1.73,5,4.31,5S330.26,45.25,330.26,42.3Z" fill="#252a2e"/>
    <path d="M346,32.26l4.16,13.84,4.2-13.84H361l-7.47,19.91h-6.74l-7.43-19.91Z" fill="#252a2e"/>
    <path d="M369.9,26.59a3.46,3.46,0,1,1-6.92,0,3.46,3.46,0,1,1,6.92,0Zm-.22,5.67V52.17h-6.51V32.26Z" fill="#252a2e"/>
    <path d="M381.64,36.52c-1.1,0-1.88.4-1.88,1.25,0,2.61,10.45,1.36,10.42,8.28,0,4.08-3.57,6.4-8.43,6.4a14.68,14.68,0,0,1-9-2.83l2.06-4.23a12.93,12.93,0,0,0,7.07,2.47c1.21,0,2.1-.41,2.1-1.21,0-2.72-10.27-1.36-10.27-8.24,0-4.16,3.5-6.44,8.17-6.44a16.17,16.17,0,0,1,8.28,2.32L388,38.55A15.1,15.1,0,0,0,381.64,36.52Z" fill="#252a2e"/>
    <path d="M413.84,42.19c0,6.15-4.34,10.19-10.89,10.19s-10.86-4-10.86-10.19S396.39,32,402.94,32,413.84,36.08,413.84,42.19Zm-15.16.11c0,2.94,1.73,4.93,4.27,4.93s4.31-2,4.31-4.93-1.73-5-4.31-5S398.68,39.32,398.68,42.3Z" fill="#252a2e"/>
    <path d="M430.14,32v6c-3.64-.37-6.07,1.25-6.4,4V52.17h-6.55V32.26h6.55v3.31A7.16,7.16,0,0,1,430.14,32Z" fill="#252a2e"/>
  </g>
</svg>
