<svg xmlns="http://www.w3.org/2000/svg" viewBox="0 0 25 50">
  <polygon points="12.73 16.32 6.61 11.16 7.58 10.01 12.55 14.21 21.44 3.72 22.59 4.69 12.73 16.32" fill="#39c983"/>
  <path d="M12,23.25A10.75,10.75,0,1,1,18.46,3.9l-.9,1.2a9.22,9.22,0,1,0,3.12,4.17l1.4-.52A10.75,10.75,0,0,1,12,23.25Z" fill="#39c983"/>
  <path d="M7.48,36.5h9V38h-9Z" fill="#d43a31" fill-rule="evenodd"/>
  <path d="M12,48.25A10.75,10.75,0,1,1,22.77,37.5,10.77,10.77,0,0,1,12,48.25Zm0-20a9.25,9.25,0,1,0,9.27,9.25A9.27,9.27,0,0,0,12,28.25Z" fill="#d43a31"/>
</svg>
