<svg xmlns="http://www.w3.org/2000/svg" viewBox="0 0 800 220">
  <g opacity="0.4">
    <path d="M293.67,225c20.27-2.49,40.77-5.82,60.34-.76l63.6-40.46Z" fill="#e66a6a"/>
    <path d="M-12,230.64l430.15-47L-11,148.86C-4.22,175.68-7.73,203.53-12,230.64Z" fill="#e66a6a"/>
    <path d="M162-13.13C147.95-11.94-19.93-7.28-22.34-8l-.3-.07c-.12.32,4.3,36.24,5.87,46.48l434.55,145Z" fill="#e66a6a"/>
    <path d="M320-5.27l98,189.06L415-6.87C409-6.8,333.84-5.85,320-5.27Z" fill="#e66a6a"/>
    <path d="M495.33-6.33a5,5,0,0,1-.74-.07L418.2,183.22,596.79-4.62C591.66-4.51,495.33-6.33,495.33-6.33Z" fill="#e66a6a"/>
    <path d="M812.48-1.7,417.79,183.79l398.64-20.23Z" fill="#e66a6a"/>
    <path d="M556.72,224.57,418.6,183.92l47.86,43.9C469.34,227.79,549,225,556.72,224.57Z" fill="#e66a6a"/>
    <path d="M440.12,227.34,417.9,183.21l11.35,43.51Q434.69,227.09,440.12,227.34Z" fill="#e66a6a"/>
    <path d="M417.82,225.85l.37,0-.15-41.4-13.19,40.67C409.17,225.24,413.5,225.46,417.82,225.85Z" fill="#e66a6a"/>
    <path d="M391.7,225.17l26.47-41.27-47.7,42.41C377.54,225.78,384.62,225.36,391.7,225.17Z" fill="#e66a6a"/>
  </g>
</svg>
