<svg xmlns="http://www.w3.org/2000/svg" xmlns:xlink="http://www.w3.org/1999/xlink">
    <symbol viewBox="0 0 460 80" id="logo-dices">
        <path d="M42.42,71.74a4.73,4.73,0,0,1-1.14-.14h0l-27.9-7.1a4.75,4.75,0,0,1-2.91-2.13,4.65,4.65,0,0,1-.56-3.59L17,30.87a4.73,4.73,0,0,1,5.72-3.47l27.91,7.1a4.74,4.74,0,0,1,3.47,5.72L47,68.08A4.48,4.48,0,0,1,45,71,4.8,4.8,0,0,1,42.42,71.74Zm-.29-3.53a1.27,1.27,0,0,0,1-.17,1,1,0,0,0,.47-.66l0-.11,7.1-27.9a1.17,1.17,0,0,0-.14-.9,1.28,1.28,0,0,0-.78-.57L21.87,30.8a1.18,1.18,0,0,0-.9.14,1.28,1.28,0,0,0-.57.78L13.3,59.63a1.17,1.17,0,0,0,.14.9,1.27,1.27,0,0,0,.78.57Z"/>
        <circle cx="24.6" cy="37.5" r="3.7"/>
        <circle cx="44.2" cy="42.4" r="3.7"/>
        <circle cx="20" cy="56.8" r="3.7"/>
        <circle cx="39.3" cy="61.7" r="3.7"/>
        <path d="M55,57.12a7.07,7.07,0,0,1-2.12-.39l-.45-.13.76-3.42c.22,0,.46.12.71.2.82.25,1.22.33,1.64.09L80.2,38.7A1.29,1.29,0,0,0,80.58,37L65.9,12.29a1.29,1.29,0,0,0-1.73-.38L39.58,26.55c-.47.38-.56.9-.64,1.7a7,7,0,0,1-.14.87l-3.4-.85a3.87,3.87,0,0,0,.06-.42,5.49,5.49,0,0,1,2.11-4.17l.14-.09L62.4,8.9a4.8,4.8,0,0,1,6.51,1.64L83.6,35.21A4.81,4.81,0,0,1,82,41.72L57.3,56.5A4.57,4.57,0,0,1,55,57.12Z"/>
        <circle cx="58.38" cy="32.53" r="3.7"/>
    </symbol>
    <symbol viewBox="0 0 460 80" id="logo-gambling">
        <path d="M121.18,39H127V49.15a20.67,20.67,0,0,1-10.75,3.31c-7.88,0-13.8-5.67-13.8-13.18s6.07-13.1,14.24-13.1A16.59,16.59,0,0,1,127.29,30l-3.83,4.71a10.44,10.44,0,0,0-6.81-2.83,7.19,7.19,0,0,0-7.29,7.4,7.24,7.24,0,0,0,7.36,7.43,10.55,10.55,0,0,0,4.45-1.21Z"/>
        <path d="M149.15,39.21v13h-6.44V49.92a7.19,7.19,0,0,1-6,2.54c-4.27,0-6.81-2.58-6.81-6.22s2.69-6,7.62-6h5.19V40c0-1.88-1.29-3-3.79-3a14.57,14.57,0,0,0-6,1.58l-1.8-4.42A21.93,21.93,0,0,1,140.43,32C145.91,32,149.11,34.65,149.15,39.21Zm-6.44,6.22V43.7h-3.9c-1.84,0-2.76.66-2.76,2.06S137,48,138.73,48A3.93,3.93,0,0,0,142.71,45.43Z"/>
        <path d="M187.28,39.62V52.17h-6.55V41.49c0-2.28-1.25-3.64-3.28-3.64-2.32,0-3.75,1.88-3.75,4.49v9.83h-6.55V41.49c0-2.28-1.25-3.64-3.28-3.64-2.32,0-3.79,1.88-3.79,4.49v9.83h-6.51V32.26h6.51v3.28A7.09,7.09,0,0,1,166.56,32a6.61,6.61,0,0,1,6.62,4.45,7.1,7.1,0,0,1,7-4.45C184.44,32,187.28,34.94,187.28,39.62Z"/>
        <path d="M213.59,42.3c0,6.07-3.61,10.08-9.13,10.08a7.29,7.29,0,0,1-6-2.8v2.58h-6.55V24.86h6.55v10a7.11,7.11,0,0,1,5.85-2.8C209.87,32,213.59,36.12,213.59,42.3ZM207,42.16c0-2.94-1.73-5-4.31-5s-4.23,2-4.23,5,1.73,4.93,4.23,4.93S207,45.1,207,42.16Z"/>
        <path d="M223.71,24.86V52.17h-6.55V24.86Z"/>
        <path d="M235.64,26.59a3.46,3.46,0,1,1-6.92,0,3.46,3.46,0,1,1,6.92,0Zm-.22,5.67V52.17H228.9V32.26Z"/>
        <path d="M260.77,39.62V52.17h-6.51V41.49c0-2.25-1.33-3.64-3.39-3.64a3.9,3.9,0,0,0-3.9,3.79V52.17h-6.55V32.26H247v3.24a7.32,7.32,0,0,1,6.59-3.5C257.9,32,260.77,34.94,260.77,39.62Z"/>
        <path d="M284.29,32.26V50.4c0,5.63-4.38,9.16-10.82,9.16A16.53,16.53,0,0,1,264.56,57l2.28-4.53a11,11,0,0,0,6.15,2c3,0,4.78-1.51,4.78-3.83V48.45a6.77,6.77,0,0,1-5.67,2.61c-5,0-8.5-3.83-8.5-9.61S267,32,272,32a7.08,7.08,0,0,1,5.81,2.65V32.26Zm-6.51,9.39c0-2.8-1.62-4.67-4-4.67s-4,1.91-4,4.67,1.62,4.64,4,4.64S277.78,44.36,277.78,41.64Z"/>
    </symbol>
    <symbol viewBox="0 0 460 80" id="logo-advisor">
        <path d="M306.26,47.6H295.11l-1.8,4.56h-6.92l11.08-25.8h6.92l10.82,25.8H308Zm-2-5.15-3.53-9.2-3.61,9.2Z"/>
        <path d="M336.81,24.86V52.17h-6.55V49.59a7,7,0,0,1-5.89,2.83c-5.59,0-9.27-4.12-9.27-10.31S318.74,32,324.22,32a7.34,7.34,0,0,1,6,2.83v-10ZM330.26,42.3c0-3-1.73-5-4.27-5s-4.31,2-4.31,5,1.73,5,4.31,5S330.26,45.25,330.26,42.3Z"/>
        <path d="M346,32.26l4.16,13.84,4.2-13.84H361l-7.47,19.91h-6.74l-7.43-19.91Z"/>
        <path d="M369.9,26.59a3.46,3.46,0,1,1-6.92,0,3.46,3.46,0,1,1,6.92,0Zm-.22,5.67V52.17h-6.51V32.26Z"/>
        <path d="M381.64,36.52c-1.1,0-1.88.4-1.88,1.25,0,2.61,10.45,1.36,10.42,8.28,0,4.08-3.57,6.4-8.43,6.4a14.68,14.68,0,0,1-9-2.83l2.06-4.23a12.93,12.93,0,0,0,7.07,2.47c1.21,0,2.1-.41,2.1-1.21,0-2.72-10.27-1.36-10.27-8.24,0-4.16,3.5-6.44,8.17-6.44a16.17,16.17,0,0,1,8.28,2.32L388,38.55A15.1,15.1,0,0,0,381.64,36.52Z"/>
        <path d="M413.84,42.19c0,6.15-4.34,10.19-10.89,10.19s-10.86-4-10.86-10.19S396.39,32,402.94,32,413.84,36.08,413.84,42.19Zm-15.16.11c0,2.94,1.73,4.93,4.27,4.93s4.31-2,4.31-4.93-1.73-5-4.31-5S398.68,39.32,398.68,42.3Z"/>
        <path d="M430.14,32v6c-3.64-.37-6.07,1.25-6.4,4V52.17h-6.55V32.26h6.55v3.31A7.16,7.16,0,0,1,430.14,32Z"/>
    </symbol>
    <symbol viewBox="0 0 32 32" id="icon-blog">
        <path d="M4.9,29.75a4.22,4.22,0,0,1-3.2-1,2,2,0,0,1-.56-1.42V16.2H4.9v1H2.14V27.34a1,1,0,0,0,.31.72,3.29,3.29,0,0,0,2.44.69Z"/>
        <path d="M28.36,31H6.54A2.5,2.5,0,0,1,4,28.46V3.54A2.5,2.5,0,0,1,6.54,1H28.36a2.5,2.5,0,0,1,2.5,2.5V28.46A2.5,2.5,0,0,1,28.36,31ZM6.54,2A1.5,1.5,0,0,0,5,3.54V28.46A1.5,1.5,0,0,0,6.54,30H28.36a1.5,1.5,0,0,0,1.5-1.5V3.54A1.5,1.5,0,0,0,28.36,2Z"/>
        <path d="M9.53,5.09h5.78a2,2,0,0,1,2,2v5.81a2,2,0,0,1-2,2H9.53a2,2,0,0,1-2-2V7.09A2,2,0,0,1,9.53,5.09Z"/>
        <path d="M8.36,17h19a.5.5,0,0,1,.5.5h0a.5.5,0,0,1-.5.5h-19a.5.5,0,0,1-.5-.5h0A.5.5,0,0,1,8.36,17Z"/>
        <path d="M8.36,20h19a.5.5,0,0,1,.5.5h0a.5.5,0,0,1-.5.5h-19a.5.5,0,0,1-.5-.5h0A.5.5,0,0,1,8.36,20Z"/>
        <path d="M8.36,23h19a.5.5,0,0,1,.5.5h0a.5.5,0,0,1-.5.5h-19a.5.5,0,0,1-.5-.5h0A.5.5,0,0,1,8.36,23Z"/>
        <path d="M19.36,7h8a.5.5,0,0,1,.5.5h0a.5.5,0,0,1-.5.5h-8a.5.5,0,0,1-.5-.5h0A.5.5,0,0,1,19.36,7Z"/>
        <path d="M19.36,10h8a.5.5,0,0,1,.5.5h0a.5.5,0,0,1-.5.5h-8a.5.5,0,0,1-.5-.5h0A.5.5,0,0,1,19.36,10Z"/>
        <path d="M19.36,13h8a.5.5,0,0,1,.5.5h0a.5.5,0,0,1-.5.5h-8a.5.5,0,0,1-.5-.5h0A.5.5,0,0,1,19.36,13Z"/>
        <path d="M8.36,26h10a.5.5,0,0,1,.5.5h0a.5.5,0,0,1-.5.5h-10a.5.5,0,0,1-.5-.5h0A.5.5,0,0,1,8.36,26Z"/>
    </symbol>
    <symbol viewBox="0 0 32 32" id="icon-filter">
        <path d="M6.5,8h19a1,1,0,0,1,1,1h0a1,1,0,0,1-1,1H6.5a1,1,0,0,1-1-1h0A1,1,0,0,1,6.5,8Z"/>
        <path d="M6.5,15h19a1,1,0,0,1,1,1h0a1,1,0,0,1-1,1H6.5a1,1,0,0,1-1-1h0A1,1,0,0,1,6.5,15Z"/>
        <path d="M6.5,22h19a1,1,0,0,1,1,1h0a1,1,0,0,1-1,1H6.5a1,1,0,0,1-1-1h0A1,1,0,0,1,6.5,22Z"/>
        <circle cx="20.5" cy="16" r="3"/>
        <circle cx="15.5" cy="9" r="3"/>
        <circle cx="11.5" cy="23" r="3"/>
    </symbol>
    <symbol viewBox="0 0 120 110" id="icon-dices">
        <path d="M54.1,102.88a4.24,4.24,0,0,1-1-.13h0L6.81,91a4.26,4.26,0,0,1-3.08-5.16L15.46,39.61a4.26,4.26,0,0,1,5.16-3.07L66.87,48.27a4.26,4.26,0,0,1,3.07,5.17L58.22,99.67a4.27,4.27,0,0,1-4.12,3.21Zm-.43-2.55a1.75,1.75,0,0,0,2.13-1.27L67.52,52.82a1.76,1.76,0,0,0-1.26-2.13L20,39a1.76,1.76,0,0,0-2.13,1.27L6.16,86.47a1.75,1.75,0,0,0,1.27,2.13Z"/>
        <circle cx="25.39" cy="51.03" r="5.66"/>
        <circle cx="55.63" cy="58.62" r="5.66"/>
        <circle cx="18.31" cy="80.88" r="5.66"/>
        <circle cx="48.03" cy="88.47" r="5.66"/>
        <path d="M71.71,80.14a5.57,5.57,0,0,1-4.86-2.56l-3.58-6.69,2.21-1.18L69,76.35c.92,1.53,3.28,1.62,4.81.7L112,54.32a3.38,3.38,0,0,0,1.18-4.64L90.46,11.5a3.38,3.38,0,0,0-4.64-1.18L47.69,33c-1.62,1.19-2.19,2.3-.86,4.93l3.71,6.3-2.16,1.27-3.74-6.37c-1.8-3.55-1.28-6.06,1.62-8.18l.1-.06L84.55,8.17a5.89,5.89,0,0,1,8.06,2L115.35,48.4a5.89,5.89,0,0,1-2,8.06L75.12,79.2A6.67,6.67,0,0,1,71.71,80.14Z"/>
        <circle cx="77.57" cy="43.42" r="5.66" transform="translate(-7.98 67.57) rotate(-45)"/>
    </symbol>
    <symbol viewBox="0 0 32 32" id="icon-fb">
        <path d="M14.93,23.86h2.75V17.16h2.23l.34-2.63H17.68V12.72a1.31,1.31,0,0,1,.18-.75c.18-.26.54-.37,1.25-.37h1.25V9.24a10.57,10.57,0,0,0-3.09,0,3,3,0,0,0-2.35,2.87v2.39H12.63v2.63h2.29Z"/>
    </symbol>
    <symbol viewBox="0 0 32 32" id="icon-tw">
        <path d="M9.51,10.78a9.55,9.55,0,0,0,6.76,3.29,3.35,3.35,0,0,1,2.16-3.74,3.09,3.09,0,0,1,3.38.82A4.54,4.54,0,0,0,24,10.41C24,11,22.74,12,22.55,12.15a5.64,5.64,0,0,0,1.88-.46,6.46,6.46,0,0,1-1.6,1.55,9.35,9.35,0,0,1-6.1,9,9,9,0,0,1-8.16-.82,6.84,6.84,0,0,0,4.69-1.37,3.26,3.26,0,0,1-3-2.19,3,3,0,0,0,1.41,0A3.59,3.59,0,0,1,9,14.61a3.5,3.5,0,0,0,1.5.46A3.33,3.33,0,0,1,9.51,10.78Z"/>
    </symbol>
    <symbol viewBox="0 0 32 32" id="icon-ig">
        <path d="M20,8H12a4,4,0,0,0-4,4V20a4,4,0,0,0,4,4H20a4,4,0,0,0,4-4V12A4,4,0,0,0,20,8Zm2.3,12a2.3,2.3,0,0,1-2.3,2.3H12A2.3,2.3,0,0,1,9.74,20V12A2.3,2.3,0,0,1,12,9.74H20A2.3,2.3,0,0,1,22.26,12Z"/>
        <path d="M16,11.88A4.12,4.12,0,1,0,20.12,16,4.13,4.13,0,0,0,16,11.88Zm0,6.5A2.38,2.38,0,1,1,18.38,16,2.38,2.38,0,0,1,16,18.38Z"/>
        <circle cx="20.25" cy="11.76" r="0.98"/>
    </symbol>
    <symbol viewBox="0 0 100 90" id="image-stars">
        <path d="M49.75,11.5l-7,13L28.25,27l10,10.5L36.75,53l13-6.5Z" fill="#f29e25"/>
        <path d="M49.75,11.5l7,13L71.25,27l-10,10.5L62.75,53l-13-6.5Z" fill="#ffae3a"/>
        <path d="M15.5,45.5l-4.15,7.67-8.6,1.48,5.93,6.2L7.79,70l7.71-3.84Z" fill="#f29e25"/>
        <path d="M15.5,45.5l4.15,7.67,8.6,1.48-5.93,6.2L23.21,70,15.5,66.16Z" fill="#ffae3a"/>
        <path d="M84.5,45.5l-4.15,7.67-8.6,1.48,5.93,6.2L76.79,70l7.71-3.84Z" fill="#f29e25"/>
        <path d="M84.5,45.5l4.15,7.67,8.6,1.48-5.93,6.2L92.21,70,84.5,66.16Z" fill="#ffae3a"/>
        <path d="M37.5,62.5l-2.69,5-5.56,1,3.84,4-.58,6,5-2.51Z" fill="#f29e25"/>
        <path d="M37.5,62.5l2.69,5,5.56,1-3.84,4,.58,6L37.5,76Z" fill="#ffae3a"/>
        <path d="M64,62.5l-2.69,5-5.56,1,3.84,4-.58,6L64,76Z" fill="#f29e25"/>
        <path d="M64,62.5l2.69,5,5.56,1-3.84,4,.58,6L64,76Z" fill="#ffae3a"/>
    </symbol>
    <symbol viewBox="0 0 100 90" id="image-diamond">
        <path d="M50.24,69.5,8.5,33.89,28.89,20.66l43.37-.16L91.5,33.57Z" fill="#e867d4"/>
        <path d="M50.24,69.34,91.33,33.73l-21.69-.16Z" fill="#ff9df0" opacity="0.3" style="isolation: isolate"/>
        <path d="M50.24,69.5,8.5,33.89l22.34-.16Z" fill="#ff9df0" opacity="0.3" style="isolation: isolate"/>
        <path d="M50.24,20.5,69.81,33.89l-39.13-.16Z" fill="#ff9df0" opacity="0.3" style="isolation: isolate"/>
    </symbol>
    <symbol viewBox="0 0 100 90" id="image-cards">
        <path d="M61.78,15.91,87.65,41.5a2.06,2.06,0,0,1,0,2.9l-36.91,37a2,2,0,0,1-2.9,0L22,55.8a2.06,2.06,0,0,1,0-2.9l36.91-37A2,2,0,0,1,61.78,15.91Z" fill="#3ec785"/>
        <path d="M49.29,83a3,3,0,0,1-2.16-.9L21.27,56.52a3.06,3.06,0,0,1,0-4.32l36.91-37a3,3,0,0,1,2.15-.89h0a3,3,0,0,1,2.16.89L88.35,40.79a3.06,3.06,0,0,1,0,4.32l-36.91,37A3,3,0,0,1,49.29,83Zm11-66.69a1,1,0,0,0-.74.31l-36.91,37a1.06,1.06,0,0,0,0,1.49L48.54,80.69a1.07,1.07,0,0,0,1.49,0l36.91-37a1.06,1.06,0,0,0,0-1.49L61.07,16.62a1,1,0,0,0-.74-.31Z" fill="#0d4150"/>
        <path d="M12.82,27.36,45.46,8.29a2.14,2.14,0,0,1,2.92.78l27.22,47A2.13,2.13,0,0,1,74.81,59L42.17,78.06a2.14,2.14,0,0,1-2.92-.78L12,30.26A2.13,2.13,0,0,1,12.82,27.36Z" fill="#fff"/>
        <path d="M41.11,79.34a3.14,3.14,0,0,1-2.72-1.56l-27.22-47a3.13,3.13,0,0,1,1.14-4.27L45,7.42a3.14,3.14,0,0,1,4.29,1.14l27.22,47a3.13,3.13,0,0,1-1.15,4.28L42.68,78.92A3.13,3.13,0,0,1,41.11,79.34ZM46.52,9a1.13,1.13,0,0,0-.57.15L13.32,28.22a1.13,1.13,0,0,0-.41,1.54l27.22,47a1.14,1.14,0,0,0,1.55.41L74.3,58.13a1.13,1.13,0,0,0,.53-.69,1.12,1.12,0,0,0-.11-.85l-27.22-47A1.14,1.14,0,0,0,46.52,9Z" fill="#0d4150"/>
        <path d="M38.51,34.75l-3,11.5s-.92,3.75,2,5,4.89.61,6.5-1,.5,2,.5,2l6-3.5-2-1,1-1s5.26-1.62,3.5-5.5c-.9-2.51-4-3.1-5.5-3.5S38.51,34.75,38.51,34.75Z" fill="#25404e"/>
    </symbol>
    <symbol viewBox="0 0 100 90" id="image-prize">
        <path d="M46,41.75l4-2.5v37.5H38.5v-2.5c0-2.83,4-4,4-4H47V58.75a22.63,22.63,0,0,1-10.5-9.5c-22.86-10.16-22-33-22-33h14v-3H50s0,9.52,0,9.5c-.52,0-1,1-1,1l-2,5.5a28.06,28.06,0,0,0-5.5,0c-2.16.33-1,2-1,2a15,15,0,0,0,3,3c1.56,1.06,1,1.5,1,1.5a9.43,9.43,0,0,0-1,4C43.25,42.59,46,41.75,46,41.75ZM29,20.25H19.5a27.79,27.79,0,0,0,15,23C28.86,35.32,29,20.25,29,20.25Z" fill="#f29e25"/>
        <path d="M63.5,49.25A22.63,22.63,0,0,1,53,58.75v11.5h4.5s4,1.17,4,4v2.5H50V39.25l4,2.5s2.75.84,2.5-2a9.43,9.43,0,0,0-1-4s-.56-.44,1-1.5a15,15,0,0,0,3-3s1.16-1.67-1-2a28.06,28.06,0,0,0-5.5,0l-2-5.5s-.48-1-1-1c0,0,0-9.5,0-9.5H71.5v3h14S86.36,39.09,63.5,49.25Zm7.5-29s.14,15.06-5.5,23a27.79,27.79,0,0,0,15-23Z" fill="#ffae3a"/>
    </symbol>
    <symbol viewBox="0 0 100 90" id="image-newspaper">
        <path d="M29.88,47h-6V66.5s-.25,3.5,6,3.5" fill="#d3d3d3"/>
        <path d="M29.88,71c-2.76,0-4.76-.65-5.95-1.92a3.71,3.71,0,0,1-1.05-2.65V46h7v2h-5V66.5a1.79,1.79,0,0,0,.56,1.26C26,68.33,27.2,69,29.88,69Z" fill="#0d4150"/>
        <rect x="28.63" y="18.5" width="47.5" height="53" rx="2" ry="2" fill="#fff"/>
        <path d="M74.13,73H30.63a3.5,3.5,0,0,1-3.5-3.5v-49a3.5,3.5,0,0,1,3.5-3.5h43.5a3.5,3.5,0,0,1,3.5,3.5v49A3.5,3.5,0,0,1,74.13,73ZM30.63,20a.5.5,0,0,0-.5.5v49a.5.5,0,0,0,.5.5h43.5a.5.5,0,0,0,.5-.5v-49a.5.5,0,0,0-.5-.5Z" fill="#0d4150"/>
        <rect x="34.13" y="25" width="18" height="18" rx="2" ry="2" fill="#d3d3d3"/>
        <path d="M35.13,44.75h34a1,1,0,0,1,0,2h-34a1,1,0,0,1,0-2Z" fill="#d3d3d3"/>
        <path d="M35.13,48.75h34a1,1,0,0,1,0,2h-34a1,1,0,0,1,0-2Z" fill="#d3d3d3"/>
        <path d="M35.13,52.75h34a1,1,0,0,1,0,2h-34a1,1,0,0,1,0-2Z" fill="#d3d3d3"/>
        <path d="M55.63,26.25h13.5a1,1,0,0,1,0,2H55.63a1,1,0,0,1,0-2Z" fill="#d3d3d3"/>
        <path d="M55.63,30.25h13.5a1,1,0,0,1,0,2H55.63a1,1,0,0,1,0-2Z" fill="#d3d3d3"/>
        <path d="M55.63,34.25h13.5a1,1,0,0,1,0,2H55.63a1,1,0,0,1,0-2Z" fill="#d3d3d3"/>
        <path d="M55.63,38.25h13.5a1,1,0,0,1,0,2H55.63a1,1,0,0,1,0-2Z" fill="#d3d3d3"/>
        <path d="M35.13,56.75h18.5a1,1,0,1,1,0,2H35.13a1,1,0,0,1,0-2Z" fill="#d3d3d3"/>
    </symbol>
    <symbol id="some_id" viewBox="0 0 50 50">
        <path d="M37.46,7.46A17.16,17.16,0,0,0,8.16,19.6a20.6,20.6,0,0,0,2.64,8.93c4.58,9,13.48,18.24,13.86,18.63a.93.93,0,0,0,1.33,0c.38-.39,9.3-9.62,13.88-18.65a20.57,20.57,0,0,0,2.62-8.9A17.05,17.05,0,0,0,37.46,7.46ZM25.32,45.16C23.27,43,16.94,35.91,13.1,28.91a20.22,20.22,0,0,1,5.25.87,22.63,22.63,0,0,0,7,1,22.63,22.63,0,0,0,7-1,20.22,20.22,0,0,1,5.26-.87C33.71,35.9,27.38,43,25.32,45.16ZM38.52,27a22.47,22.47,0,0,0-6.72,1,20.79,20.79,0,0,1-6.48.89A20.79,20.79,0,0,1,18.84,28a22.47,22.47,0,0,0-6.72-1A17.89,17.89,0,0,1,10,19.6a15.31,15.31,0,1,1,30.62,0A17.9,17.9,0,0,1,38.52,27Z" fill="#fff"/>
        <path d="M36.92,16.36V14.5H35a4.15,4.15,0,0,0-.54-1.29l1.3-1.3L34.41,10.6l-1.3,1.3a4.15,4.15,0,0,0-1.29-.54v-2H30v2a4.15,4.15,0,0,0-1.29.54l-1.3-1.3-1.31,1.31,1.3,1.3a4.15,4.15,0,0,0-.54,1.29h-2v1.86h2a4.15,4.15,0,0,0,.54,1.29l-1.3,1.3,1.31,1.31,1.3-1.3A4.15,4.15,0,0,0,30,19.5v2h1.86v-2A4.15,4.15,0,0,0,33.11,19l1.3,1.3,1.31-1.31-1.3-1.3A4.15,4.15,0,0,0,35,16.36h2Zm-6,1.39a2.32,2.32,0,1,1,2.32-2.32A2.32,2.32,0,0,1,30.89,17.75Z" fill="#fff"/>
        <path d="M17.44,17.28a.93.93,0,1,1,1.86,0h1.86a2.78,2.78,0,0,0-4.64-2.07,2.78,2.78,0,0,0-4.64,2.07h1.86a.93.93,0,1,1,1.86,0Z" fill="#fff"/>
        <path d="M22.08,20.07a2.77,2.77,0,0,0-1.86.71,2.78,2.78,0,0,0-4.64,2.07h1.86a.93.93,0,1,1,1.86,0h1.86a.93.93,0,1,1,1.86,0h1.86A2.79,2.79,0,0,0,22.08,20.07Z" fill="#fff"/>
        <rect x="18.83" y="33.06" width="4.64" height="1.86" fill="#fff"/>
        <rect x="23" y="37.23" width="4.64" height="1.86" fill="#fff"/>
        <rect x="27.18" y="32.59" width="4.64" height="1.86" fill="#fff"/>
    </symbol>
    <symbol id="filter-popular" viewBox="0 0 25 25">
        <path d="M12.5,20.21a9.5,9.5,0,1,1,9.5-9.5A9.51,9.51,0,0,1,12.5,20.21Zm0-17.47a8,8,0,1,0,8,8A8,8,0,0,0,12.5,2.73Z"/>
        <path d="M7.71,18.22a11.09,11.09,0,0,0,5.07,1.67,10.51,10.51,0,0,0,5.07-1.67v5.57s-5-1.71-5.07-1.71-5.07,1.71-5.07,1.71Z"/>
        <path d="M12.5,5.46,10.89,9.22H7.66l2.69,2.15L9.27,15.14,12.5,13l3.22,2.15-1.07-3.76,2.69-2.15H14.11Z"/>
    </symbol>
    <symbol id="filter-bonus" viewBox="0 0 25 25">
        <path d="M21.37,13.44c0-.3,0-.6,0-.9s0-.61,0-.91l1.57-.91a7.66,7.66,0,0,0-1.18-3.51,10.12,10.12,0,0,0-2.32-2.86l-1.59.92A9.22,9.22,0,0,0,16.1,4.2V2.43a10.12,10.12,0,0,0-3.64-.57,7.66,7.66,0,0,0-3.63.73V4a9.19,9.19,0,0,0-2,1.08L5.56,4.32A10.11,10.11,0,0,0,3.25,7.18a7.66,7.66,0,0,0-1.18,3.51l1,.59A9.2,9.2,0,0,0,3,12.54a9.2,9.2,0,0,0,.1,1.25L2,14.42a10.12,10.12,0,0,0,1.32,3.44,7.66,7.66,0,0,0,2.45,2.78L6.84,20a9.19,9.19,0,0,0,2,1.09v1.31a7.65,7.65,0,0,0,3.63.73,10.12,10.12,0,0,0,3.64-.57V20.88a9.22,9.22,0,0,0,1.75-1.07l1.38.8a7.66,7.66,0,0,0,2.45-2.78A10.12,10.12,0,0,0,23,14.38Zm-1.51-.9A7.66,7.66,0,1,1,12.2,4.89,7.66,7.66,0,0,1,19.86,12.54Z"/>
        <path d="M11.86,7V7.7A2.75,2.75,0,0,0,10,8.55a2.57,2.57,0,0,0-.68,1.82,2.8,2.8,0,0,0,.6,1.82,3.63,3.63,0,0,0,1.89,1.12v2.76a1.8,1.8,0,0,1-.65-.55,2.19,2.19,0,0,1-.4-.91l-1.72.18a3.5,3.5,0,0,0,.91,2,3,3,0,0,0,1.85.85v1.2h1V17.6a3.17,3.17,0,0,0,2-1,2.93,2.93,0,0,0,.72-2A2.62,2.62,0,0,0,15,12.84a4.25,4.25,0,0,0-2.15-1.11V9.16a1.34,1.34,0,0,1,.79,1.05L15.27,10a2.76,2.76,0,0,0-.79-1.58,2.83,2.83,0,0,0-1.67-.72V7Zm0,4.37a1.47,1.47,0,0,1-.64-.48,1.11,1.11,0,0,1-.21-.65,1.16,1.16,0,0,1,.23-.7,1.24,1.24,0,0,1,.62-.45Zm1.81,2.65a1.16,1.16,0,0,1,.26.76,1.29,1.29,0,0,1-.31.86,1.34,1.34,0,0,1-.8.46V13.58A1.66,1.66,0,0,1,13.66,14.07Z"/>
    </symbol>
    <symbol id="filter-spins" viewBox="0 0 25 25">
        <path d="M16.35,5.22a2.86,2.86,0,0,0-5.72,0,2.75,2.75,0,0,0,2.13,2.62v7.47H10.19a1.54,1.54,0,0,0-1.54,1.54V21a1.54,1.54,0,0,0,1.54,1.54h2.56a1.52,1.52,0,0,0,.45-.07.76.76,0,0,0,.32.07.77.77,0,0,0,.77-.77V7.83A2.74,2.74,0,0,0,16.35,5.22Z"/>
    </symbol>
    <symbol id="filter-new" viewBox="0 0 25 25">
        <path d="M19.25,4.12h-9A1.75,1.75,0,0,0,8.5,5.87V9.12H5.75A1.75,1.75,0,0,0,4,10.87v9a1.75,1.75,0,0,0,1.75,1.75h9a1.75,1.75,0,0,0,1.75-1.75V16.62h2.75A1.75,1.75,0,0,0,21,14.87v-9A1.75,1.75,0,0,0,19.25,4.12ZM15,19.87a.25.25,0,0,1-.25.25h-9a.25.25,0,0,1-.25-.25v-9a.25.25,0,0,1,.25-.25H8.5v4.25a1.75,1.75,0,0,0,1.75,1.75H15Zm4.5-5a.25.25,0,0,1-.25.25h-9a.25.25,0,0,1-.25-.25v-9a.25.25,0,0,1,.25-.25h9a.25.25,0,0,1,.25.25Z"/>
        <path d="M14.18,13.94v-2.6H11.56V9.54h2.62V6.94h1.75v2.6h2.63v1.8H15.93v2.6Z"/>
    </symbol>
    <symbol id="18plus" viewBox="0 0 32 32">
        <circle cx="16" cy="16" r="16" fill="#EEEEEE"/>
        <path fill="#373B40" d="M11.485,21 L11.485,12.329 L9.873,12.329 L7.143,15.072 L8.196,16.177 L9.639,14.708 L9.639,21 L11.485,21 Z M16.282,21.156 C14.462,21.156 12.798,20.363 12.798,18.751 C12.798,17.698 13.617,16.892 14.657,16.528 C13.695,16.19 12.941,15.566 12.941,14.487 C12.941,12.849 14.67,12.199 16.282,12.199 C17.881,12.199 19.623,12.849 19.623,14.487 C19.623,15.566 18.856,16.19 17.907,16.528 C18.934,16.892 19.766,17.698 19.766,18.751 C19.766,20.363 18.102,21.156 16.282,21.156 Z M16.282,15.8 C16.815,15.709 17.738,15.436 17.738,14.799 C17.738,14.188 17.127,13.837 16.282,13.837 C15.424,13.837 14.813,14.188 14.813,14.799 C14.813,15.436 15.749,15.709 16.282,15.8 Z M16.282,19.518 C17.166,19.518 17.894,19.115 17.894,18.491 C17.894,17.776 16.815,17.438 16.282,17.36 C15.736,17.438 14.67,17.776 14.67,18.491 C14.67,19.115 15.372,19.518 16.282,19.518 Z M26.396,17.126 L26.396,16.099 L24.069,16.099 L24.069,13.551 L22.938,13.551 L22.938,16.099 L20.598,16.099 L20.598,17.126 L22.938,17.126 L22.938,19.765 L24.069,19.765 L24.069,17.126 L26.396,17.126 Z"/>
    </symbol>
    <symbol id="gamcare" viewBox="0 0 28 32">
        <path d="M4.34,28.79A2.17,2.17,0,0,1,2.17,31,2.08,2.08,0,0,1,.55,30.3,2.23,2.23,0,0,1,0,28.78,2.18,2.18,0,0,1,.67,27.2a2.08,2.08,0,0,1,1.55-.62,2,2,0,0,1,1.87,1.17H3.32a1.41,1.41,0,0,0-1.16-.55,1.46,1.46,0,0,0-1.06.44,1.68,1.68,0,0,0,0,2.29,1.53,1.53,0,0,0,1.09.48,1.58,1.58,0,0,0,1.47-1H1.7v-.6H4.34m2-1.31L5.71,29.1H6.92ZM5,30.95H4.35L6,26.67h.6l1.67,4.28H7.61L7.14,29.7H5.49L5,30.95Z" fill="#eee"/>
        <polyline points="8.52 30.95 8.52 26.67 9.44 26.67 10.68 29.98 11.91 26.67 12.82 26.67 12.82 30.95 12.23 30.95 12.28 27.23 10.89 30.95 10.45 30.95 9.07 27.23 9.12 30.95 8.52 30.95" fill="#eee"/>
        <path d="M15.53,31a2.1,2.1,0,0,1-1.58-.68,2.23,2.23,0,0,1-.61-1.59A2.12,2.12,0,0,1,14,27.22a2.15,2.15,0,0,1,1.55-.63,2.19,2.19,0,0,1,2.12,1.71H16.54a1.1,1.1,0,0,0-1-.64,1.12,1.12,0,0,0-1.13,1.12A1.17,1.17,0,0,0,15.53,30a1.12,1.12,0,0,0,1-.61h1.13A2.14,2.14,0,0,1,15.53,31m4.1-3-.43,1.37H20Zm-.92,2.88H17.56l1.64-4.28h.85l1.64,4.28H20.54l-.21-.62H18.92l-.22.62ZM23,28.64c.52,0,.77-.13.77-.52s-.22-.5-.68-.5h-.29v1Zm-1.25,2.3V26.67h1.42a1.77,1.77,0,0,1,1.08.23,1.38,1.38,0,0,1,.58,1.2,1.33,1.33,0,0,1-1,1.38l1,1.47H23.63l-.82-1.38v1.38Z" fill="#eee"/>
        <g>
            <polyline points="25.4 30.95 25.4 26.67 27.71 26.67 27.71 27.61 26.44 27.61 26.44 28.3 27.71 28.3 27.71 29.25 26.44 29.25 26.44 30 27.71 30 27.71 30.95 25.4 30.95" fill="#eee"/>
            <path d="M27,14.92a1,1,0,0,0-.38-.13H17.92a1.07,1.07,0,0,0,0,2.14h3.24a.2.2,0,0,1,.19.2.19.19,0,0,1-.08.15,14,14,0,0,1-6.56,1.53,15.92,15.92,0,0,1-1.78-.1v2.43c.5,0,1,.06,1.54.06a18,18,0,0,0,9-2.25h0l.1,0a.21.21,0,0,1,.21.21.2.2,0,0,1,0,.06l-.49,1.35a1.37,1.37,0,0,0,.81,1.76,1.36,1.36,0,0,0,1.75-.81l1.79-4.87A1.36,1.36,0,0,0,27,14.92" fill="#eee"/>
        </g>
        <path d="M14.71,5.72a14,14,0,0,1,6.61,1.55s1.13.82,1.67,0-.62-1.46-.62-1.46a18.71,18.71,0,0,0-7.91-1.66c-.52,0-1,0-1.54.06V5.82a15.92,15.92,0,0,1,1.78-.1M1.9.11A1.89,1.89,0,0,0,0,2V22.63A1.89,1.89,0,0,0,1.9,24.52h11v-3.4C6.29,20.64,1.14,17,1.14,12.68s5.15-8,11.79-8.44V.11H1.9" fill="#eee"/>
        <path d="M4.48,12.26c0,3.22,3.65,5.9,8.45,6.43V5.82C8.13,6.36,4.48,9,4.48,12.26" fill="#eee"/>
    </symbol>
    <symbol id="gambleaware" viewBox="0 0 155 24">
        <path d="M3.46,11.82c0,2.4,1,3.75,3,3.75S9.57,14,9.57,11.69,8.34,7.94,6.67,7.94c-2,.06-3.21,1.54-3.21,3.88Zm6.05,4.55a5,5,0,0,1-4.08,2C2.28,18.34,0,15.63,0,11.75S2.35,5.17,5.68,5.17C7,5.17,8,5.66,9.57,6.89V5.48h4.57V8.06H12.91V18.4c0,3.2-2.41,5.11-6.48,5.11a7,7,0,0,1-4.63-1.35,4.4,4.4,0,0,1-1.61-3H3.46A2.67,2.67,0,0,0,6.36,21c1.91,0,3.21-1,3.21-2.52C9.51,18.46,9.51,16.37,9.51,16.37Zm14-3.82c-3.15.31-5.25.55-5.25,2.46,0,1.11.86,1.85,2.22,1.85a2.94,2.94,0,0,0,3-3Zm3.15,3.75h1.17v2.58h-4.2v-1.6a5,5,0,0,1-4.08,1.85c-2.72,0-4.75-1.78-4.75-4.18,0-3.94,4.45-4.37,8.77-4.8,0-2.09-.56-2.58-2.47-2.58a2.19,2.19,0,0,0-2.41,2l-3.27-.12C15.56,6.77,17.72,5,20.93,5c3.71,0,5.74,1.66,5.74,4.74l-.06,6.52Zm6.55-9.23c1.42-1.54,2.35-1.91,3.89-1.91s2.35.55,3.21,2.09a5.57,5.57,0,0,1,4.08-2.09A3.55,3.55,0,0,1,48,9v7.38h1.24V19H44.65V9.85c0-1.17-.56-1.91-1.42-1.91-1.36,0-2.66,1.78-2.66,3.63v4.68h1.3v2.58H37.24V10c0-1.35-.43-2-1.42-2-1.48,0-2.78,1.78-2.72,3.94v4.37h1.3v2.58H28.65V16.25h1.11V8.06H28.59V5.48H33v1.6Zm21.37,5.17c0,2.77,1.11,4.25,3.27,4.25,1.85,0,3-1.66,3-4.31s-1.17-4.31-3-4.31c-2.1,0-3.27,1.6-3.27,4.37ZM50,.37h4.57V7C55.95,5.6,57,5,58.42,5c3.4,0,5.8,2.89,5.8,7,0,4.31-2.28,7.2-5.62,7.2-1.67,0-2.59-.43-4.14-1.78v1.48H49.9V16.31h1.42V3H50V.37Z" fill="#eee"/>
        <polygon points="65.03 0.37 69.6 0.37 69.6 16.31 70.89 16.31 70.89 18.89 65.03 18.89 65.03 16.31 66.32 16.31 66.32 2.95 65.03 2.95 65.03 0.37" fill="#eee"/>
        <path d="M80.77,10.52a2.71,2.71,0,0,0-2.84-2.65,3.13,3.13,0,0,0-3,2.65Zm3.46,4c-.62,2.89-3,4.74-6.36,4.74-3.77,0-6.55-3-6.55-7.08s2.78-7.08,6.61-7.08a6,6,0,0,1,5.19,2.77,9.26,9.26,0,0,1,1.36,5H74.72c.31,3.51,2.59,3.69,3.27,3.69a2.74,2.74,0,0,0,2.78-2l3.46-.06Zm10-2.46-1.17.18c-2.47.37-3.52.74-4.2,1.42A1.87,1.87,0,0,0,88.31,15a2.33,2.33,0,0,0,2.35,2.28,3.67,3.67,0,0,0,3.58-3.32V12.06Zm0,5a6.18,6.18,0,0,1-4.57,2.09,4.11,4.11,0,0,1-4.38-4.06,4,4,0,0,1,1-2.65c1-1,2.53-1.54,6.11-1.91l1.79-.18V9.54c0-1.54-1-2.4-2.84-2.4-1.67,0-2.47.62-2.78,2.22H85.77a4.38,4.38,0,0,1,1.3-2.89A6.52,6.52,0,0,1,91.52,5c3.33,0,5.31,1.66,5.31,4.49v7.2h1.61v2.15H94.17l.06-1.78Z" fill="#eee"/>
        <polygon points="98.25 5.42 103.44 5.42 103.44 7.57 101.95 7.57 104.18 16.68 106.77 5.42 109.3 5.42 111.9 16.68 114.12 7.57 112.64 7.57 112.64 5.42 117.76 5.42 117.76 7.57 116.4 7.57 113.32 18.89 110.48 18.89 108.01 8.8 105.6 18.89 102.69 18.89 99.55 7.57 98.25 7.57 98.25 5.42" fill="#eee"/>
        <path d="M127.21,12.06l-1.17.18c-2.47.37-3.52.74-4.2,1.42a1.87,1.87,0,0,0-.56,1.29,2.33,2.33,0,0,0,2.35,2.28,3.67,3.67,0,0,0,3.58-3.32V12.06Zm0,5c-1.24,1.11-2.35,2.09-4.51,2.09a4.11,4.11,0,0,1-4.38-4.06,4,4,0,0,1,1-2.65c1-1,2.53-1.54,6.11-1.91l1.79-.18V9.54c0-1.54-1-2.4-2.84-2.4-1.67,0-2.47.62-2.78,2.22h-2.78a4.38,4.38,0,0,1,1.3-2.89A6.52,6.52,0,0,1,124.56,5c3.33,0,5.31,1.66,5.31,4.49v7.2h1.61v2.15h-4.26Zm9.32-8.68c.74-1.6,1.54-3.32,4-3.32a5.07,5.07,0,0,1,1.3.18V7.82a7.07,7.07,0,0,0-1.3-.18c-3,0-3.89,3-3.89,4v5.11h1.54v2.15H132.4V16.74h1.54V7.51H132.4V5.42h4.14v3Zm15,2.4c-.12-2.22-1.17-3.45-3-3.45-2.78,0-3.58,3.08-3.58,3.45Zm2.78,3.94c-.56,1.35-1.91,4.43-5.8,4.43s-6.42-2.89-6.42-7.2c0-4,2.78-6.89,6.48-6.89,2.16,0,6,1.23,6,7.57h-9.76c.12,3,2,4.25,3.83,4.25a2.69,2.69,0,0,0,2.78-2.22h2.9v.06Z" fill="#eee"/>
    </symbol>
</svg>




