<svg xmlns="http://www.w3.org/2000/svg" xmlns:xlink="http://www.w3.org/1999/xlink">
    <symbol viewBox="0 0 500 80" id="logo-dices">
        <path d="M42.42,71.74a4.73,4.73,0,0,1-1.14-.14h0l-27.9-7.1a4.75,4.75,0,0,1-2.91-2.13,4.65,4.65,0,0,1-.56-3.59L17,30.87a4.73,4.73,0,0,1,5.72-3.47l27.91,7.1a4.74,4.74,0,0,1,3.47,5.72L47,68.08A4.48,4.48,0,0,1,45,71,4.8,4.8,0,0,1,42.42,71.74Zm-.29-3.53a1.27,1.27,0,0,0,1-.17,1,1,0,0,0,.47-.66l0-.11,7.1-27.9a1.17,1.17,0,0,0-.14-.9,1.28,1.28,0,0,0-.78-.57L21.87,30.8a1.18,1.18,0,0,0-.9.14,1.28,1.28,0,0,0-.57.78L13.3,59.63a1.17,1.17,0,0,0,.14.9,1.27,1.27,0,0,0,.78.57Z"/>
        <circle cx="24.6" cy="37.5" r="3.7"/>
        <circle cx="44.2" cy="42.4" r="3.7"/>
        <circle cx="20" cy="56.8" r="3.7"/>
        <circle cx="39.3" cy="61.7" r="3.7"/>
        <path d="M55,57.12a7.07,7.07,0,0,1-2.12-.39l-.45-.13.76-3.42c.22,0,.46.12.71.2.82.25,1.22.33,1.64.09L80.2,38.7A1.29,1.29,0,0,0,80.58,37L65.9,12.29a1.29,1.29,0,0,0-1.73-.38L39.58,26.55c-.47.38-.56.9-.64,1.7a7,7,0,0,1-.14.87l-3.4-.85a3.87,3.87,0,0,0,.06-.42,5.49,5.49,0,0,1,2.11-4.17l.14-.09L62.4,8.9a4.8,4.8,0,0,1,6.51,1.64L83.6,35.21A4.81,4.81,0,0,1,82,41.72L57.3,56.5A4.57,4.57,0,0,1,55,57.12Z"/>
        <circle cx="58.38" cy="32.53" r="3.7"/>
    </symbol>
    <symbol viewBox="0 0 500 80" id="logo-gambling">
        <path d="M121.3,40h5.8V50.2a20.75,20.75,0,0,1-10.7,3.3c-7.9,0-13.8-5.7-13.8-13.2s6.1-13.1,14.2-13.1A16.92,16.92,0,0,1,127.4,31l-3.8,4.7a10.56,10.56,0,0,0-6.8-2.8,7.18,7.18,0,0,0-7.3,7.4,7.26,7.26,0,0,0,7.4,7.4,10.46,10.46,0,0,0,4.5-1.2V40Z"/>
        <path d="M148.8,48.6H137.6l-1.8,4.6h-6.9L140,27.3h6.9l10.8,25.8h-7.2Zm-2-5.2-3.5-9.2-3.6,9.2Z"/>
        <path d="M167.4,27.3l6.8,15.1L181,27.3h7.4V53.1h-6V36.8l-6,13.8H172l-6-13.8V53.1h-6V27.3Z"/>
        <path d="M215.3,33.9a5.65,5.65,0,0,1-4.5,5.6,6.37,6.37,0,0,1,5.3,6.5c0,4.4-3.9,7.2-9.9,7.2H193.5V27.3h12.3C211.6,27.3,215.3,29.9,215.3,33.9ZM208.4,35c0-1.5-1.2-2.4-3-2.4h-5.2v5h5.2C207.2,37.6,208.4,36.6,208.4,35Zm.8,10.1c0-1.6-1.5-2.6-3.8-2.6h-5.2v5.4h5.2C207.7,47.9,209.2,46.9,209.2,45.1Z"/>
        <path d="M226.6,27.3V47.4h10.9v5.7H219.8V27.3Z"/>
        <path d="M247.3,27.3V53.1h-6.7V27.3Z"/>
        <path d="M258.2,27.3l11.7,15.5V27.3h6.3V53.1h-5.9L258.6,37.6V53.1h-6.3V27.3Z"/>
        <path d="M298.3,40h5.8V50.2a20.75,20.75,0,0,1-10.7,3.3c-7.9,0-13.8-5.7-13.8-13.2s6.1-13.1,14.2-13.1A16.92,16.92,0,0,1,304.4,31l-3.8,4.7a10.56,10.56,0,0,0-6.8-2.8,7.18,7.18,0,0,0-7.3,7.4,7.26,7.26,0,0,0,7.4,7.4,10.46,10.46,0,0,0,4.5-1.2V40Z"/>
    </symbol>
    <symbol viewBox="0 0 500 80" id="logo-advisor">
        <path d="M334.2,48.6H323l-1.8,4.6h-6.9l11.1-25.8h6.9l10.8,25.8H336Zm-2-5.2-3.5-9.2-3.6,9.2Z"/>
        <path d="M370.3,40.2c0,7.7-5.6,12.9-14,12.9H345.4V27.3h11.1C364.7,27.3,370.3,32.6,370.3,40.2Zm-6.9.1c0-4.5-2.9-7.5-7-7.5h-4.2V47.7h4.6C360.7,47.7,363.4,44.7,363.4,40.3Z"/>
        <path d="M378,27.3,384.4,46l6.5-18.7h6.9L387.7,53.1h-7l-10-25.8Z"/>
        <path d="M407,27.3V53.1h-6.7V27.3Z"/>
        <path d="M421.4,32.5c-1.6,0-2.7.6-2.7,1.8,0,4.3,13.6,1.8,13.6,11.1,0,5.3-4.6,7.9-10.4,7.9A19.68,19.68,0,0,1,410,49.2l2.6-5.3a16.31,16.31,0,0,0,9.3,3.9c2,0,3.2-.7,3.2-2.1,0-4.4-13.6-1.7-13.6-10.9,0-4.8,4.1-7.9,10.3-7.9a20.06,20.06,0,0,1,10.3,2.9l-2.5,5.3C427,33.7,423.6,32.5,421.4,32.5Z"/>
        <path d="M462,40.2c0,7.5-6,13.2-13.9,13.2s-13.9-5.7-13.9-13.2,6-13.1,13.9-13.1S462,32.7,462,40.2Zm-21,.1a7.26,7.26,0,0,0,7.1,7.4,7.12,7.12,0,0,0,7-7.4,7.12,7.12,0,0,0-7-7.4A7.2,7.2,0,0,0,441,40.3Z"/>
        <path d="M480.8,53.1,477,46h-5v7.1h-6.7V27.3h11.6c6.8,0,10.7,3.3,10.7,9.1,0,3.9-1.6,6.8-4.6,8.3l5.4,8.4Zm-8.7-12.5H477c2.7,0,4.3-1.4,4.3-4s-1.6-3.9-4.3-3.9h-4.9Z"/>
    </symbol>
    <symbol viewBox="0 0 32 32" id="icon-blog">
        <path d="M4.9,29.75a4.22,4.22,0,0,1-3.2-1,2,2,0,0,1-.56-1.42V16.2H4.9v1H2.14V27.34a1,1,0,0,0,.31.72,3.29,3.29,0,0,0,2.44.69Z"/>
        <path d="M28.36,31H6.54A2.5,2.5,0,0,1,4,28.46V3.54A2.5,2.5,0,0,1,6.54,1H28.36a2.5,2.5,0,0,1,2.5,2.5V28.46A2.5,2.5,0,0,1,28.36,31ZM6.54,2A1.5,1.5,0,0,0,5,3.54V28.46A1.5,1.5,0,0,0,6.54,30H28.36a1.5,1.5,0,0,0,1.5-1.5V3.54A1.5,1.5,0,0,0,28.36,2Z"/>
        <path d="M9.53,5.09h5.78a2,2,0,0,1,2,2v5.81a2,2,0,0,1-2,2H9.53a2,2,0,0,1-2-2V7.09A2,2,0,0,1,9.53,5.09Z"/>
        <path d="M8.36,17h19a.5.5,0,0,1,.5.5h0a.5.5,0,0,1-.5.5h-19a.5.5,0,0,1-.5-.5h0A.5.5,0,0,1,8.36,17Z"/>
        <path d="M8.36,20h19a.5.5,0,0,1,.5.5h0a.5.5,0,0,1-.5.5h-19a.5.5,0,0,1-.5-.5h0A.5.5,0,0,1,8.36,20Z"/>
        <path d="M8.36,23h19a.5.5,0,0,1,.5.5h0a.5.5,0,0,1-.5.5h-19a.5.5,0,0,1-.5-.5h0A.5.5,0,0,1,8.36,23Z"/>
        <path d="M19.36,7h8a.5.5,0,0,1,.5.5h0a.5.5,0,0,1-.5.5h-8a.5.5,0,0,1-.5-.5h0A.5.5,0,0,1,19.36,7Z"/>
        <path d="M19.36,10h8a.5.5,0,0,1,.5.5h0a.5.5,0,0,1-.5.5h-8a.5.5,0,0,1-.5-.5h0A.5.5,0,0,1,19.36,10Z"/>
        <path d="M19.36,13h8a.5.5,0,0,1,.5.5h0a.5.5,0,0,1-.5.5h-8a.5.5,0,0,1-.5-.5h0A.5.5,0,0,1,19.36,13Z"/>
        <path d="M8.36,26h10a.5.5,0,0,1,.5.5h0a.5.5,0,0,1-.5.5h-10a.5.5,0,0,1-.5-.5h0A.5.5,0,0,1,8.36,26Z"/>
    </symbol>
    <symbol viewBox="0 0 32 32" id="icon-filter">
        <path d="M6.5,8h19a1,1,0,0,1,1,1h0a1,1,0,0,1-1,1H6.5a1,1,0,0,1-1-1h0A1,1,0,0,1,6.5,8Z"/>
        <path d="M6.5,15h19a1,1,0,0,1,1,1h0a1,1,0,0,1-1,1H6.5a1,1,0,0,1-1-1h0A1,1,0,0,1,6.5,15Z"/>
        <path d="M6.5,22h19a1,1,0,0,1,1,1h0a1,1,0,0,1-1,1H6.5a1,1,0,0,1-1-1h0A1,1,0,0,1,6.5,22Z"/>
        <circle cx="20.5" cy="16" r="3"/>
        <circle cx="15.5" cy="9" r="3"/>
        <circle cx="11.5" cy="23" r="3"/>
    </symbol>
    <symbol viewBox="0 0 120 110" id="icon-dices">
        <path d="M54.1,102.88a4.24,4.24,0,0,1-1-.13h0L6.81,91a4.26,4.26,0,0,1-3.08-5.16L15.46,39.61a4.26,4.26,0,0,1,5.16-3.07L66.87,48.27a4.26,4.26,0,0,1,3.07,5.17L58.22,99.67a4.27,4.27,0,0,1-4.12,3.21Zm-.43-2.55a1.75,1.75,0,0,0,2.13-1.27L67.52,52.82a1.76,1.76,0,0,0-1.26-2.13L20,39a1.76,1.76,0,0,0-2.13,1.27L6.16,86.47a1.75,1.75,0,0,0,1.27,2.13Z"/>
        <circle cx="25.39" cy="51.03" r="5.66"/>
        <circle cx="55.63" cy="58.62" r="5.66"/>
        <circle cx="18.31" cy="80.88" r="5.66"/>
        <circle cx="48.03" cy="88.47" r="5.66"/>
        <path d="M71.71,80.14a5.57,5.57,0,0,1-4.86-2.56l-3.58-6.69,2.21-1.18L69,76.35c.92,1.53,3.28,1.62,4.81.7L112,54.32a3.38,3.38,0,0,0,1.18-4.64L90.46,11.5a3.38,3.38,0,0,0-4.64-1.18L47.69,33c-1.62,1.19-2.19,2.3-.86,4.93l3.71,6.3-2.16,1.27-3.74-6.37c-1.8-3.55-1.28-6.06,1.62-8.18l.1-.06L84.55,8.17a5.89,5.89,0,0,1,8.06,2L115.35,48.4a5.89,5.89,0,0,1-2,8.06L75.12,79.2A6.67,6.67,0,0,1,71.71,80.14Z"/>
        <circle cx="77.57" cy="43.42" r="5.66" transform="translate(-7.98 67.57) rotate(-45)"/>
    </symbol>
    <symbol viewBox="0 0 32 32" id="icon-fb">
        <path d="M14.93,23.86h2.75V17.16h2.23l.34-2.63H17.68V12.72a1.31,1.31,0,0,1,.18-.75c.18-.26.54-.37,1.25-.37h1.25V9.24a10.57,10.57,0,0,0-3.09,0,3,3,0,0,0-2.35,2.87v2.39H12.63v2.63h2.29Z"/>
    </symbol>
    <symbol viewBox="0 0 32 32" id="icon-tw">
        <path d="M9.51,10.78a9.55,9.55,0,0,0,6.76,3.29,3.35,3.35,0,0,1,2.16-3.74,3.09,3.09,0,0,1,3.38.82A4.54,4.54,0,0,0,24,10.41C24,11,22.74,12,22.55,12.15a5.64,5.64,0,0,0,1.88-.46,6.46,6.46,0,0,1-1.6,1.55,9.35,9.35,0,0,1-6.1,9,9,9,0,0,1-8.16-.82,6.84,6.84,0,0,0,4.69-1.37,3.26,3.26,0,0,1-3-2.19,3,3,0,0,0,1.41,0A3.59,3.59,0,0,1,9,14.61a3.5,3.5,0,0,0,1.5.46A3.33,3.33,0,0,1,9.51,10.78Z"/>
    </symbol>
    <symbol viewBox="0 0 100 90" id="image-stars">
        <path d="M49.75,11.5l-7,13L28.25,27l10,10.5L36.75,53l13-6.5Z" fill="#f29e25"/>
        <path d="M49.75,11.5l7,13L71.25,27l-10,10.5L62.75,53l-13-6.5Z" fill="#ffae3a"/>
        <path d="M15.5,45.5l-4.15,7.67-8.6,1.48,5.93,6.2L7.79,70l7.71-3.84Z" fill="#f29e25"/>
        <path d="M15.5,45.5l4.15,7.67,8.6,1.48-5.93,6.2L23.21,70,15.5,66.16Z" fill="#ffae3a"/>
        <path d="M84.5,45.5l-4.15,7.67-8.6,1.48,5.93,6.2L76.79,70l7.71-3.84Z" fill="#f29e25"/>
        <path d="M84.5,45.5l4.15,7.67,8.6,1.48-5.93,6.2L92.21,70,84.5,66.16Z" fill="#ffae3a"/>
        <path d="M37.5,62.5l-2.69,5-5.56,1,3.84,4-.58,6,5-2.51Z" fill="#f29e25"/>
        <path d="M37.5,62.5l2.69,5,5.56,1-3.84,4,.58,6L37.5,76Z" fill="#ffae3a"/>
        <path d="M64,62.5l-2.69,5-5.56,1,3.84,4-.58,6L64,76Z" fill="#f29e25"/>
        <path d="M64,62.5l2.69,5,5.56,1-3.84,4,.58,6L64,76Z" fill="#ffae3a"/>
    </symbol>
    <symbol viewBox="0 0 100 90" id="image-diamond">
        <path d="M50.24,69.5,8.5,33.89,28.89,20.66l43.37-.16L91.5,33.57Z" fill="#e867d4"/>
        <path d="M50.24,69.34,91.33,33.73l-21.69-.16Z" fill="#ff9df0" opacity="0.3" style="isolation: isolate"/>
        <path d="M50.24,69.5,8.5,33.89l22.34-.16Z" fill="#ff9df0" opacity="0.3" style="isolation: isolate"/>
        <path d="M50.24,20.5,69.81,33.89l-39.13-.16Z" fill="#ff9df0" opacity="0.3" style="isolation: isolate"/>
    </symbol>
    <symbol viewBox="0 0 100 90" id="image-cards">
        <path d="M61.78,15.91,87.65,41.5a2.06,2.06,0,0,1,0,2.9l-36.91,37a2,2,0,0,1-2.9,0L22,55.8a2.06,2.06,0,0,1,0-2.9l36.91-37A2,2,0,0,1,61.78,15.91Z" fill="#3ec785"/>
        <path d="M49.29,83a3,3,0,0,1-2.16-.9L21.27,56.52a3.06,3.06,0,0,1,0-4.32l36.91-37a3,3,0,0,1,2.15-.89h0a3,3,0,0,1,2.16.89L88.35,40.79a3.06,3.06,0,0,1,0,4.32l-36.91,37A3,3,0,0,1,49.29,83Zm11-66.69a1,1,0,0,0-.74.31l-36.91,37a1.06,1.06,0,0,0,0,1.49L48.54,80.69a1.07,1.07,0,0,0,1.49,0l36.91-37a1.06,1.06,0,0,0,0-1.49L61.07,16.62a1,1,0,0,0-.74-.31Z" fill="#0d4150"/>
        <path d="M12.82,27.36,45.46,8.29a2.14,2.14,0,0,1,2.92.78l27.22,47A2.13,2.13,0,0,1,74.81,59L42.17,78.06a2.14,2.14,0,0,1-2.92-.78L12,30.26A2.13,2.13,0,0,1,12.82,27.36Z" fill="#fff"/>
        <path d="M41.11,79.34a3.14,3.14,0,0,1-2.72-1.56l-27.22-47a3.13,3.13,0,0,1,1.14-4.27L45,7.42a3.14,3.14,0,0,1,4.29,1.14l27.22,47a3.13,3.13,0,0,1-1.15,4.28L42.68,78.92A3.13,3.13,0,0,1,41.11,79.34ZM46.52,9a1.13,1.13,0,0,0-.57.15L13.32,28.22a1.13,1.13,0,0,0-.41,1.54l27.22,47a1.14,1.14,0,0,0,1.55.41L74.3,58.13a1.13,1.13,0,0,0,.53-.69,1.12,1.12,0,0,0-.11-.85l-27.22-47A1.14,1.14,0,0,0,46.52,9Z" fill="#0d4150"/>
        <path d="M38.51,34.75l-3,11.5s-.92,3.75,2,5,4.89.61,6.5-1,.5,2,.5,2l6-3.5-2-1,1-1s5.26-1.62,3.5-5.5c-.9-2.51-4-3.1-5.5-3.5S38.51,34.75,38.51,34.75Z" fill="#25404e"/>
    </symbol>
    <symbol viewBox="0 0 100 90" id="image-prize">
        <path d="M46,41.75l4-2.5v37.5H38.5v-2.5c0-2.83,4-4,4-4H47V58.75a22.63,22.63,0,0,1-10.5-9.5c-22.86-10.16-22-33-22-33h14v-3H50s0,9.52,0,9.5c-.52,0-1,1-1,1l-2,5.5a28.06,28.06,0,0,0-5.5,0c-2.16.33-1,2-1,2a15,15,0,0,0,3,3c1.56,1.06,1,1.5,1,1.5a9.43,9.43,0,0,0-1,4C43.25,42.59,46,41.75,46,41.75ZM29,20.25H19.5a27.79,27.79,0,0,0,15,23C28.86,35.32,29,20.25,29,20.25Z" fill="#f29e25"/>
        <path d="M63.5,49.25A22.63,22.63,0,0,1,53,58.75v11.5h4.5s4,1.17,4,4v2.5H50V39.25l4,2.5s2.75.84,2.5-2a9.43,9.43,0,0,0-1-4s-.56-.44,1-1.5a15,15,0,0,0,3-3s1.16-1.67-1-2a28.06,28.06,0,0,0-5.5,0l-2-5.5s-.48-1-1-1c0,0,0-9.5,0-9.5H71.5v3h14S86.36,39.09,63.5,49.25Zm7.5-29s.14,15.06-5.5,23a27.79,27.79,0,0,0,15-23Z" fill="#ffae3a"/>
    </symbol>
    <symbol viewBox="0 0 100 90" id="image-newspaper">
        <path d="M29.88,47h-6V66.5s-.25,3.5,6,3.5" fill="#d3d3d3"/>
        <path d="M29.88,71c-2.76,0-4.76-.65-5.95-1.92a3.71,3.71,0,0,1-1.05-2.65V46h7v2h-5V66.5a1.79,1.79,0,0,0,.56,1.26C26,68.33,27.2,69,29.88,69Z" fill="#0d4150"/>
        <rect x="28.63" y="18.5" width="47.5" height="53" rx="2" ry="2" fill="#fff"/>
        <path d="M74.13,73H30.63a3.5,3.5,0,0,1-3.5-3.5v-49a3.5,3.5,0,0,1,3.5-3.5h43.5a3.5,3.5,0,0,1,3.5,3.5v49A3.5,3.5,0,0,1,74.13,73ZM30.63,20a.5.5,0,0,0-.5.5v49a.5.5,0,0,0,.5.5h43.5a.5.5,0,0,0,.5-.5v-49a.5.5,0,0,0-.5-.5Z" fill="#0d4150"/>
        <rect x="34.13" y="25" width="18" height="18" rx="2" ry="2" fill="#d3d3d3"/>
        <path d="M35.13,44.75h34a1,1,0,0,1,0,2h-34a1,1,0,0,1,0-2Z" fill="#d3d3d3"/>
        <path d="M35.13,48.75h34a1,1,0,0,1,0,2h-34a1,1,0,0,1,0-2Z" fill="#d3d3d3"/>
        <path d="M35.13,52.75h34a1,1,0,0,1,0,2h-34a1,1,0,0,1,0-2Z" fill="#d3d3d3"/>
        <path d="M55.63,26.25h13.5a1,1,0,0,1,0,2H55.63a1,1,0,0,1,0-2Z" fill="#d3d3d3"/>
        <path d="M55.63,30.25h13.5a1,1,0,0,1,0,2H55.63a1,1,0,0,1,0-2Z" fill="#d3d3d3"/>
        <path d="M55.63,34.25h13.5a1,1,0,0,1,0,2H55.63a1,1,0,0,1,0-2Z" fill="#d3d3d3"/>
        <path d="M55.63,38.25h13.5a1,1,0,0,1,0,2H55.63a1,1,0,0,1,0-2Z" fill="#d3d3d3"/>
        <path d="M35.13,56.75h18.5a1,1,0,1,1,0,2H35.13a1,1,0,0,1,0-2Z" fill="#d3d3d3"/>
    </symbol>
    <symbol id="some_id" viewBox="0 0 50 50">
        <path d="M37.46,7.46A17.16,17.16,0,0,0,8.16,19.6a20.6,20.6,0,0,0,2.64,8.93c4.58,9,13.48,18.24,13.86,18.63a.93.93,0,0,0,1.33,0c.38-.39,9.3-9.62,13.88-18.65a20.57,20.57,0,0,0,2.62-8.9A17.05,17.05,0,0,0,37.46,7.46ZM25.32,45.16C23.27,43,16.94,35.91,13.1,28.91a20.22,20.22,0,0,1,5.25.87,22.63,22.63,0,0,0,7,1,22.63,22.63,0,0,0,7-1,20.22,20.22,0,0,1,5.26-.87C33.71,35.9,27.38,43,25.32,45.16ZM38.52,27a22.47,22.47,0,0,0-6.72,1,20.79,20.79,0,0,1-6.48.89A20.79,20.79,0,0,1,18.84,28a22.47,22.47,0,0,0-6.72-1A17.89,17.89,0,0,1,10,19.6a15.31,15.31,0,1,1,30.62,0A17.9,17.9,0,0,1,38.52,27Z" fill="#fff"/>
        <path d="M36.92,16.36V14.5H35a4.15,4.15,0,0,0-.54-1.29l1.3-1.3L34.41,10.6l-1.3,1.3a4.15,4.15,0,0,0-1.29-.54v-2H30v2a4.15,4.15,0,0,0-1.29.54l-1.3-1.3-1.31,1.31,1.3,1.3a4.15,4.15,0,0,0-.54,1.29h-2v1.86h2a4.15,4.15,0,0,0,.54,1.29l-1.3,1.3,1.31,1.31,1.3-1.3A4.15,4.15,0,0,0,30,19.5v2h1.86v-2A4.15,4.15,0,0,0,33.11,19l1.3,1.3,1.31-1.31-1.3-1.3A4.15,4.15,0,0,0,35,16.36h2Zm-6,1.39a2.32,2.32,0,1,1,2.32-2.32A2.32,2.32,0,0,1,30.89,17.75Z" fill="#fff"/>
        <path d="M17.44,17.28a.93.93,0,1,1,1.86,0h1.86a2.78,2.78,0,0,0-4.64-2.07,2.78,2.78,0,0,0-4.64,2.07h1.86a.93.93,0,1,1,1.86,0Z" fill="#fff"/>
        <path d="M22.08,20.07a2.77,2.77,0,0,0-1.86.71,2.78,2.78,0,0,0-4.64,2.07h1.86a.93.93,0,1,1,1.86,0h1.86a.93.93,0,1,1,1.86,0h1.86A2.79,2.79,0,0,0,22.08,20.07Z" fill="#fff"/>
        <rect x="18.83" y="33.06" width="4.64" height="1.86" fill="#fff"/>
        <rect x="23" y="37.23" width="4.64" height="1.86" fill="#fff"/>
        <rect x="27.18" y="32.59" width="4.64" height="1.86" fill="#fff"/>
    </symbol>
</svg>




